<?xml version="1.0" standalone="no"?>
<!DOCTYPE svg PUBLIC "-//W3C//DTD SVG 1.1//EN" "http://www.w3.org/Graphics/SVG/1.1/DTD/svg11.dtd" >
<svg xmlns="http://www.w3.org/2000/svg" xmlns:xlink="http://www.w3.org/1999/xlink" version="1.1">
<metadata></metadata>
<defs>
<font id="merriweather_sansitalic" horiz-adv-x="0" >
<font-face units-per-em="2048" ascent="1638" descent="-410" />
<missing-glyph horiz-adv-x="485" />
<glyph unicode="&#xfb01;" horiz-adv-x="1279" d="M142 984l28 156h132l14 94q27 205 132 324q110 123 290 123q93 0 148 -26l-50 -159q-41 32 -114 32h-28t-56.5 -19.5t-57.5 -52.5q-49 -64 -62 -165l-21 -151h211l-12 -156h-220l-133 -984h-195l133 984h-139zM819 0l155 1140h195l-155 -1140h-195zM996 1503q0 59 46 105 q43 43 85 43t65 -9q71 -29 71 -101q0 -63 -47 -109q-46 -44 -87.5 -44t-62.5 10q-70 30 -70 105z" />
<glyph unicode="&#xfb02;" horiz-adv-x="1279" d="M142 984l28 156h132l14 94q27 205 132 324q110 123 290 123q93 0 148 -26l-50 -159q-41 32 -114 32h-28t-56.5 -19.5t-57.5 -52.5q-49 -64 -62 -165l-21 -151h211l-12 -156h-220l-133 -984h-195l133 984h-139zM820 4l223 1634h195l-223 -1634h-195z" />
<glyph unicode="&#xfb03;" horiz-adv-x="1974" d="M142 984l28 156h132l14 94q27 205 132 324q110 123 290 123q93 0 148 -26l-50 -159q-41 32 -114 32h-28t-56.5 -19.5t-57.5 -52.5q-49 -64 -62 -165l-21 -151h211l-12 -156h-220l-133 -984h-195l133 984h-139zM837 984l28 156h132l14 94q27 205 132 324q110 123 290 123 q93 0 148 -26l-50 -159q-41 32 -114 32h-28t-56.5 -19.5t-57.5 -52.5q-49 -64 -62 -165l-21 -151h211l-12 -156h-220l-133 -984h-195l133 984h-139zM1514 0l155 1140h195l-155 -1140h-195zM1691 1503q0 59 46 105q43 43 85 43t65 -9q71 -29 71 -101q0 -63 -47 -109 q-46 -44 -87.5 -44t-62.5 10q-70 30 -70 105z" />
<glyph unicode="&#xfb04;" horiz-adv-x="1974" d="M142 984l28 156h132l14 94q27 205 132 324q110 123 290 123q93 0 148 -26l-50 -159q-41 32 -114 32h-28t-56.5 -19.5t-57.5 -52.5q-49 -64 -62 -165l-21 -151h211l-12 -156h-220l-133 -984h-195l133 984h-139zM837 984l28 156h132l14 94q27 205 132 324q110 123 290 123 q93 0 148 -26l-50 -159q-41 32 -114 32h-28t-56.5 -19.5t-57.5 -52.5q-49 -64 -62 -165l-21 -151h211l-12 -156h-220l-133 -984h-195l133 984h-139zM1515 4l223 1634h195l-223 -1634h-195z" />
<glyph />
<glyph horiz-adv-x="682" />
<glyph />
<glyph />
<glyph />
<glyph />
<glyph />
<glyph />
<glyph />
<glyph />
<glyph unicode="&#x9;" />
<glyph unicode="&#xa;" />
<glyph />
<glyph />
<glyph />
<glyph />
<glyph />
<glyph />
<glyph />
<glyph />
<glyph />
<glyph />
<glyph />
<glyph />
<glyph unicode=" "  horiz-adv-x="485" />
<glyph unicode="&#x09;" horiz-adv-x="485" />
<glyph unicode="&#xa0;" horiz-adv-x="485" />
<glyph unicode="!" horiz-adv-x="686" d="M129 95.5q0 29.5 19 61t43 51.5q52 42 101.5 42t74.5 -10q60 -25 60 -97q0 -77 -61 -125q-51 -40 -117 -40q-55 0 -80.5 24.5t-32.5 44t-7 49zM245 488l156 1290h225l-223 -1290h-158z" />
<glyph unicode="&#x22;" horiz-adv-x="1003" d="M224 966l77 721h227l-164 -721h-140zM703 966l77 721h227l-164 -721h-140z" />
<glyph unicode="#" horiz-adv-x="1405" d="M111 365l8 128h226l64 405h-220l8 127h232l53 332h165l-51 -332h311l56 332h165l-54 -332h232l-8 -127h-244l-65 -405h227l-8 -128h-239l-57 -365h-160l51 365h-312l-62 -365h-162l58 365h-214zM511 493h312l64 405h-311z" />
<glyph unicode="$" horiz-adv-x="1204" d="M129 68l55 160q54 -57 216 -87q50 -9 103.5 -9t110.5 13t102 42q99 65 99 186q0 89 -36 142q-61 92 -181 171q-145 96 -201 165q-114 138 -114 297q0 163 106 268q105 104 284 125l30 188h181l-31 -190q150 -16 238 -79l-63 -151q-85 85 -267 85q-112 0 -167 -30.5 t-82 -71.5q-32 -45 -32 -109t11.5 -104.5t40.5 -78.5q47 -65 183 -156q140 -94 195 -158q111 -129 111 -271q0 -186 -117 -299q-112 -109 -306 -132l-35 -214h-180l33 211q-145 15 -246 62q-27 13 -41 25z" />
<glyph unicode="%" horiz-adv-x="1911" d="M201 1055q0 164 117 292q122 133 296 133q277 0 277 -295q0 -173 -111 -302q-54 -62 -130.5 -100t-158 -38t-133.5 23.5t-87 65.5q-70 84 -70 221zM362 1066.5q0 -93.5 38 -146t101 -52.5t103 32t66 80q51 93 51 187t-35 142.5t-96 48.5t-103 -30.5t-69 -75.5 q-56 -92 -56 -185.5zM396 0l947 1530h159l-947 -1530h-159zM1037 380q0 73 31 149.5t86 136.5q122 133 296 133q277 0 277 -295q0 -173 -111 -302q-120 -138 -301 -138q-134 0 -208 89q-70 84 -70 227zM1198 356q0 -64 38 -116.5t101 -52.5t103 32t66 79q51 94 51 188 t-35 142.5t-96 48.5t-103 -30.5t-69.5 -76t-41.5 -98t-14 -116.5z" />
<glyph unicode="&#x26;" horiz-adv-x="1534" d="M94 351.5q0 89.5 27 149t72 108.5q75 81 231 169q-89 193 -89 350q0 181 117 300q117 118 297 118q163 0 265 -104q91 -92 91 -205q0 -172 -149 -302q-81 -71 -169 -120l-143 -78q176 -306 364 -478q101 109 101 283q0 72 -22 140q-71 -7 -100 -21l10 134q35 35 155 35 l287 -1l-9 -145h-152q12 -48 12 -98q0 -268 -153 -425q88 -47 219 -47h24h26l-21 -120q-67 -14 -149 -14q-139 0 -251 72q-146 -69 -344 -69q-369 0 -500 205q-47 74 -47 163.5zM298 372q0 -131 116 -196q94 -53 243 -53q113 0 205 37q-169 162 -294 366l-74 123 q-196 -126 -196 -277zM515 1147q0 -160 61 -287q173 93 230 144q113 103 113 212q0 138 -101 182q-33 15 -81.5 15t-90.5 -23t-71 -62q-60 -81 -60 -181z" />
<glyph unicode="'" horiz-adv-x="524" d="M224 966l77 721h227l-164 -721h-140z" />
<glyph unicode="(" horiz-adv-x="854" d="M203 492.5q0 115.5 17 245.5t63 258t105.5 236.5t126.5 196.5t128 153q116 124 184 159l87 -59q-102 -68 -238 -278q-183 -280 -245 -631q-20 -155 -20 -263t14 -203.5t36.5 -176t51 -145t57.5 -113.5q52 -88 98 -127l-108 -64h-17q-103 75 -198 239q-84 145 -122 350 q-20 107 -20 222.5z" />
<glyph unicode=")" horiz-adv-x="854" d="M-39 -254q102 68 238 278q183 280 245 631q20 155 20 263t-14 203.5t-36.5 176t-51 145t-57.5 113.5q-52 88 -98 127l108 64h17q103 -75 198 -239q84 -145 122 -350q20 -107 20 -222.5t-17 -245.5t-63 -258t-105.5 -236.5t-126.5 -196.5t-128 -153q-116 -124 -184 -159z " />
<glyph unicode="*" horiz-adv-x="1366" d="M231 982l279 120l142 48l-132 47l-255 121l115 166l218 -170l100 -95l-13 142l2 292h192l-59 -292l-43 -142l120 95l257 171l77 -167l-279 -121l-142 -48l132 -47l255 -120l-115 -166l-219 170l-101 98l16 -145l1 -292l-197 1l59 291l42 145l-118 -98l-257 -171z" />
<glyph unicode="+" horiz-adv-x="1366" d="M241 693l18 158h226l138 -11l13 165l27 230h178l-26 -230l-29 -164l115 10h255l-18 -158h-255l-112 7q-2 -42 -5 -82t-5 -82l-28 -241h-179l27 241l26 164l-141 -7h-225z" />
<glyph unicode="," horiz-adv-x="526" d="M-12 -412l3 21q120 59 161 193q13 43 13 83t-6.5 71.5t-18.5 57.5q-27 55 -71 69l7 54l106 128q151 -58 182 -223q9 -45 9 -105.5t-23 -133.5t-64 -133q-85 -120 -225 -171z" />
<glyph unicode="-" horiz-adv-x="1266" d="M218 693l18 158h837l-18 -158h-837z" />
<glyph unicode="." horiz-adv-x="526" d="M89 93q0 28 11 57t32 51q45 49 114 49q90 0 112 -70q7 -20 7 -42q0 -75 -42.5 -117.5t-114.5 -42.5q-79 0 -110 66q-9 21 -9 49z" />
<glyph unicode="/" horiz-adv-x="854" d="M-93 -362l861 1959h174l-863 -1959h-172z" />
<glyph unicode="0" horiz-adv-x="1278" d="M103 455q0 96 23 187.5t64.5 170t99.5 142t128 107.5q149 94 316 94q220 0 331 -134q100 -120 100 -331q0 -288 -178 -495q-84 -97 -198.5 -154.5t-239 -57.5t-207 39t-136 103.5t-78.5 148.5t-25 180zM310 466q0 -234 146 -314q49 -28 115.5 -28t121.5 22.5t98 62 t74.5 93t52.5 114.5q40 119 40 255q0 346 -247 346q-211 0 -315 -192q-86 -158 -86 -359z" />
<glyph unicode="1" horiz-adv-x="930" d="M176 960q149 34 326 144l90 58l84 -20l-160 -1142h-201l122 892q-119 -39 -239 -59z" />
<glyph unicode="2" horiz-adv-x="1249" d="M62 130q451 223 650 449q110 125 110 225.5t-50.5 148.5t-156.5 48q-161 0 -337 -151l-73 114q119 126 315 179q71 19 159.5 19t159 -28t115.5 -74q89 -91 89 -234q0 -303 -523 -599q-86 -49 -174 -93l719 39l-27 -173h-943z" />
<glyph unicode="3" horiz-adv-x="1104" d="M43 -315l16 151q74 -10 150 -10t167.5 21.5t162.5 64.5q157 93 157 247q0 222 -278 226l-142 -34l17 171q330 66 406 228q19 41 19 82t-13 66t-36 42q-47 36 -111 36t-108 -10.5t-84 -27.5q-61 -28 -144 -88l-62 148q107 102 302 148q72 16 144 16t131 -16.5t105 -50.5 q99 -74 99 -214q0 -129 -115 -244q-103 -103 -253 -155q166 0 263 -92q91 -85 91 -214q0 -146 -110 -267q-153 -168 -439 -220q-88 -16 -150 -16q-93 0 -185 12z" />
<glyph unicode="4" horiz-adv-x="1264" d="M20 94l176 272l170 276l172 292l184 322h47l142 -89l-596 -937l-79 -99l455 17l58 466l193 35l-63 -490l251 15l-21 -174h-250l-47 -375h-189l49 375h-616z" />
<glyph unicode="5" horiz-adv-x="1116" d="M45 -329l23 140q40 -7 115.5 -7t180 22t184.5 68q177 100 177 276q0 256 -238 256q-129 0 -262 -53l-73 75l161 698h547l22 16h168l-38 -185h-546l-116 -426q104 29 217 29t185 -27.5t117 -76.5q87 -96 87 -268q0 -158 -105 -288q-155 -190 -465 -248q-101 -18 -162 -18 t-77.5 0.5t-34.5 2.5q-38 4 -67 14z" />
<glyph unicode="6" horiz-adv-x="1263" d="M145 493q0 380 243 681q238 293 614 397l44 -115q-222 -81 -390 -240q-165 -157 -236 -347q130 120 341 120q179 0 271 -119q78 -102 78 -265q0 -237 -142 -420q-155 -201 -410 -201q-198 0 -310 152q-103 141 -103 357zM342 485q0 -162 63.5 -262.5t198.5 -100.5 q198 0 276 256q31 100 31 183.5t-15.5 133t-42.5 81.5q-52 60 -133.5 60t-138.5 -16.5t-99 -39.5q-62 -36 -113 -93q-27 -123 -27 -202z" />
<glyph unicode="7" horiz-adv-x="1096" d="M102 984l34 162h892l32 -43l-603 -1423l-178 66l555 1242z" />
<glyph unicode="8" horiz-adv-x="1270" d="M123 352q0 153 111 284q100 118 256 185q-92 74 -128 131q-65 104 -65 205.5t35.5 177.5t97.5 128q128 106 334 106q165 0 273 -89q111 -92 111 -240q0 -144 -105 -274q-96 -118 -232 -163q273 -189 273 -396q0 -193 -154 -311q-145 -112 -373 -112q-169 0 -294 92 q-140 102 -140 276zM335.5 379q-0.5 -59 17.5 -106t52 -81q72 -72 187 -72q121 0 198 70q78 73 78 179q0 197 -275 379q-172 -85 -236 -254q-21 -56 -21.5 -115zM498 1197q0 -139 126 -251q39 -34 85 -67q168 76 223 234q19 53 19 109t-17 96t-46 67q-59 55 -129 55 t-114.5 -19t-76.5 -52q-70 -71 -70 -172z" />
<glyph unicode="9" horiz-adv-x="1263" d="M139 542q0 237 141 420q156 201 411 201q196 0 309 -152q104 -140 104 -357q0 -380 -244 -682q-153 -191 -378 -308q-112 -58 -235 -92l-44 115q222 80 391 242q163 157 235 349q-120 -130 -311 -130q-193 0 -293 122q-86 105 -86 272zM338 584q0 -85 18 -136t48.5 -84 t72 -48t99.5 -15t110 18t90 43q55 36 104 98q27 123 27 202t-14 142.5t-45 112.5q-68 108 -203 108q-198 0 -277 -257q-30 -99 -30 -184z" />
<glyph unicode=":" horiz-adv-x="526" d="M69 93q0 28 11 57t32 51q45 49 114 49q90 0 112 -70q7 -20 7 -42q0 -75 -42.5 -117.5t-114.5 -42.5q-79 0 -110 66q-9 21 -9 49zM161 902q0 28 11 57t32 51q45 49 114 49q90 0 112 -70q7 -20 7 -42q0 -75 -42.5 -117.5t-114.5 -42.5q-79 0 -110 66q-9 21 -9 49z" />
<glyph unicode=";" horiz-adv-x="526" d="M-12 -412l3 21q120 59 161 193q13 43 13 83t-6.5 71.5t-18.5 57.5q-27 55 -71 69l7 54l106 128q151 -58 182 -223q9 -45 9 -105.5t-23 -133.5t-64 -133q-85 -120 -225 -171zM164 902q0 28 11 57t32 51q45 49 114 49q90 0 112 -70q7 -20 7 -42q0 -75 -42.5 -117.5 t-114.5 -42.5q-79 0 -110 66q-9 21 -9 49z" />
<glyph unicode="&#x3c;" horiz-adv-x="1368" d="M195 686l16 128l1009 510l-24 -194l-776 -389l685 -388l-20 -177z" />
<glyph unicode="=" horiz-adv-x="1063" d="M96 339l18 157h815l-18 -157h-815zM166 848l18 157h815l-18 -157h-815z" />
<glyph unicode="&#x3e;" horiz-adv-x="1368" d="M250 179l24 194l776 389l-685 388l20 177l890 -510l-16 -128z" />
<glyph unicode="?" horiz-adv-x="1020" d="M269 697q0 40 18.5 79t54.5 76q64 66 216 148q232 116 254 221q9 40 9 105.5t-29.5 122.5t-77.5 95q-95 75 -227 75q-118 0 -217 -33l28 140q35 35 142 49q31 4 61 4q255 0 389 -135q112 -115 112 -296q0 -226 -172 -354q-49 -37 -100 -66l-99 -56q-107 -57 -149 -118 q-23 -34 -23 -69t6 -58t13.5 -44.5t14.5 -39.5t10 -30l-127 -50l-17 1q-58 48 -83 159q-7 34 -7 74zM334 93q0 28 11 57t31 51q46 49 115 49q90 0 113 -70q6 -20 6 -42q0 -75 -42.5 -117.5t-114.5 -42.5q-79 0 -109 66q-10 21 -10 49z" />
<glyph unicode="@" horiz-adv-x="1968" d="M121 374q0 352 145 625q138 261 381 403q242 143 538 143q316 0 501 -179q183 -177 183 -477q0 -263 -99 -477q-88 -187 -236 -298q-137 -103 -277 -103q-83 0 -89 130q-1 39 -1 79t3 74l9 77q-110 -259 -261 -337q-52 -27 -105 -27t-103 25q-109 54 -155 210 q-22 75 -22 129t0.5 95t15.5 118t44.5 150t73 138t103.5 114q128 106 303 106q84 0 141.5 -19.5t78.5 -34.5l165 30q-45 -171 -73.5 -382t-34.5 -268q-7 -78 -7 -134l1 -71q0 -28 14 -28q83 0 168 103q128 156 175 409q15 81 15 162q0 305 -170 442q-140 113 -399 113 t-467 -152q-191 -138 -301 -376q-106 -230 -106 -488q0 -358 195 -540q169 -159 445 -159q143 0 307 49q45 13 71 25l33 -97q-109 -81 -300 -108q-62 -8 -126 -8q-345 0 -556 213q-221 222 -221 601zM712 447q0 -287 130 -287q64 0 158 136q136 197 214 458q23 78 31 138 q-34 53 -133 70q-26 5 -65 5t-87.5 -22.5t-87.5 -61t-69 -90t-50 -109.5q-41 -119 -41 -237z" />
<glyph unicode="A" horiz-adv-x="1265" d="M-76 0l746 1530h219l286 -1530h-198l-66 396h-594l-182 -396h-211zM386 547h499l-115 689l-13 116z" />
<glyph unicode="B" horiz-adv-x="1240" d="M110 0l193 1530h101q70 1 140.5 8.5t174.5 7.5t190 -28t137 -74q96 -85 96 -233q0 -230 -178 -349q-57 -37 -126 -60q126 -17 208 -100q88 -89 88 -220.5t-48.5 -225.5t-139.5 -154q-172 -116 -489 -116l-255 14h-92zM326 146q48 -19 174 -19q423 0 423 329 q0 267 -320 267q-97 0 -205 -7zM417 864q30 -2 66 -2l104 1q156 0 254 84q103 88 103 242q0 166 -162 205q-56 14 -101.5 14t-65 -0.5t-43.5 -1.5q-54 -2 -88 -8z" />
<glyph unicode="C" horiz-adv-x="1141" d="M106 623q0 155 22 269.5t67 216.5t110 183t144 138q164 116 367 116q125 0 218 -31l107 -36l-70 -164q-12 6 -31.5 17t-50.5 22q-76 26 -176.5 26t-175.5 -34.5t-131.5 -92t-94.5 -132.5q-103 -203 -103 -459q0 -233 85 -372q89 -148 252 -148q116 0 232 42q81 29 127 66 l30 -166q-136 -100 -425 -100q-338 0 -454 338q-49 146 -49 301z" />
<glyph unicode="D" horiz-adv-x="1377" d="M110 0l193 1530h108l310 16q292 0 439 -173q138 -164 138 -472q0 -392 -208 -651q-140 -175 -347 -238q-95 -28 -201 -28q-27 0 -44 1l-62 4q-15 1 -29.5 2t-39.5 3t-53 3l-55 2q-27 1 -48 1h-101zM328 163q90 -29 211 -29q283 0 432 256q122 210 122 503q0 282 -104 398 q-98 109 -327 109q-109 0 -180 -19z" />
<glyph unicode="E" horiz-adv-x="1138" d="M110 0l193 1530h767l-7 -157l-581 8l-67 -527l438 7l-12 -166l-443 15l-72 -561l700 16l-14 -165h-902z" />
<glyph unicode="F" horiz-adv-x="1057" d="M110 0l193 1530h790l-14 -157l-597 8l-66 -527l470 8l-12 -168l-476 16l-90 -710h-198z" />
<glyph unicode="G" horiz-adv-x="1340" d="M108 621q0 152 23.5 269t70 219t114 183t149.5 138q171 116 379 116q193 0 361 -56l38 -11l-62 -179q-119 86 -340 86q-184 0 -314 -124q-167 -158 -208 -454q-10 -77 -10 -115.5t0.5 -72.5t8.5 -95.5t24 -118t41.5 -105.5t62.5 -85q79 -77 197 -77q158 0 324 73l46 358 h-232l20 159h427l-82 -635q-29 -3 -63 -12l-157 -46q-175 -52 -291.5 -52t-187.5 26t-126 71.5t-94.5 107.5t-65.5 133q-53 147 -53 299z" />
<glyph unicode="H" horiz-adv-x="1410" d="M110 0l193 1530h198l-87 -686h653l87 686h198l-193 -1530h-198l87 694h-653l-87 -694h-198z" />
<glyph unicode="I" horiz-adv-x="580" d="M127 0l193 1530h198l-193 -1530h-198z" />
<glyph unicode="J" horiz-adv-x="582" d="M-170 -227q116 37 199 127q80 86 107 210q16 73 35 188t35.5 239t31.5 254l55 508q13 122 26 231h198q-51 -457 -72 -632l-40 -312q-59 -441 -86.5 -527t-75 -155t-106.5 -114q-100 -75 -272 -105z" />
<glyph unicode="K" horiz-adv-x="1245" d="M110 0l193 1530h198l-98 -772l672 772h232l-615 -682q79 -128 150 -256l242 -428q51 -86 103 -164h-238q-7 10 -25 42q-338 629 -359 665l-196 -218l-61 -489h-198z" />
<glyph unicode="L" horiz-adv-x="978" d="M110 0l193 1530h198l-172 -1365l570 5l-22 -170h-767z" />
<glyph unicode="M" horiz-adv-x="1791" d="M48 0l380 1530h254l161 -1060l15 -169l50 169l427 1060h287l-36 -1530h-201l50 1020l24 383l-573 -1406l-140 -15l-161 1061l-36 359l-63 -369l-238 -1033h-200z" />
<glyph unicode="N" horiz-adv-x="1400" d="M110 0l193 1530h206l440 -1062l63 -207l19 249l123 1020h188l-193 -1530h-193l-455 1075l-53 232l-27 -298l-126 -1009h-185z" />
<glyph unicode="O" horiz-adv-x="1378" d="M107 641q0 241 87 447q89 211 251 333q165 125 368 125q233 0 365 -184q126 -176 126 -463q0 -383 -191 -642q-200 -273 -523 -273q-114 0 -205 49.5t-152 134.5q-126 178 -126 473zM313 671q0 -280 79.5 -407.5t237.5 -127.5q209 0 343 224q125 207 125 499 q0 410 -179 501q-59 29 -134 29t-137.5 -28.5t-115 -79t-93.5 -120.5q-126 -212 -126 -490z" />
<glyph unicode="P" horiz-adv-x="1180" d="M110 0l193 1530h116l295 16q451 0 457 -389v-18q0 -278 -168 -447q-170 -172 -441 -172q-132 0 -187 10l-67 -530h-198zM395 690q61 -14 168 -14q407 4 407 470q0 252 -288 252q-86 0 -201 -21z" />
<glyph unicode="Q" horiz-adv-x="1378" d="M107 641q0 241 87 447q89 211 251 333q165 125 368 125q233 0 365 -184q126 -176 126 -465q0 -340 -156 -589q-77 -122 -186.5 -204t-243.5 -108q8 -154 199 -168q53 -4 137.5 -4t161.5 28v-154q-51 -37 -221 -54q-46 -4 -103 -4t-121 21q-136 44 -182 172q-17 44 -17 84 t4 68q-222 8 -349 191q-120 176 -120 465zM313 671q0 -280 79.5 -407.5t237.5 -127.5q209 0 343 224q125 207 125 499q0 410 -179 501q-59 29 -134 29t-137.5 -28.5t-115 -79t-93.5 -120.5q-126 -212 -126 -490z" />
<glyph unicode="R" horiz-adv-x="1270" d="M108 0l193 1530h102l309 16q229 0 348 -92q122 -95 122 -277q0 -276 -201 -423q-67 -49 -154 -76q81 -85 139 -260q126 -300 152.5 -349.5t41.5 -69.5l-227 2q-46 67 -129 305q-102 335 -212 345q-38 0 -75 1l-129 1l-82 -653h-198zM408 812q19 -1 50 -2h64q33 -1 63 -1 h46q171 0 259 109q77 95 77 252q0 224 -277 224q-129 0 -209 -16z" />
<glyph unicode="S" horiz-adv-x="1044" d="M29 75l55 160q54 -57 216 -87q50 -9 103.5 -9t110.5 12t102 39q99 62 99 183q0 89 -36 142q-61 92 -181 171q-145 96 -201 165q-114 138 -114 297q0 181 129 290q127 108 336 108q228 0 343 -85l-63 -151q-85 85 -267 85q-112 0 -167 -30.5t-82 -70.5q-32 -46 -32 -110 t11.5 -104.5t40.5 -79.5q46 -64 183 -156q140 -94 195 -158q111 -129 111 -276q0 -204 -148 -318q-141 -108 -379 -108q-176 0 -313 61q-36 16 -52 30z" />
<glyph unicode="T" horiz-adv-x="1122" d="M129 1373l22 157h1044l-21 -157l-420 11l-175 -1384h-198l175 1384z" />
<glyph unicode="U" horiz-adv-x="1363" d="M145 442q0 32 4 69l127 1019h198l-114 -902q-12 -112 -12 -173q0 -310 281 -310q165 0 257 115q97 121 130 384l112 886h193l-114 -903q-66 -506 -376 -609q-102 -34 -222 -34t-204.5 30.5t-141.5 87.5q-118 120 -118 340z" />
<glyph unicode="V" horiz-adv-x="1169" d="M128 1530h198l163 -1101l25 -222l86 222l476 1101h210l-697 -1530h-209z" />
<glyph unicode="W" horiz-adv-x="1773" d="M126 1530h198l140 -1094l32 -216l61 215l343 878l-24 217h190l116 -1094l15 -216l74 215l417 1095h200l-629 -1540h-202l-96 860l-14 172l-55 -172l-330 -860h-204z" />
<glyph unicode="X" horiz-adv-x="1157" d="M-59 0l558 793l-318 737h218l229 -598l389 598h224l-537 -777l347 -753h-228l-248 620l-394 -620h-240z" />
<glyph unicode="Y" horiz-adv-x="1083" d="M83 1530h212l248 -692l32 -76l38 76l412 692h212l-593 -940l-76 -590h-188l76 590z" />
<glyph unicode="Z" horiz-adv-x="1157" d="M15 89l779 1128l134 159l-690 -14l22 168h898l25 -86l-780 -1141l-124 -145l752 12l-28 -170h-961z" />
<glyph unicode="[" horiz-adv-x="854" d="M180 -54q0 187 34 427t54 367l40 254l39 251q19 124 31 217t27 141.5t41 77.5q48 54 165 54q68 0 260 -47l-13 -87h-275l-223 -1656q66 0 137.5 -1t137.5 -1q-6 -44 -10 -86l-65 -19q-106 -28 -180.5 -28t-107.5 7t-54 23q-38 31 -38 106z" />
<glyph unicode="\" horiz-adv-x="854" d="M26 1597h173l577 -1959h-174z" />
<glyph unicode="]" horiz-adv-x="854" d="M45 -132l13 87h275l223 1656q-66 0 -137.5 1t-137.5 1q6 44 10 86l65 19q106 28 180.5 28t107.5 -7t54 -23q38 -31 38 -106q0 -187 -34 -427t-54 -367l-40 -254l-39 -251q-19 -124 -31 -217t-27 -141.5t-41 -77.5q-48 -54 -165 -54q-68 0 -260 47z" />
<glyph unicode="^" horiz-adv-x="1364" d="M176 510l511 1020h197l257 -1020h-171l-202 828l-417 -828h-175z" />
<glyph unicode="_" horiz-adv-x="1335" d="M-111 -338l20 151h1378l-20 -151h-1378z" />
<glyph unicode="`" horiz-adv-x="541" d="M49 1576l153 137l288 -402l-85 -70q-96 41 -253 206q-72 75 -103 129z" />
<glyph unicode="a" horiz-adv-x="1145" d="M81 416q0 271 149 488q108 155 285 219q91 33 204 33q90 0 226 -34l113 34l-156 -1156h-172l15 190q-152 -206 -365 -206q-69 0 -127 31t-97 87q-75 111 -75 314zM283 440q0 -304 143 -304q173 0 331 247l86 605q-75 25 -151 25t-133.5 -26t-102.5 -70t-77.5 -101.5 t-54.5 -121.5q-41 -124 -41 -254z" />
<glyph unicode="b" horiz-adv-x="1163" d="M83 -16l219 1654h185l-55 -491l-36 -193q103 136 252 184q53 18 122 18t127.5 -31t96.5 -87q76 -111 76 -314q0 -270 -155 -488q-110 -155 -289 -219q-91 -33 -198.5 -33t-231.5 33zM300 151q72 -24 148.5 -24t135 26t104.5 70t80 101.5t56 121.5q44 128 44 254 q0 304 -143 304q-142 0 -283 -164q-37 -43 -62 -81z" />
<glyph unicode="c" horiz-adv-x="905" d="M85 434q0 264 145 478q103 152 258 212q81 32 142.5 32t91 -2t58.5 -6q68 -11 105 -30l-51 -167q-71 58 -186 58q-64 0 -128.5 -41t-117.5 -115q-118 -167 -118 -399q0 -254 119 -304q39 -17 97 -17q112 0 255 139l65 -106q-84 -114 -235 -164q-57 -18 -136 -18 t-149.5 30.5t-117.5 88.5q-97 118 -97 331z" />
<glyph unicode="d" horiz-adv-x="1161" d="M79 416q0 270 155 488q110 155 288 219q92 33 181.5 33t166.5 -15l68 497h195l-221 -1638h-174l16 194q-106 -143 -252 -192q-54 -18 -123.5 -18t-127.5 31t-97 87q-75 111 -75 314zM281 440q0 -304 143 -304q96 0 201 88q79 66 143 165l82 599q-75 25 -150 25t-134 -26 t-105 -70t-80 -101.5t-56 -121.5q-44 -128 -44 -254z" />
<glyph unicode="e" horiz-adv-x="1035" d="M85 419q0 153 46.5 291t124.5 236q168 210 427 210q207 0 264 -152q17 -45 17 -113t-34 -135t-89.5 -119t-127 -90t-146.5 -64q-138 -48 -276 -58v-34.5t5.5 -68t28.5 -86.5q51 -98 176 -98q163 0 332 159l55 -111q-50 -72 -153 -130q-126 -72 -244.5 -72t-193.5 38 q-212 107 -212 397zM296 564q148 7 297 91q175 98 175 234q0 119 -128 119q-140 0 -241 -156q-85 -132 -103 -288z" />
<glyph unicode="f" horiz-adv-x="695" d="M142 984l28 156h132l14 94q27 205 132 324q110 123 290 123q93 0 148 -26l-50 -159q-41 32 -114 32h-28t-56.5 -19.5t-57.5 -52.5q-49 -64 -62 -165l-21 -151h211l-12 -156h-220l-133 -984h-195l133 984h-139z" />
<glyph unicode="g" horiz-adv-x="1157" d="M79 416q0 270 155 488q110 155 288 219q92 33 205 33q90 0 226 -34l117 34l-170 -1249q-22 -146 -110 -247q-143 -164 -400 -164q-113 0 -183.5 14.5t-85.5 20.5l50 165q109 -52 257 -52q179 0 242 150q21 49 33 110l49 287q-104 -139 -252 -189q-53 -18 -122 -18 t-127 31t-97 87q-75 111 -75 314zM281 440q0 -304 143 -304q95 0 196 83q77 63 143 162l86 607q-75 25 -149.5 25t-133.5 -26t-105 -70t-80 -101.5t-56 -121.5q-44 -128 -44 -254z" />
<glyph unicode="h" horiz-adv-x="1198" d="M88 0l208 1638h195l-52 -479l-40 -250q143 170 325 227q61 20 123 20q111 0 166.5 -67t55.5 -223q0 -69 -24 -239q-58 -399 -71 -481.5t-22 -145.5h-196q17 130 38 263l37 251q39 257 39 318.5t-7.5 85t-20.5 36.5q-22 21 -70.5 21t-99 -21t-102.5 -56 q-110 -77 -189 -180l-98 -718h-195z" />
<glyph unicode="i" horiz-adv-x="584" d="M124 0l155 1140h195l-155 -1140h-195zM301 1507q0 59 46 105q43 43 85 43t65 -9q71 -29 71 -101q0 -63 -47 -109q-46 -44 -87.5 -44t-62.5 10q-70 30 -70 105z" />
<glyph unicode="j" horiz-adv-x="579" d="M-230 -475l52 111q19 -14 69.5 -14t94.5 36t72 98q44 96 73 313l146 1071h195l-154 -1136q-32 -237 -144 -378q-110 -140 -270 -140q-78 0 -134 39zM292 1507q0 59 46 105q43 43 85 43t65 -9q71 -29 71 -101q0 -63 -47 -109q-46 -44 -87.5 -44t-62.5 10q-70 30 -70 105z " />
<glyph unicode="k" horiz-adv-x="1041" d="M88 0l208 1638h195l-208 -1638h-195zM402 634h1l-1 1q234 130 382 349q45 66 78 156h186q-22 -228 -282 -442q-71 -58 -146 -97l364 -597h-227z" />
<glyph unicode="l" horiz-adv-x="584" d="M125 4l223 1634h195l-223 -1634h-195z" />
<glyph unicode="m" horiz-adv-x="1769" d="M83 4l155 1136h185l-20 -214q133 160 295 212q55 18 131 18t130 -49t68 -161q130 147 287 194q53 16 106 16q111 0 166.5 -67t55.5 -223q0 -69 -28 -269l-88 -593h-196q17 130 37 261l37 249q39 257 39 318.5t-7.5 85t-21.5 36.5q-21 21 -65 21t-83.5 -15.5t-81.5 -42.5 q-85 -55 -158 -141q-5 -51 -14 -118l-96 -654h-196q17 130 37 261l37 249q39 257 39 318.5t-7.5 85t-21.5 36.5q-21 21 -68.5 21t-93.5 -20.5t-94 -55.5q-101 -75 -173 -177l-97 -718h-195z" />
<glyph unicode="n" horiz-adv-x="1194" d="M83 4l155 1136h185l-21 -224v-1q143 166 320 222q61 19 122 19q111 0 166.5 -67t55.5 -223q0 -69 -28 -269l-88 -593h-196q17 130 37 261l37 249q39 257 39 318.5t-7.5 85t-21.5 36.5q-21 21 -69.5 21t-100 -21.5t-103.5 -57.5q-113 -78 -191 -182l-96 -710h-195z" />
<glyph unicode="o" horiz-adv-x="1135" d="M88 463q0 266 158 474q104 137 255 191q75 28 164.5 28t160 -31t117.5 -90q97 -122 97 -349q0 -277 -153 -482q-103 -138 -250 -192q-75 -28 -164.5 -28t-161.5 31q-223 96 -223 448zM291 460q0 -329 217 -329q107 0 187 91q106 120 133 345q7 59 7 90t-0.5 72t-12.5 99 t-37 98q-49 83 -156 83t-190 -91q-112 -122 -140 -343q-8 -59 -8 -115z" />
<glyph unicode="p" horiz-adv-x="1169" d="M15 -513l220 1653h175l-17 -187q104 138 252 185q54 18 123 18t127.5 -31t96.5 -87q76 -111 76 -314q0 -270 -155 -488q-110 -155 -289 -219q-91 -33 -180 -33t-166 15l-68 -512h-195zM298 151q72 -24 148 -24t135 26t105 70t80 101.5t56 121.5q44 128 44 254 q0 304 -143 304q-142 0 -283 -164q-37 -43 -62 -81z" />
<glyph unicode="q" horiz-adv-x="1159" d="M79 416q0 270 155 488q110 155 288 219q92 33 198.5 33t220.5 -31l123 37l-220 -1668h-195l68 510l35 187q-104 -139 -252 -189q-53 -18 -122 -18t-127 31t-97 87q-75 111 -75 314zM281 440q0 -304 143 -304q95 0 196 83q77 63 143 162l83 608q-72 24 -146.5 24 t-133.5 -26t-105 -70t-80 -101.5t-56 -121.5q-44 -128 -44 -254z" />
<glyph unicode="r" horiz-adv-x="786" d="M82 0l156 1140h185l-19 -203q87 137 228 196q56 23 96 23q74 0 87 -13l-44 -208q-26 14 -78 14t-92.5 -18.5t-82.5 -53.5q-92 -78 -149 -204l-92 -673h-195z" />
<glyph unicode="s" horiz-adv-x="872" d="M44 43l37 171q125 -83 267 -83q130 0 174 73q16 27 16 66t-11.5 67t-32.5 53.5t-51 51.5l-67 58q-105 90 -139 139q-67 95 -67 188t31 151.5t83 97.5q105 80 266 80q122 0 183 -16.5t73 -22.5l-38 -183q-27 41 -129 66q-39 9 -83 9t-79 -8t-61 -25q-58 -37 -58 -108 q0 -97 93 -177l138 -116q143 -125 143 -280q0 -150 -112 -233q-104 -78 -282 -78q-154 0 -252 37q-29 11 -42 22z" />
<glyph unicode="t" horiz-adv-x="741" d="M133 984l42 156h105l62 280h165l-36 -280h262l-23 -156h-261l-76 -590l-13 -86q-4 -30 -4 -60q0 -109 56 -109q55 0 169 69q28 17 44 29l25 -108q-68 -83 -224 -131q-48 -14 -90 -14q-183 0 -183 179v11q0 31 12 122l84 688h-116z" />
<glyph unicode="u" horiz-adv-x="1173" d="M102 270q0 66 15 181q55 409 70 507l26 182h196q-11 -84 -23 -170l-47 -328q-38 -268 -38 -334t8.5 -91.5t25.5 -40.5q30 -25 87 -25t104.5 21.5t94.5 57.5q98 75 170 182l97 728h195l-151 -1140h-182l21 218q-126 -166 -290 -220q-57 -18 -117 -18q-132 0 -197 67 t-65 223z" />
<glyph unicode="v" horiz-adv-x="1007" d="M102 1140h218l67 -781l10 -205l144 188l74 122q72 120 103.5 211.5t45 147.5t20.5 97t13 84q12 84 12 120q0 10 -1 16h186q2 -33 2 -67t-6.5 -109.5t-44 -189t-91.5 -218.5q-100 -194 -248 -372l-161 -188l-175 -12l-58 375z" />
<glyph unicode="w" horiz-adv-x="1662" d="M108 1140h218l71 -781l10 -205l134 188q192 308 244 575l-31 223h214l73 -781l12 -205l131 182l74 122q103 177 141 396q4 25 11.5 66.5t13.5 84.5q12 83 12 119q0 10 -1 16h191q2 -30 2 -40.5t-0.5 -20.5t-2 -24t-6.5 -81t-40.5 -184.5t-86.5 -227.5 q-100 -212 -243 -384l-151 -182l-175 -12l-58 375l-33 232q-113 -273 -226 -407l-151 -188l-175 -12l-58 375z" />
<glyph unicode="x" horiz-adv-x="953" d="M-54 4l426 586l-254 550h234l143 -411l274 411h212l-422 -572l275 -564h-229l-168 429l-282 -429h-209z" />
<glyph unicode="y" horiz-adv-x="1050" d="M-195 -474l56 162q60 -30 113.5 -30t101 14t99.5 50q107 76 235 262h-121l-65 375l-109 781h216l84 -781l40 -303l103 183q202 323 244 767q4 51 7 134h192q2 -31 2 -64.5t-5 -99t-26 -163t-54 -195.5q-141 -427 -417 -772l-95 -114q-196 -233 -459 -233q-72 0 -142 27z " />
<glyph unicode="z" horiz-adv-x="965" d="M-28 59l579 756l160 169h-539l22 156h723l48 -52l-597 -782l-144 -150h598l-15 -156h-777z" />
<glyph unicode="{" horiz-adv-x="1024" d="M160 714l18 124q245 60 257 128l77 517q24 151 70 201q48 51 165 51q68 0 260 -47q-13 -82 -13 -87h-276l-96 -631q-12 -84 -132 -142q-24 -12 -51 -24l-60 -28q106 -54 135 -84q57 -59 48 -117l-95 -630h275q-2 -6 -3.5 -20.5t-4 -31t-4.5 -36.5q-122 -36 -178 -41.5 t-100 -5.5t-76 7t-52 23q-37 31 -37 113q0 5 4 35l41 289q19 135 45 302q0 56 -128 107q-44 17 -89 28z" />
<glyph unicode="|" horiz-adv-x="854" d="M354 -186v1966h173v-1966h-173z" />
<glyph unicode="}" horiz-adv-x="1024" d="M66 -142q13 82 13 87h276l96 631q12 84 132 142q24 12 51 24l60 28q-106 54 -135 84q-57 59 -48 117l95 630h-275q2 6 3.5 20.5t4 31t4.5 36.5q122 36 178 41.5t100 5.5t76 -7t52 -23q37 -31 37 -113q0 -5 -4 -35l-41 -289q-19 -135 -45 -302q0 -56 128 -107 q44 -17 89 -28l-18 -124q-245 -60 -257 -128l-77 -517q-24 -151 -70 -201q-48 -51 -165 -51q-68 0 -260 47z" />
<glyph unicode="~" horiz-adv-x="1137" d="M132 848q27 80 112 141q95 69 200 69q84 0 186 -86l51 -42q57 -44 105 -44q125 0 202 117l71 -73q-22 -83 -111 -146q-90 -64 -201 -64q-86 0 -185 86q-65 56 -96.5 71t-60.5 15q-125 0 -202 -117z" />
<glyph />
<glyph unicode="&#xa1;" horiz-adv-x="686" d="M94 -434l223 1290h158l-156 -1290h-225zM293 1201q0 77 61 125q51 40 117 40q55 0 80.5 -24.5t32.5 -44t7 -49t-19 -61t-43 -51.5q-52 -42 -101.5 -42t-74.5 10q-60 25 -60 97z" />
<glyph unicode="&#xa2;" horiz-adv-x="1057" d="M137 434q0 229 117 432q129 225 347 276l54 216h150l-52 -203q120 -5 184 -37l-51 -167q-71 58 -186 58q-64 0 -128.5 -41t-117.5 -115q-118 -167 -118 -399q0 -254 119 -304q39 -17 97 -17q112 0 255 139l65 -106q-78 -104 -213 -156q-51 -19 -111 -24l-37 -201h-150 l39 213q-130 33 -196.5 145.5t-66.5 290.5z" />
<glyph unicode="&#xa3;" horiz-adv-x="1368" d="M-10 49q0 71 88 131q78 53 149 53q85 68 111 260l42 251h-177l18 131h181l16 91q33 241 162 400q144 179 392 179q136 0 206 -40q28 -16 53 -42l-93 -140q-20 45 -118 71q-35 10 -79 10q-166 0 -264 -226q-36 -84 -57 -210l-17 -93h311l-17 -131h-317l-8 -48 q-41 -255 -84 -352q-24 -55 -72 -127q42 -13 86 -29.5t91 -31.5q110 -35 196 -35t139.5 14t85.5 40q60 49 60 146q0 69 -55 130q-17 19 -36 30l157 119q140 -112 140 -274q0 -265 -280 -329q-74 -17 -166 -17t-162.5 11.5t-135 29.5t-123.5 39l-116 42q-63 -82 -166 -112 q-32 -10 -55 -10t-38 4q-48 10 -48 65z" />
<glyph unicode="&#xa4;" horiz-adv-x="1540" d="M229 1135l113 114l194 -196q114 75 250.5 75t251.5 -81l190 189l113 -114l-191 -191q72 -110 72 -243t-77 -246l194 -194l-114 -113l-194 193q-114 -76 -249 -76t-242 72l-194 -194l-114 113l192 192q-82 114 -82 253.5t80 253.5zM490 690q0 -126 86 -216q85 -89 206 -89 t206 89q86 90 86 216t-86 216q-85 89 -206 89t-206 -89q-86 -90 -86 -216z" />
<glyph unicode="&#xa5;" horiz-adv-x="1483" d="M230 376l17 130h410l27 225h-407l17 131h348l-318 668h193l254 -555l41 -111l66 119l368 547h194l-498 -668h357l-17 -131h-422l-27 -225h419l-17 -130h-417l-44 -376h-177l44 376h-411z" />
<glyph unicode="&#xa6;" horiz-adv-x="854" d="M354 -186v894h173v-894h-173zM354 886v894h173v-894h-173z" />
<glyph unicode="&#xa7;" horiz-adv-x="1194" d="M131 -65l55 150q46 -69 216 -105q50 -11 97 -11q348 0 348 191q0 112 -257 218q-262 107 -350 282q-35 70 -35 156t45.5 143t131.5 100q-137 126 -137 293q0 139 131 228q137 93 374 93q226 0 343 -105l-63 -151q-64 80 -228 100q-41 5 -85 5t-94 -12.5t-87 -33.5 q-84 -48 -84 -131q0 -90 70 -152q38 -33 94 -63l131 -68q150 -72 216.5 -137.5t96.5 -124.5q33 -63 33 -136q0 -175 -132 -276q92 -83 92 -181.5t-40.5 -171t-115.5 -121.5q-151 -100 -401 -100q-114 0 -195 30q-132 48 -170 91zM412 824q0 -91 70 -155q52 -46 153.5 -96 t131 -63.5t58.5 -28.5q62 56 62 150q0 76 -37 121q-69 82 -220 152q-78 35 -130 68q-88 -51 -88 -148z" />
<glyph unicode="&#xa8;" horiz-adv-x="809" d="M59 1503q0 59 46 105q43 43 85 43t65 -9q71 -29 71 -101q0 -63 -47 -109q-46 -44 -87.5 -44t-62.5 10q-70 30 -70 105zM493 1562q26 54 78 78q26 11 53.5 11t50.5 -9q71 -29 71 -101q0 -63 -47 -109q-46 -44 -87 -44q-67 0 -101 36q-57 58 -18 138z" />
<glyph unicode="&#xa9;" horiz-adv-x="2129" d="M194 962q0 122 30.5 234.5t87 210t135.5 177.5t175 137q202 119 442 119q239 0 442 -119q197 -116 311 -315q118 -205 118 -443q0 -239 -118 -445q-176 -308 -520 -404q-112 -32 -233 -32q-238 0 -442 120q-195 115 -310 316q-118 204 -118 444zM336 962.5 q0 -103.5 25 -199t71 -179.5t111 -152.5t146 -117.5q170 -103 375 -103t375 103q250 151 328 450q25 95 25 198.5t-25 199.5t-71 179.5t-111 152t-146 117.5q-170 103 -375 103t-375 -103q-251 -152 -328 -449q-25 -96 -25 -199.5zM621 956q0 219 127 352q136 142 369 142 q134 0 238 -56l-32 -164q-98 63 -225 63q-134 0 -210 -93q-73 -89 -73 -229q0 -159 77 -249q74 -86 206 -86t237 61l45 -124q-113 -94 -319 -94q-200 0 -323 145q-117 138 -117 332z" />
<glyph unicode="&#xaa;" horiz-adv-x="854" d="M94 1037q0 66 17 130.5t49 124t77 111.5t101 91q121 83 260 83q85 0 175 -29l100 26l-146 -831h-167l24 127q-110 -127 -251 -127q-177 0 -224 173q-15 55 -15 121zM268 1081q0 -71 6.5 -107t22.5 -61q33 -52 106 -52q75 0 188 113l78 463q-42 38 -93 38t-92.5 -18.5 t-75.5 -49.5t-60 -73t-44 -88q-36 -94 -36 -165z" />
<glyph unicode="&#xab;" horiz-adv-x="1878" d="M245 530l22 160l692 396l38 -115l-510 -356l414 -351l-70 -112zM921 530l22 160l692 396l38 -115l-510 -356l414 -351l-70 -112z" />
<glyph unicode="&#xac;" horiz-adv-x="1370" d="M211 701l17 152h960l-62 -531h-177l45 379h-783z" />
<glyph unicode="&#xad;" horiz-adv-x="1706" />
<glyph unicode="&#xae;" horiz-adv-x="2129" d="M194 962q0 122 30.5 234.5t87 210t135.5 177.5t175 137q202 119 442 119q239 0 442 -119q197 -116 311 -315q118 -205 118 -443q0 -239 -118 -445q-176 -308 -520 -404q-112 -32 -233 -32q-238 0 -442 120q-195 115 -310 316q-118 204 -118 444zM336 962.5 q0 -103.5 25 -199t71 -179.5t111 -152.5t146 -117.5q170 -103 375 -103t375 103q250 151 328 450q25 95 25 198.5t-25 199.5t-71 179.5t-111 152t-146 117.5q-170 103 -375 103t-375 -103q-251 -152 -328 -449q-25 -96 -25 -199.5zM738 479v962h77l258 7q180 0 275 -82 q84 -72 84 -192q0 -242 -193 -300q61 -47 120 -170q29 -62 44 -85l92 -140l-204 1q-48 61 -87.5 154t-59.5 125q-49 75 -105 90q-20 -1 -53 -1h-71v-369h-177zM915 980q44 -4 81 -4h49q101 0 152 39t51 136q0 85 -44 123q-25 21 -65.5 31.5t-109.5 10.5t-114 -11v-325z" />
<glyph unicode="&#xaf;" horiz-adv-x="614" d="M41 1425l4 149h510l-5 -149h-509z" />
<glyph unicode="&#xb0;" horiz-adv-x="899" d="M143 1242q0 103 26.5 162.5t71.5 103.5q96 92 240 92q137 0 232 -94q90 -91 90 -223q0 -142 -100 -236q-97 -92 -240 -92q-70 0 -129 25q-121 53 -169 173q-22 57 -22 89zM283 1272q0 -80 52 -136q56 -60 135 -60q41 0 76 15t61 42q56 58 56 150q0 80 -53 137 q-55 59 -134 59q-84 0 -137 -57q-56 -59 -56 -150z" />
<glyph unicode="&#xb1;" horiz-adv-x="1366" d="M172 30l17 150h869l-17 -150h-869zM241 693l18 158h225l139 -11q3 42 7 83t7 82l26 230h178l-26 -230l-29 -164l115 10h255l-18 -158h-255l-112 7q-2 -42 -5.5 -82t-5.5 -82l-27 -241h-179l27 241l26 164l-141 -7h-225z" />
<glyph unicode="&#xb2;" horiz-adv-x="1163" d="M170 733l106 59q257 146 415 306q133 134 133 235q0 161 -185.5 161t-319.5 -138l-70 94q90 122 267 176q66 21 146.5 21t147.5 -23t113 -60q93 -76 93 -176q0 -194 -163 -347q-96 -90 -207 -160l-188 -118l542 33l-7 -159h-778z" />
<glyph unicode="&#xb3;" horiz-adv-x="1071" d="M124 606l17 108q106 -51 241 -51q201 0 288 111q33 44 33 93t-11 76t-34 48q-47 43 -130 45l-161 -35l21 145q210 40 284 146q29 41 29 98q0 112 -142.5 112t-283.5 -94l-46 112q178 124 389 124q141 0 226 -64q79 -58 79 -148q0 -106 -80 -192q-69 -73 -183 -116 q140 0 204 -84q46 -62 46 -150q0 -116 -82 -204q-106 -113 -306 -143q-60 -9 -102.5 -9t-78.5 4.5t-75 13.5q-89 21 -142 54z" />
<glyph unicode="&#xb4;" horiz-adv-x="559" d="M49 1312l307 401l152 -137q-30 -57 -157 -176q-140 -130 -219 -159z" />
<glyph unicode="&#xb5;" horiz-adv-x="1364" d="M121 -372l181 1223q11 78 -0.5 97t-21.5 19q-41 0 -94 -53l-64 115q42 68 154 109q46 16 89 16t69 -12q78 -33 78 -145q0 -26 -10 -103l-75 -548q-2 -19 -2 -43.5t9 -54.5t32 -52q40 -40 97.5 -40t96.5 17.5t75 43.5q65 47 117 114l108 809h194l-116 -902q-5 -39 6 -61 t27 -22q47 0 119 72l62 -107q-59 -78 -157 -120q-44 -18 -100 -18t-99.5 33.5t-50.5 106.5l-57 -52q-100 -90 -261 -90q-66 0 -129 45q-19 14 -28 31l-64 -428h-185z" />
<glyph unicode="&#xb6;" horiz-adv-x="1364" d="M160 1130.5q0 92.5 29 173.5t96 141q141 126 430 126q85 0 166 -7q156 -12 208 -12h259l-11 -103l-167 -33q-158 -1244 -179 -1416h-190l175 1414h-194l-177 -1414h-192l102 774q-249 6 -328 198q-27 66 -27 158.5z" />
<glyph unicode="&#xb7;" horiz-adv-x="686" d="M208 739q0 28 11 57t32 51q45 49 114 49q90 0 112 -70q7 -20 7 -42q0 -75 -42.5 -117.5t-114.5 -42.5q-79 0 -110 66q-9 21 -9 49z" />
<glyph unicode="&#xb8;" horiz-adv-x="479" d="M4 -436l25 151q26 -14 64 -14t66.5 7t50.5 27q49 45 49 146l1 79q0 50 -5 70l77 4l53 -4q45 -62 45 -171t-22.5 -166t-61.5 -92q-71 -65 -194 -65q-65 0 -102.5 11t-45.5 17z" />
<glyph unicode="&#xb9;" horiz-adv-x="1020" d="M278 1466q144 37 316 122q71 35 100 57l69 -21l-135 -988h-185l102 759l-261 -52z" />
<glyph unicode="&#xba;" horiz-adv-x="854" d="M98 1105q0 220 144 360q127 124 290 124q147 0 240 -107q91 -104 91 -268q0 -223 -138 -360q-62 -61 -138.5 -91t-151.5 -30t-135 27t-104 76q-98 106 -98 269zM282 1123q0 -184 89 -245q28 -20 45.5 -20h20.5q132 0 194 114q46 85 46 224q0 194 -85 254q-28 21 -83 20.5 t-101.5 -36t-74.5 -88.5q-51 -95 -51 -223z" />
<glyph unicode="&#xbb;" horiz-adv-x="1878" d="M218 267l510 356l-414 351l70 112l586 -378l-22 -160l-692 -396zM894 267l510 356l-414 351l70 112l586 -378l-22 -160l-692 -396z" />
<glyph unicode="&#xbc;" horiz-adv-x="2560" d="M308 1466q144 37 316 122q71 35 100 57l69 -21l-135 -988h-185l102 759l-261 -52zM706 0l681 1530h159l-681 -1530h-159zM1275 262l606 851h48l133 -103l-491 -609l-79 -92l333 14l36 253l202 23l-36 -268l262 11l-20 -175h-264l-46 -343h-203l48 343h-492z" />
<glyph unicode="&#xbd;" horiz-adv-x="2560" d="M308 1466q144 37 316 122q71 35 100 57l69 -21l-135 -988h-185l102 759l-261 -52zM705 0l681 1530h159l-681 -1530h-159zM1404 19l106 59q257 146 415 306q133 134 133 235q0 161 -185.5 161t-319.5 -138l-70 94q90 122 267 176q66 21 146.5 21t147.5 -23t113 -60 q93 -76 93 -176q0 -194 -163 -347q-96 -90 -207 -160l-188 -118l542 33l-7 -159h-778z" />
<glyph unicode="&#xbe;" horiz-adv-x="2560" d="M112 606l17 108q106 -51 241 -51q201 0 288 111q33 44 33 93t-11 76t-34 48q-47 43 -130 45l-161 -35l21 145q210 40 284 146q29 41 29 98q0 112 -142.5 112t-283.5 -94l-46 112q178 124 389 124q141 0 226 -64q79 -58 79 -148q0 -106 -80 -192q-69 -73 -183 -116 q140 0 204 -84q46 -62 46 -150q0 -116 -82 -204q-106 -113 -306 -143q-60 -9 -102.5 -9t-78.5 4.5t-75 13.5q-89 21 -142 54zM705 0l681 1530h159l-681 -1530h-159zM1275 262l606 851h48l133 -103l-491 -609l-79 -92l333 14l36 253l202 23l-36 -268l262 11l-20 -175h-264 l-46 -343h-203l48 343h-492z" />
<glyph unicode="&#xbf;" horiz-adv-x="1028" d="M87 70q0 84 23.5 150t61.5 115t87 85.5t99 65.5l100 56q107 57 148 118q24 34 24 68.5t-6 58t-13.5 45t-14.5 39.5t-10 30l127 50l17 -1q58 -49 82 -160q8 -34 8 -73.5t-18.5 -78.5t-54.5 -76q-64 -66 -216 -148q-232 -116 -254 -221q-9 -40 -9 -105.5t29.5 -122.5 t76.5 -95q96 -75 228 -75q118 0 217 33l-28 -140q-35 -35 -142 -49q-31 -4 -61 -4q-255 0 -388 135q-113 115 -113 300zM479 1289q0 62 42.5 104.5t114.5 42.5q79 0 110 -66q9 -21 9 -49t-11 -57t-31.5 -51t-49.5 -35.5t-63 -13.5t-56.5 9t-37.5 25q-27 29 -27 91z" />
<glyph unicode="&#xc0;" horiz-adv-x="1265" d="M-76 0l746 1530h219l286 -1530h-198l-66 396h-594l-182 -396h-211zM386 547h499l-115 689l-13 116zM491 1872l124 128l276 -342l-73 -65q-74 27 -149 88q-135 113 -178 191z" />
<glyph unicode="&#xc1;" horiz-adv-x="1265" d="M-76 0l746 1530h219l286 -1530h-198l-66 396h-594l-182 -396h-211zM386 547h499l-115 689l-13 116zM749 1658l276 342l124 -128q-43 -78 -150 -168q-103 -84 -177 -111z" />
<glyph unicode="&#xc2;" horiz-adv-x="1265" d="M-76 0l746 1530h219l286 -1530h-198l-66 396h-594l-182 -396h-211zM386 547h499l-115 689l-13 116zM461 1656l327 344h178l190 -344l-94 -68l-211 234l-313 -243z" />
<glyph unicode="&#xc3;" horiz-adv-x="1265" d="M-76 0l746 1530h219l286 -1530h-198l-66 396h-594l-182 -396h-211zM386 547h499l-115 689l-13 116zM430 1801q33 66 115 117q87 52 143.5 52t85.5 -10.5t52 -26t42 -33.5l37 -34q42 -36 74.5 -36t53 10.5t37 26.5t30.5 35l28 38l85 -89q-26 -76 -104 -130 q-76 -53 -164 -53q-70 0 -108 25.5t-57 43.5t-37 33q-103 86 -198 -22l-28 -31z" />
<glyph unicode="&#xc4;" horiz-adv-x="1265" d="M-76 0l746 1530h219l286 -1530h-198l-66 396h-594l-182 -396h-211zM386 547h499l-115 689l-13 116zM477 1800.5q0 11.5 0.5 27.5t14 42t33.5 46q45 43 84.5 43t62.5 -9q70 -29 70 -102q0 -61 -48 -108q-46 -44 -87 -44q-93 0 -122 74q-8 19 -8 30.5zM894 1804.5 q0 39.5 14 65.5t35 46q45 43 85 43t63 -9q70 -29 70 -102q0 -62 -47 -108q-46 -44 -87 -44q-64 0 -98.5 34.5t-34.5 74z" />
<glyph unicode="&#xc5;" horiz-adv-x="1265" d="M-76 0l725 1488q-155 56 -155 237q0 130 113 207q100 68 234 68q127 0 201 -70q75 -71 75 -195q0 -151 -132 -221q-40 -22 -87 -34l277 -1480h-198l-66 396h-594l-182 -396h-211zM386 547h499l-115 689l-13 116zM633 1729.5q0 -40.5 11.5 -67t32 -46.5t48.5 -31.5 t63.5 -11.5t70 7.5t60.5 27.5q56 42 56 144q0 96 -89 130q-27 10 -61 10q-128 0 -175 -88q-17 -34 -17 -74.5z" />
<glyph unicode="&#xc6;" horiz-adv-x="1763" d="M-128 0l769 1408l-291 22l14 100h1331l-7 -157l-581 8l-67 -527l438 7l-12 -166l-443 15l-72 -561l700 16l-14 -165h-902l52 416h-483l-219 -416h-213zM384 567h422l104 820l-90 6z" />
<glyph unicode="&#xc7;" horiz-adv-x="1141" d="M106 626.5q0 151.5 22 266t67 216.5t110 183t144 138q164 116 367 116q125 0 218 -31l107 -36l-70 -164q-12 6 -31.5 17t-50.5 22q-76 26 -176.5 26t-175.5 -34.5t-131.5 -92t-94.5 -132.5q-103 -203 -103 -459q0 -233 85 -372q89 -148 252 -148q116 0 232 42 q81 29 127 66l30 -166q-105 -81 -326 -96q23 -61 23 -148.5t-22.5 -144.5t-61.5 -92q-71 -65 -194 -65q-65 0 -102.5 11t-45.5 17l25 151q26 -14 64 -14t66.5 7t50.5 27q49 45 49 146q0 22 0.5 50t-0.5 53q-302 25 -409 350q-45 139 -45 290.5z" />
<glyph unicode="&#xc8;" horiz-adv-x="1138" d="M110 0l193 1530h767l-7 -157l-581 8l-67 -527l438 7l-12 -166l-443 15l-72 -561l700 16l-14 -165h-902zM399 1872l124 128l276 -342l-73 -65q-74 27 -149 88q-135 113 -178 191z" />
<glyph unicode="&#xc9;" horiz-adv-x="1138" d="M110 0l193 1530h767l-7 -157l-581 8l-67 -527l438 7l-12 -166l-443 15l-72 -561l700 16l-14 -165h-902zM657 1658l276 342l124 -128q-43 -78 -150 -168q-103 -84 -177 -111z" />
<glyph unicode="&#xca;" horiz-adv-x="1138" d="M110 0l193 1530h767l-7 -157l-581 8l-67 -527l438 7l-12 -166l-443 15l-72 -561l700 16l-14 -165h-902zM369 1656l327 344h178l190 -344l-94 -68l-211 234l-313 -243z" />
<glyph unicode="&#xcb;" horiz-adv-x="1138" d="M110 0l193 1530h767l-7 -157l-581 8l-67 -527l438 7l-12 -166l-443 15l-72 -561l700 16l-14 -165h-902zM385 1800.5q0 11.5 0.5 27.5t14 42t33.5 46q45 43 84.5 43t62.5 -9q70 -29 70 -102q0 -61 -48 -108q-46 -44 -87 -44q-93 0 -122 74q-8 19 -8 30.5zM802 1804.5 q0 39.5 14 65.5t35 46q45 43 85 43t63 -9q70 -29 70 -102q0 -62 -47 -108q-46 -44 -87 -44q-64 0 -98.5 34.5t-34.5 74z" />
<glyph unicode="&#xcc;" horiz-adv-x="580" d="M127 0l193 1530h198l-193 -1530h-198zM130 1872l124 128l276 -342l-73 -65q-74 27 -149 88q-135 113 -178 191z" />
<glyph unicode="&#xcd;" horiz-adv-x="580" d="M127 0l193 1530h198l-193 -1530h-198zM388 1658l276 342l124 -128q-43 -78 -150 -168q-103 -84 -177 -111z" />
<glyph unicode="&#xce;" horiz-adv-x="580" d="M100 1656l327 344h178l190 -344l-94 -68l-211 234l-313 -243zM127 0l193 1530h198l-193 -1530h-198z" />
<glyph unicode="&#xcf;" horiz-adv-x="580" d="M116 1800.5q0 11.5 0.5 27.5t14 42t33.5 46q45 43 84.5 43t62.5 -9q70 -29 70 -102q0 -61 -48 -108q-46 -44 -87 -44q-93 0 -122 74q-8 19 -8 30.5zM127 0l193 1530h198l-193 -1530h-198zM533 1804.5q0 39.5 14 65.5t35 46q45 43 85 43t63 -9q70 -29 70 -102 q0 -62 -47 -108q-46 -44 -87 -44q-64 0 -98.5 34.5t-34.5 74z" />
<glyph unicode="&#xd0;" horiz-adv-x="1377" d="M42 722l16 130h159l86 678h108l310 16q292 0 439 -173q138 -164 138 -472q0 -392 -208 -651q-140 -175 -347 -238q-95 -28 -201 -28q-27 0 -44 1l-62 4q-15 1 -28 2l-36 3q-93 6 -139 6h-123l91 722h-159zM328 163q90 -29 211 -29q283 0 432 256q122 210 122 503 q0 282 -104 398q-98 109 -327 109q-109 0 -180 -19l-67 -529h382l-16 -130h-382z" />
<glyph unicode="&#xd1;" horiz-adv-x="1400" d="M110 0l193 1530h206l440 -1062l63 -207l19 249l123 1020h188l-193 -1530h-193l-455 1075l-53 232l-27 -298l-126 -1009h-185zM491 1801q33 66 115 117q87 52 143.5 52t85.5 -10.5t52 -26t42 -33.5l37 -34q42 -36 74.5 -36t53 10.5t37 26.5t30.5 35l28 38l85 -89 q-26 -76 -104 -130q-76 -53 -164 -53q-70 0 -108 25.5t-57 43.5t-37 33q-103 86 -198 -22l-28 -31z" />
<glyph unicode="&#xd2;" horiz-adv-x="1378" d="M107 641q0 241 87 447q89 211 251 333q165 125 368 125q233 0 365 -184q126 -176 126 -463q0 -383 -191 -642q-200 -273 -523 -273q-114 0 -205 49.5t-152 134.5q-126 178 -126 473zM313 671q0 -280 79.5 -407.5t237.5 -127.5q209 0 343 224q125 207 125 499 q0 410 -179 501q-59 29 -134 29t-137.5 -28.5t-115 -79t-93.5 -120.5q-126 -212 -126 -490zM524 1872l124 128l276 -342l-73 -65q-74 27 -149 88q-135 113 -178 191z" />
<glyph unicode="&#xd3;" horiz-adv-x="1378" d="M107 641q0 241 87 447q89 211 251 333q165 125 368 125q233 0 365 -184q126 -176 126 -463q0 -383 -191 -642q-200 -273 -523 -273q-114 0 -205 49.5t-152 134.5q-126 178 -126 473zM313 671q0 -280 79.5 -407.5t237.5 -127.5q209 0 343 224q125 207 125 499 q0 410 -179 501q-59 29 -134 29t-137.5 -28.5t-115 -79t-93.5 -120.5q-126 -212 -126 -490zM782 1658l276 342l124 -128q-43 -78 -150 -168q-103 -84 -177 -111z" />
<glyph unicode="&#xd4;" horiz-adv-x="1378" d="M107 641q0 241 87 447q89 211 251 333q165 125 368 125q233 0 365 -184q126 -176 126 -463q0 -383 -191 -642q-200 -273 -523 -273q-114 0 -205 49.5t-152 134.5q-126 178 -126 473zM313 671q0 -280 79.5 -407.5t237.5 -127.5q209 0 343 224q125 207 125 499 q0 410 -179 501q-59 29 -134 29t-137.5 -28.5t-115 -79t-93.5 -120.5q-126 -212 -126 -490zM494 1656l327 344h178l190 -344l-94 -68l-211 234l-313 -243z" />
<glyph unicode="&#xd5;" horiz-adv-x="1378" d="M107 641q0 241 87 447q89 211 251 333q165 125 368 125q233 0 365 -184q126 -176 126 -463q0 -383 -191 -642q-200 -273 -523 -273q-114 0 -205 49.5t-152 134.5q-126 178 -126 473zM313 671q0 -280 79.5 -407.5t237.5 -127.5q209 0 343 224q125 207 125 499 q0 410 -179 501q-59 29 -134 29t-137.5 -28.5t-115 -79t-93.5 -120.5q-126 -212 -126 -490zM463 1801q33 66 115 117q87 52 143.5 52t85.5 -10.5t52 -26t42 -33.5l37 -34q42 -36 74.5 -36t53 10.5t37 26.5t30.5 35l28 38l85 -89q-26 -76 -104 -130q-76 -53 -164 -53 q-70 0 -108 25.5t-57 43.5t-37 33q-103 86 -198 -22l-28 -31z" />
<glyph unicode="&#xd6;" horiz-adv-x="1378" d="M107 641q0 241 87 447q89 211 251 333q165 125 368 125q233 0 365 -184q126 -176 126 -463q0 -383 -191 -642q-200 -273 -523 -273q-114 0 -205 49.5t-152 134.5q-126 178 -126 473zM313 671q0 -280 79.5 -407.5t237.5 -127.5q209 0 343 224q125 207 125 499 q0 410 -179 501q-59 29 -134 29t-137.5 -28.5t-115 -79t-93.5 -120.5q-126 -212 -126 -490zM510 1800.5q0 11.5 0.5 27.5t14 42t33.5 46q45 43 84.5 43t62.5 -9q70 -29 70 -102q0 -61 -48 -108q-46 -44 -87 -44q-93 0 -122 74q-8 19 -8 30.5zM927 1804.5q0 39.5 14 65.5 t35 46q45 43 85 43t63 -9q70 -29 70 -102q0 -62 -47 -108q-46 -44 -87 -44q-64 0 -98.5 34.5t-34.5 74z" />
<glyph unicode="&#xd7;" horiz-adv-x="1370" d="M231 438l383 327l-301 327l132 123l281 -350l369 350l102 -123l-383 -327l301 -327l-132 -123l-281 350l-369 -350z" />
<glyph unicode="&#xd8;" horiz-adv-x="1378" d="M57 -83l172 258q-121 175 -121 466q0 241 87 447q89 211 251 333q165 125 368 125q157 0 270 -86l140 210l89 -49l-155 -233q147 -178 147 -489q0 -383 -191 -642q-128 -174 -315 -240q-94 -33 -200 -33q-182 0 -302 112l-151 -228zM314 707q0 -236 42 -361l622 971 q-72 72 -196 72q-137 0 -248 -107q-162 -155 -208 -447q-12 -81 -12 -128zM409 241q75 -105 222 -105q209 0 343 224q125 207 125 499q0 237 -59 366z" />
<glyph unicode="&#xd9;" horiz-adv-x="1363" d="M145 442q0 32 4 69l127 1019h198l-114 -902q-12 -112 -12 -173q0 -310 281 -310q165 0 257 115q97 121 130 384l112 886h193l-114 -903q-66 -506 -376 -609q-102 -34 -222 -34t-204.5 30.5t-141.5 87.5q-118 120 -118 340zM511 1872l124 128l276 -342l-73 -65 q-74 27 -149 88q-135 113 -178 191z" />
<glyph unicode="&#xda;" horiz-adv-x="1363" d="M145 442q0 32 4 69l127 1019h198l-114 -902q-12 -112 -12 -173q0 -310 281 -310q165 0 257 115q97 121 130 384l112 886h193l-114 -903q-66 -506 -376 -609q-102 -34 -222 -34t-204.5 30.5t-141.5 87.5q-118 120 -118 340zM769 1658l276 342l124 -128q-43 -78 -150 -168 q-103 -84 -177 -111z" />
<glyph unicode="&#xdb;" horiz-adv-x="1363" d="M145 442q0 32 4 69l127 1019h198l-114 -902q-12 -112 -12 -173q0 -310 281 -310q165 0 257 115q97 121 130 384l112 886h193l-114 -903q-66 -506 -376 -609q-102 -34 -222 -34t-204.5 30.5t-141.5 87.5q-118 120 -118 340zM481 1656l327 344h178l190 -344l-94 -68 l-211 234l-313 -243z" />
<glyph unicode="&#xdc;" horiz-adv-x="1363" d="M145 442q0 32 4 69l127 1019h198l-114 -902q-12 -112 -12 -173q0 -310 281 -310q165 0 257 115q97 121 130 384l112 886h193l-114 -903q-66 -506 -376 -609q-102 -34 -222 -34t-204.5 30.5t-141.5 87.5q-118 120 -118 340zM497 1800.5q0 11.5 0.5 27.5t14 42t33.5 46 q45 43 84.5 43t62.5 -9q70 -29 70 -102q0 -61 -48 -108q-46 -44 -87 -44q-93 0 -122 74q-8 19 -8 30.5zM914 1804.5q0 39.5 14 65.5t35 46q45 43 85 43t63 -9q70 -29 70 -102q0 -62 -47 -108q-46 -44 -87 -44q-64 0 -98.5 34.5t-34.5 74z" />
<glyph unicode="&#xdd;" horiz-adv-x="1083" d="M83 1530h212l248 -692l32 -76l38 76l412 692h212l-593 -940l-76 -590h-188l76 590zM639 1658l276 342l124 -128q-43 -78 -150 -168q-103 -84 -177 -111z" />
<glyph unicode="&#xde;" horiz-adv-x="1210" d="M110 0l193 1530h198l-32 -247q179 14 213 14q451 0 457 -390v-18q0 -278 -168 -447q-170 -172 -441 -172q-132 0 -187 10l-35 -280h-198zM363 440q61 -14 168 -14q407 4 407 470q0 252 -288 252q-84 0 -200 -21z" />
<glyph unicode="&#xdf;" horiz-adv-x="1180" d="M77 4l117 927q64 507 354 621q95 37 197 37t160 -18.5t100 -54.5q90 -79 90 -219q0 -162 -125 -287l-61 -64q-65 -70 -65 -127q0 -33 28.5 -72t49 -64.5t40.5 -54t42 -63.5t40 -75q41 -91 41 -170t-26.5 -139t-78.5 -104q-108 -93 -301 -93q-100 0 -167.5 19.5 t-83.5 27.5l26 187q57 -52 143 -74q32 -8 78.5 -8t87.5 8.5t67 27.5q49 37 49 130q0 94 -89 225q-134 158 -134 270q0 67 22 106q30 56 70.5 98.5t65 74t42.5 64.5q37 72 37 127.5t-10.5 84t-31.5 50.5q-45 46 -117 46t-124 -23.5t-96 -87.5q-91 -135 -134 -466l-109 -867 h-194z" />
<glyph unicode="&#xe0;" horiz-adv-x="1145" d="M81 416q0 271 149 488q108 155 285 219q91 33 204 33q90 0 226 -34l113 34l-156 -1156h-172l15 190q-152 -206 -365 -206q-69 0 -127 31t-97 87q-75 111 -75 314zM283 440q0 -304 143 -304q173 0 331 247l86 605q-75 25 -151 25t-133.5 -26t-102.5 -70t-77.5 -101.5 t-54.5 -121.5q-41 -124 -41 -254zM319 1576l153 137l288 -402l-85 -70q-96 41 -253 206q-72 75 -103 129z" />
<glyph unicode="&#xe1;" horiz-adv-x="1145" d="M81 416q0 271 149 488q108 155 285 219q91 33 204 33q90 0 226 -34l113 34l-156 -1156h-172l15 190q-152 -206 -365 -206q-69 0 -127 31t-97 87q-75 111 -75 314zM283 440q0 -304 143 -304q173 0 331 247l86 605q-75 25 -151 25t-133.5 -26t-102.5 -70t-77.5 -101.5 t-54.5 -121.5q-41 -124 -41 -254zM597 1312l307 401l152 -137q-30 -57 -157 -176q-140 -130 -219 -159z" />
<glyph unicode="&#xe2;" horiz-adv-x="1145" d="M81 416q0 271 149 488q108 155 285 219q91 33 204 33q90 0 226 -34l113 34l-156 -1156h-172l15 190q-152 -206 -365 -206q-69 0 -127 31t-97 87q-75 111 -75 314zM283 440q0 -304 143 -304q173 0 331 247l86 605q-75 25 -151 25t-133.5 -26t-102.5 -70t-77.5 -101.5 t-54.5 -121.5q-41 -124 -41 -254zM342 1276l327 374h178l190 -374l-94 -68l-211 264l-313 -273z" />
<glyph unicode="&#xe3;" horiz-adv-x="1145" d="M81 416q0 271 149 488q108 155 285 219q91 33 204 33q90 0 226 -34l113 34l-156 -1156h-172l15 190q-152 -206 -365 -206q-69 0 -127 31t-97 87q-75 111 -75 314zM283 440q0 -304 143 -304q173 0 331 247l86 605q-75 25 -151 25t-133.5 -26t-102.5 -70t-77.5 -101.5 t-54.5 -121.5q-41 -124 -41 -254zM323 1481q33 66 115 117q87 52 143.5 52t85.5 -10.5t52 -26t42 -33.5l37 -34q42 -36 74.5 -36t53 10.5t37 26.5t30.5 35l28 38l85 -89q-26 -76 -104 -130q-76 -53 -164 -53q-70 0 -108 25.5t-57 43.5t-37 33q-103 86 -198 -22l-28 -31z" />
<glyph unicode="&#xe4;" horiz-adv-x="1145" d="M81 416q0 271 149 488q108 155 285 219q91 33 204 33q90 0 226 -34l113 34l-156 -1156h-172l15 190q-152 -206 -365 -206q-69 0 -127 31t-97 87q-75 111 -75 314zM283 440q0 -304 143 -304q173 0 331 247l86 605q-75 25 -151 25t-133.5 -26t-102.5 -70t-77.5 -101.5 t-54.5 -121.5q-41 -124 -41 -254zM386 1503q0 59 46 105q43 43 85 43t65 -9q71 -29 71 -101q0 -63 -47 -109q-46 -44 -87.5 -44t-62.5 10q-70 30 -70 105zM820 1562q26 54 78 78q26 11 53.5 11t50.5 -9q71 -29 71 -101q0 -63 -47 -109q-46 -44 -87 -44q-67 0 -101 36 q-57 58 -18 138z" />
<glyph unicode="&#xe5;" horiz-adv-x="1145" d="M81 416q0 271 149 488q108 155 285 219q91 33 204 33q90 0 226 -34l113 34l-156 -1156h-172l15 190q-152 -206 -365 -206q-69 0 -127 31t-97 87q-75 111 -75 314zM283 440q0 -304 143 -304q173 0 331 247l86 605q-75 25 -151 25t-133.5 -26t-102.5 -70t-77.5 -101.5 t-54.5 -121.5q-41 -124 -41 -254zM442 1511q0 130 113 207q100 68 234 68q127 0 201 -70q75 -71 75 -195q0 -130 -102 -202q-92 -66 -231.5 -66t-214.5 67t-75 191zM581 1515.5q0 -40.5 11.5 -67t32 -46.5t48.5 -31.5t63.5 -11.5t70 7.5t60.5 27.5q56 42 56 144 q0 96 -88 130q-28 10 -62 10q-128 0 -174 -88q-18 -34 -18 -74.5z" />
<glyph unicode="&#xe6;" horiz-adv-x="1633" d="M81 416q0 271 149 488q108 155 285 219q91 33 204 33q117 0 178 -24t109 -53q125 77 276 77q207 0 264 -152q17 -45 17 -113t-34 -135t-89.5 -119t-127 -90t-146.5 -64q-138 -48 -276 -58v-34.5t5.5 -68t28.5 -86.5q51 -98 176 -98q163 0 332 159l55 -111 q-50 -72 -153 -130q-126 -72 -257 -72q-220 0 -323 164q-31 50 -48 107q-141 -271 -335 -271q-290 0 -290 432zM283 440q0 -304 133 -304t268 276v22q8 324 186 529q-96 50 -175 50t-136.5 -26t-102.5 -70t-77.5 -101.5t-54.5 -121.5q-41 -124 -41 -254zM895 564 q148 7 297 91q175 98 175 234q0 119 -128 119q-140 0 -241 -156q-85 -132 -103 -288z" />
<glyph unicode="&#xe7;" horiz-adv-x="905" d="M85 434q0 264 145 478q103 152 258 212q81 32 142.5 32t91 -2t58.5 -6q68 -11 105 -30l-51 -167q-71 58 -186 58q-64 0 -128.5 -41t-117.5 -115q-118 -167 -118 -399q0 -254 119 -304q39 -17 97 -17q112 0 255 139l65 -106q-73 -94 -189 -146q-45 -20 -97 -29 q24 -63 24 -152t-22.5 -146t-61.5 -92q-71 -65 -194 -65q-65 0 -102.5 11t-45.5 17l25 151q26 -14 64 -14t66.5 7t50.5 27q49 45 49 146q0 23 0.5 53t-0.5 56q-149 23 -225.5 138.5t-76.5 305.5z" />
<glyph unicode="&#xe8;" horiz-adv-x="1035" d="M85 419q0 153 46.5 291t124.5 236q168 210 427 210q207 0 264 -152q17 -45 17 -113t-34 -135t-89.5 -119t-127 -90t-146.5 -64q-138 -48 -276 -58v-34.5t5.5 -68t28.5 -86.5q51 -98 176 -98q163 0 332 159l55 -111q-50 -72 -153 -130q-126 -72 -244.5 -72t-193.5 38 q-212 107 -212 397zM257 1576l153 137l288 -402l-85 -70q-96 41 -253 206q-72 75 -103 129zM296 564q148 7 297 91q175 98 175 234q0 119 -128 119q-140 0 -241 -156q-85 -132 -103 -288z" />
<glyph unicode="&#xe9;" horiz-adv-x="1035" d="M85 419q0 153 46.5 291t124.5 236q168 210 427 210q207 0 264 -152q17 -45 17 -113t-34 -135t-89.5 -119t-127 -90t-146.5 -64q-138 -48 -276 -58v-34.5t5.5 -68t28.5 -86.5q51 -98 176 -98q163 0 332 159l55 -111q-50 -72 -153 -130q-126 -72 -244.5 -72t-193.5 38 q-212 107 -212 397zM296 564q148 7 297 91q175 98 175 234q0 119 -128 119q-140 0 -241 -156q-85 -132 -103 -288zM535 1312l307 401l152 -137q-30 -57 -157 -176q-140 -130 -219 -159z" />
<glyph unicode="&#xea;" horiz-adv-x="1035" d="M85 419q0 153 46.5 291t124.5 236q168 210 427 210q207 0 264 -152q17 -45 17 -113t-34 -135t-89.5 -119t-127 -90t-146.5 -64q-138 -48 -276 -58v-34.5t5.5 -68t28.5 -86.5q51 -98 176 -98q163 0 332 159l55 -111q-50 -72 -153 -130q-126 -72 -244.5 -72t-193.5 38 q-212 107 -212 397zM280 1276l327 374h178l190 -374l-94 -68l-211 264l-313 -273zM296 564q148 7 297 91q175 98 175 234q0 119 -128 119q-140 0 -241 -156q-85 -132 -103 -288z" />
<glyph unicode="&#xeb;" horiz-adv-x="1035" d="M85 419q0 153 46.5 291t124.5 236q168 210 427 210q207 0 264 -152q17 -45 17 -113t-34 -135t-89.5 -119t-127 -90t-146.5 -64q-138 -48 -276 -58v-34.5t5.5 -68t28.5 -86.5q51 -98 176 -98q163 0 332 159l55 -111q-50 -72 -153 -130q-126 -72 -244.5 -72t-193.5 38 q-212 107 -212 397zM296 564q148 7 297 91q175 98 175 234q0 119 -128 119q-140 0 -241 -156q-85 -132 -103 -288zM324 1503q0 59 46 105q43 43 85 43t65 -9q71 -29 71 -101q0 -63 -47 -109q-46 -44 -87.5 -44t-62.5 10q-70 30 -70 105zM758 1562q26 54 78 78q26 11 53.5 11 t50.5 -9q71 -29 71 -101q0 -63 -47 -109q-46 -44 -87 -44q-67 0 -101 36q-57 58 -18 138z" />
<glyph unicode="&#xec;" horiz-adv-x="584" d="M25 1576l153 137l288 -402l-85 -70q-96 41 -253 206q-72 75 -103 129zM124 0l155 1140h195l-155 -1140h-195z" />
<glyph unicode="&#xed;" horiz-adv-x="584" d="M124 0l155 1140h195l-155 -1140h-195zM302 1312l307 401l152 -137q-30 -57 -157 -176q-140 -130 -219 -159z" />
<glyph unicode="&#xee;" horiz-adv-x="584" d="M48 1276l327 374h178l190 -374l-94 -68l-211 264l-313 -273zM124 0l155 1140h195l-155 -1140h-195z" />
<glyph unicode="&#xef;" horiz-adv-x="584" d="M91 1503q0 59 46 105q43 43 85 43t65 -9q71 -29 71 -101q0 -63 -47 -109q-46 -44 -87.5 -44t-62.5 10q-70 30 -70 105zM124 0l155 1140h195l-155 -1140h-195zM525 1562q26 54 78 78q26 11 53.5 11t50.5 -9q71 -29 71 -101q0 -63 -47 -109q-46 -44 -87 -44q-67 0 -101 36 q-57 58 -18 138z" />
<glyph unicode="&#xf0;" horiz-adv-x="1182" d="M89 446q0 326 174 524q163 186 385 186q126 0 208 -61q29 -22 48 -53q-22 135 -59 205q-60 112 -155 199l-150 -168l-106 88l157 163q-145 108 -241 133l43 119q133 -38 293 -143l153 178l98 -89l-148 -169q155 -148 227 -316.5t72 -372.5q0 -377 -152 -623 q-162 -262 -441 -262q-192 0 -307 150q-99 132 -99 312zM300 455q0 -81 14.5 -137.5t43.5 -99.5q62 -96 166 -96q123 0 220 141q92 135 123 335l7 43q4 24 8 49l6 46q4 32 4 44.5t-5.5 34.5t-18.5 48.5t-33 53.5t-48 49q-63 48 -149 48t-150.5 -52.5t-106.5 -136 t-61.5 -186.5t-19.5 -184z" />
<glyph unicode="&#xf1;" horiz-adv-x="1194" d="M83 4l155 1136h185l-21 -224v-1q143 166 320 222q61 19 122 19q111 0 166.5 -67t55.5 -223q0 -69 -28 -269l-88 -593h-196q17 130 37 261l37 249q39 257 39 318.5t-7.5 85t-21.5 36.5q-21 21 -69.5 21t-100 -21.5t-103.5 -57.5q-113 -78 -191 -182l-96 -710h-195z M275 1481q33 66 115 117q87 52 143.5 52t85.5 -10.5t52 -26t42 -33.5l37 -34q42 -36 74.5 -36t53 10.5t37 26.5t30.5 35l28 38l85 -89q-26 -76 -104 -130q-76 -53 -164 -53q-70 0 -108 25.5t-57 43.5t-37 33q-103 86 -198 -22l-28 -31z" />
<glyph unicode="&#xf2;" horiz-adv-x="1135" d="M88 463q0 266 158 474q104 137 255 191q75 28 164.5 28t160 -31t117.5 -90q97 -122 97 -349q0 -277 -153 -482q-103 -138 -250 -192q-75 -28 -164.5 -28t-161.5 31q-223 96 -223 448zM261 1576l153 137l288 -402l-85 -70q-96 41 -253 206q-72 75 -103 129zM291 460 q0 -329 217 -329q107 0 187 91q106 120 133 345q7 59 7 90t-0.5 72t-12.5 99t-37 98q-49 83 -156 83t-190 -91q-112 -122 -140 -343q-8 -59 -8 -115z" />
<glyph unicode="&#xf3;" horiz-adv-x="1135" d="M88 463q0 266 158 474q104 137 255 191q75 28 164.5 28t160 -31t117.5 -90q97 -122 97 -349q0 -277 -153 -482q-103 -138 -250 -192q-75 -28 -164.5 -28t-161.5 31q-223 96 -223 448zM291 460q0 -329 217 -329q107 0 187 91q106 120 133 345q7 59 7 90t-0.5 72t-12.5 99 t-37 98q-49 83 -156 83t-190 -91q-112 -122 -140 -343q-8 -59 -8 -115zM539 1312l307 401l152 -137q-30 -57 -157 -176q-140 -130 -219 -159z" />
<glyph unicode="&#xf4;" horiz-adv-x="1135" d="M88 463q0 266 158 474q104 137 255 191q75 28 164.5 28t160 -31t117.5 -90q97 -122 97 -349q0 -277 -153 -482q-103 -138 -250 -192q-75 -28 -164.5 -28t-161.5 31q-223 96 -223 448zM284 1276l327 374h178l190 -374l-94 -68l-211 264l-313 -273zM291 460 q0 -329 217 -329q107 0 187 91q106 120 133 345q7 59 7 90t-0.5 72t-12.5 99t-37 98q-49 83 -156 83t-190 -91q-112 -122 -140 -343q-8 -59 -8 -115z" />
<glyph unicode="&#xf5;" horiz-adv-x="1135" d="M88 463q0 266 158 474q104 137 255 191q75 28 164.5 28t160 -31t117.5 -90q97 -122 97 -349q0 -277 -153 -482q-103 -138 -250 -192q-75 -28 -164.5 -28t-161.5 31q-223 96 -223 448zM265 1481q33 66 115 117q87 52 143.5 52t85.5 -10.5t52 -26t42 -33.5l37 -34 q42 -36 74.5 -36t53 10.5t37 26.5t30.5 35l28 38l85 -89q-26 -76 -104 -130q-76 -53 -164 -53q-70 0 -108 25.5t-57 43.5t-37 33q-103 86 -198 -22l-28 -31zM291 460q0 -329 217 -329q107 0 187 91q106 120 133 345q7 59 7 90t-0.5 72t-12.5 99t-37 98q-49 83 -156 83 t-190 -91q-112 -122 -140 -343q-8 -59 -8 -115z" />
<glyph unicode="&#xf6;" horiz-adv-x="1135" d="M88 463q0 266 158 474q104 137 255 191q75 28 164.5 28t160 -31t117.5 -90q97 -122 97 -349q0 -277 -153 -482q-103 -138 -250 -192q-75 -28 -164.5 -28t-161.5 31q-223 96 -223 448zM291 460q0 -329 217 -329q107 0 187 91q106 120 133 345q7 59 7 90t-0.5 72t-12.5 99 t-37 98q-49 83 -156 83t-190 -91q-112 -122 -140 -343q-8 -59 -8 -115zM328 1503q0 59 46 105q43 43 85 43t65 -9q71 -29 71 -101q0 -63 -47 -109q-46 -44 -87.5 -44t-62.5 10q-70 30 -70 105zM762 1562q26 54 78 78q26 11 53.5 11t50.5 -9q71 -29 71 -101q0 -63 -47 -109 q-46 -44 -87 -44q-67 0 -101 36q-57 58 -18 138z" />
<glyph unicode="&#xf7;" horiz-adv-x="1338" d="M241 696l18 157h869l-18 -157h-869zM493 371q0 29 19.5 60t43.5 51q54 42 101 42t71 -10q62 -26 62 -98q0 -73 -62 -124q-50 -40 -94.5 -40t-68 8.5t-40.5 24.5t-24.5 36.5t-7.5 49.5zM588.5 1137.5q4.5 44.5 22 71.5t42.5 47q53 42 100 42t71.5 -10t39.5 -27 q28 -34 23 -77.5t-22 -70.5t-41.5 -46.5t-54 -30t-56.5 -10.5t-50.5 8.5t-40.5 24.5q-38 34 -33.5 78.5z" />
<glyph unicode="&#xf8;" horiz-adv-x="1135" d="M34 -83l144 208q-88 122 -88 340q0 266 158 474q104 137 254 191q76 28 171.5 28t172.5 -41l131 186l89 -49l-138 -198q114 -120 114 -368q0 -277 -153 -482q-103 -138 -251 -192q-74 -28 -158 -28q-137 0 -229 66l-128 -184zM293 462q0 -91 17 -159l431 677 q-45 31 -106 31t-108.5 -24.5t-85.5 -66t-67 -96.5q-81 -159 -81 -362zM362 197q53 -64 148 -64q107 0 187 91q106 120 133 345q7 59 7 90q0 153 -32 234z" />
<glyph unicode="&#xf9;" horiz-adv-x="1173" d="M102 270q0 66 15 181q55 409 70 507l26 182h196q-11 -84 -23 -170l-47 -328q-38 -268 -38 -334t8.5 -91.5t25.5 -40.5q30 -25 87 -25t104.5 21.5t94.5 57.5q98 75 170 182l97 728h195l-151 -1140h-182l21 218q-126 -166 -290 -220q-57 -18 -117 -18q-132 0 -197 67 t-65 223zM290 1576l153 137l288 -402l-85 -70q-96 41 -253 206q-72 75 -103 129z" />
<glyph unicode="&#xfa;" horiz-adv-x="1173" d="M102 270q0 66 15 181q55 409 70 507l26 182h196q-11 -84 -23 -170l-47 -328q-38 -268 -38 -334t8.5 -91.5t25.5 -40.5q30 -25 87 -25t104.5 21.5t94.5 57.5q98 75 170 182l97 728h195l-151 -1140h-182l21 218q-126 -166 -290 -220q-57 -18 -117 -18q-132 0 -197 67 t-65 223zM568 1312l307 401l152 -137q-30 -57 -157 -176q-140 -130 -219 -159z" />
<glyph unicode="&#xfb;" horiz-adv-x="1173" d="M102 270q0 66 15 181q55 409 70 507l26 182h196q-11 -84 -23 -170l-47 -328q-38 -268 -38 -334t8.5 -91.5t25.5 -40.5q30 -25 87 -25t104.5 21.5t94.5 57.5q98 75 170 182l97 728h195l-151 -1140h-182l21 218q-126 -166 -290 -220q-57 -18 -117 -18q-132 0 -197 67 t-65 223zM313 1276l327 374h178l190 -374l-94 -68l-211 264l-313 -273z" />
<glyph unicode="&#xfc;" horiz-adv-x="1173" d="M102 270q0 66 15 181q55 409 70 507l26 182h196q-11 -84 -23 -170l-47 -328q-38 -268 -38 -334t8.5 -91.5t25.5 -40.5q30 -25 87 -25t104.5 21.5t94.5 57.5q98 75 170 182l97 728h195l-151 -1140h-182l21 218q-126 -166 -290 -220q-57 -18 -117 -18q-132 0 -197 67 t-65 223zM357 1503q0 59 46 105q43 43 85 43t65 -9q71 -29 71 -101q0 -63 -47 -109q-46 -44 -87.5 -44t-62.5 10q-70 30 -70 105zM791 1562q26 54 78 78q26 11 53.5 11t50.5 -9q71 -29 71 -101q0 -63 -47 -109q-46 -44 -87 -44q-67 0 -101 36q-57 58 -18 138z" />
<glyph unicode="&#xfd;" horiz-adv-x="1050" d="M-195 -474l56 162q60 -30 113.5 -30t101 14t99.5 50q107 76 235 262h-121l-65 375l-109 781h216l84 -781l40 -303l103 183q202 323 244 767q4 51 7 134h192q2 -31 2 -64.5t-5 -99t-26 -163t-54 -195.5q-141 -427 -417 -772l-95 -114q-196 -233 -459 -233q-72 0 -142 27z M460 1312l307 401l152 -137q-30 -57 -157 -176q-140 -130 -219 -159z" />
<glyph unicode="&#xfe;" horiz-adv-x="1163" d="M12 -516l71 500l219 1654h185l-55 -491l-36 -193q103 136 252 184q53 18 122 18t127.5 -31t96.5 -87q76 -111 76 -314q0 -270 -155 -488q-110 -155 -289 -219q-91 -33 -181 -33t-167 15l-76 -515h-190zM300 151q72 -24 148.5 -24t135 26t104.5 70t80 101.5t56 121.5 q44 128 44 254q0 304 -143 304q-142 0 -283 -164q-37 -43 -62 -81z" />
<glyph unicode="&#xff;" horiz-adv-x="1050" d="M-195 -474l56 162q60 -30 113.5 -30t101 14t99.5 50q107 76 235 262h-121l-65 375l-109 781h216l84 -781l40 -303l103 183q202 323 244 767q4 51 7 134h192q2 -31 2 -64.5t-5 -99t-26 -163t-54 -195.5q-141 -427 -417 -772l-95 -114q-196 -233 -459 -233q-72 0 -142 27z M249 1503q0 59 46 105q43 43 85 43t65 -9q71 -29 71 -101q0 -63 -47 -109q-46 -44 -87.5 -44t-62.5 10q-70 30 -70 105zM683 1562q26 54 78 78q26 11 53.5 11t50.5 -9q71 -29 71 -101q0 -63 -47 -109q-46 -44 -87 -44q-67 0 -101 36q-57 58 -18 138z" />
<glyph unicode="&#x152;" horiz-adv-x="2106" d="M107 641q0 241 87 447q89 211 251 333q165 125 368 125q306 0 417 -307l37 291h767l-7 -157l-581 8l-67 -527l438 7l-12 -166l-443 15l-72 -561l700 16l-14 -165h-902l33 262q-192 -278 -530 -278q-101 0 -192 49.5t-152 134.5q-126 178 -126 473zM313 671 q0 -280 79.5 -407.5t237.5 -127.5q209 0 343 224q125 207 125 499q0 410 -179 501q-59 29 -134 29t-137.5 -28.5t-115 -79t-93.5 -120.5q-126 -212 -126 -490z" />
<glyph unicode="&#x153;" horiz-adv-x="1764" d="M88 461q0 168 68 326q71 164 197 263q134 106 296 106q250 0 343 -202q168 202 420 202q207 0 264 -152q17 -45 17 -113t-34 -135t-89.5 -119t-127 -90t-145.5 -64q-139 -48 -277 -58v-34.5t5.5 -68t27.5 -86.5q52 -98 177 -98q163 0 332 159l55 -111q-50 -72 -154 -130 q-125 -72 -256 -72q-243 0 -342 198q-161 -198 -387 -198q-187 0 -288 120q-102 123 -102 357zM291 459q0 -328 217 -328q122 0 208 121q72 100 104 271q3 29 7 61q10 66 8 122q-4 303 -217 303q-106 0 -187 -92q-105 -120 -133 -345q-7 -59 -7 -113zM1025 564q148 7 297 91 q175 98 175 234q0 119 -128 119q-140 0 -241 -156q-85 -132 -103 -288z" />
<glyph unicode="&#x178;" horiz-adv-x="1083" d="M83 1530h212l248 -692l32 -76l38 76l412 692h212l-593 -940l-76 -590h-188l76 590zM367 1800.5q0 11.5 0.5 27.5t14 42t33.5 46q45 43 84.5 43t62.5 -9q70 -29 70 -102q0 -61 -48 -108q-46 -44 -87 -44q-93 0 -122 74q-8 19 -8 30.5zM784 1804.5q0 39.5 14 65.5t35 46 q45 43 85 43t63 -9q70 -29 70 -102q0 -62 -47 -108q-46 -44 -87 -44q-64 0 -98.5 34.5t-34.5 74z" />
<glyph unicode="&#x2c6;" horiz-adv-x="795" d="M49 1276l327 374h178l190 -374l-94 -68l-211 264l-313 -273z" />
<glyph unicode="&#x2dc;" horiz-adv-x="815" d="M9 1481q33 66 115 117q87 52 143.5 52t85.5 -10.5t52 -26t42 -33.5l37 -34q42 -36 74.5 -36t53 10.5t37 26.5t30.5 35l28 38l85 -89q-26 -76 -104 -130q-76 -53 -164 -53q-70 0 -108 25.5t-57 43.5t-37 33q-103 86 -198 -22l-28 -31z" />
<glyph unicode="&#x2000;" horiz-adv-x="1000" />
<glyph unicode="&#x2001;" horiz-adv-x="2000" />
<glyph unicode="&#x2002;" horiz-adv-x="1000" />
<glyph unicode="&#x2003;" horiz-adv-x="2000" />
<glyph unicode="&#x2004;" horiz-adv-x="666" />
<glyph unicode="&#x2005;" horiz-adv-x="500" />
<glyph unicode="&#x2006;" horiz-adv-x="333" />
<glyph unicode="&#x2007;" horiz-adv-x="333" />
<glyph unicode="&#x2008;" horiz-adv-x="250" />
<glyph unicode="&#x2009;" horiz-adv-x="400" />
<glyph unicode="&#x200a;" horiz-adv-x="111" />
<glyph unicode="&#x2010;" horiz-adv-x="1266" d="M218 693l18 158h837l-18 -158h-837z" />
<glyph unicode="&#x2011;" horiz-adv-x="1266" d="M218 693l18 158h837l-18 -158h-837z" />
<glyph unicode="&#x2012;" horiz-adv-x="1266" d="M218 693l18 158h837l-18 -158h-837z" />
<glyph unicode="&#x2013;" horiz-adv-x="1538" d="M218 694l30 157h1097l-30 -157h-1097z" />
<glyph unicode="&#x2014;" horiz-adv-x="2031" d="M218 694l29 157h1591l-30 -157h-1590z" />
<glyph unicode="&#x2018;" horiz-adv-x="682" d="M189 1246.5q0 109.5 31.5 191t79.5 141.5q80 102 203 162l75 -111l-2 -22q-61 -30 -110 -112q-60 -96 -60 -215.5t92 -196.5l-5 -41l-122 -116q-67 28 -121 114q-61 96 -61 205.5z" />
<glyph unicode="&#x2019;" horiz-adv-x="682" d="M214 1027l2 22q61 30 110 112q60 96 60 215.5t-92 196.5l5 41l122 116q67 -28 121 -114q61 -96 61 -205.5t-31.5 -191t-79.5 -141.5q-80 -102 -203 -162z" />
<glyph unicode="&#x201a;" horiz-adv-x="682" d="M100 -412l2 22q61 30 110 112q60 96 60 215.5t-92 196.5l5 41l122 116q67 -28 121 -114q61 -96 61 -205.5t-31.5 -191t-79.5 -141.5q-80 -102 -203 -162z" />
<glyph unicode="&#x201c;" horiz-adv-x="1161" d="M189 1246.5q0 109.5 31.5 191t79.5 141.5q80 102 203 162l75 -111l-2 -22q-61 -30 -110 -112q-60 -96 -60 -215.5t92 -196.5l-5 -41l-122 -116q-67 28 -121 114q-61 96 -61 205.5zM668 1246.5q0 109.5 31.5 191t79.5 141.5q80 102 203 162l75 -111l-2 -22 q-61 -30 -110 -112q-60 -96 -60 -215.5t92 -196.5l-5 -41l-122 -116q-67 28 -121 114q-61 96 -61 205.5z" />
<glyph unicode="&#x201d;" horiz-adv-x="1161" d="M284 1027l2 22q61 30 110 112q60 96 60 215.5t-92 196.5l5 41l122 116q67 -28 121 -114q61 -96 61 -205.5t-31.5 -191t-79.5 -141.5q-80 -102 -203 -162zM763 1027l2 22q61 30 110 112q60 96 60 215.5t-92 196.5l5 41l122 116q67 -28 121 -114q61 -96 61 -205.5 t-31.5 -191t-79.5 -141.5q-80 -102 -203 -162z" />
<glyph unicode="&#x201e;" horiz-adv-x="1161" d="M100 -412l2 22q61 30 110 112q60 96 60 215.5t-92 196.5l5 41l122 116q67 -28 121 -114q61 -96 61 -205.5t-31.5 -191t-79.5 -141.5q-80 -102 -203 -162zM579 -412l2 22q61 30 110 112q60 96 60 215.5t-92 196.5l5 41l122 116q67 -28 121 -114q61 -96 61 -205.5 t-31.5 -191t-79.5 -141.5q-80 -102 -203 -162z" />
<glyph unicode="&#x2022;" horiz-adv-x="858" d="M233 669.5q0 58.5 19 104t53 82.5q76 83 179 83q75 0 126 -49q50 -49 50 -108.5t-17.5 -106t-50.5 -84t-79.5 -61t-94 -23.5t-79.5 14t-55 38q-51 52 -51 110.5z" />
<glyph unicode="&#x2026;" horiz-adv-x="1579" d="M86 94.5q0 29.5 17 61.5t39 52q48 42 93.5 42t69.5 -10q61 -25 61 -97q0 -75 -60 -125q-48 -40 -92 -40t-65.5 8.5t-36.5 24.5t-20.5 35t-5.5 48.5zM613 104q4 30 18.5 57t36.5 47q48 42 93.5 42t69.5 -10q61 -25 61 -97q0 -75 -60 -125q-48 -40 -92 -40t-65.5 8.5 t-36.5 24.5t-22 39.5t-3 53.5zM1139 104q4 30 18.5 57t36.5 47q48 42 93.5 42t69.5 -10q61 -25 61 -97q0 -75 -60 -125q-48 -40 -92 -40t-65.5 8.5t-36.5 24.5t-22 39.5t-3 53.5z" />
<glyph unicode="&#x202f;" horiz-adv-x="400" />
<glyph unicode="&#x2039;" horiz-adv-x="1190" d="M234 530l22 160l692 396l38 -115l-510 -356l414 -351l-70 -112z" />
<glyph unicode="&#x203a;" horiz-adv-x="1190" d="M175 267l510 356l-414 351l70 112l586 -378l-22 -160l-692 -396z" />
<glyph unicode="&#x205f;" horiz-adv-x="500" />
<glyph unicode="&#x20ac;" horiz-adv-x="1389" d="M25 554l20 141h179q4 103 22 199h-176l20 140h193q80 239 251 375q172 137 396 137q143 0 256 -36l58 -18l-64 -159q-42 42 -189 59q-52 6 -115 6q-146 0 -244 -96t-147 -268h542l-19 -140h-553q-15 -87 -19 -199h546l-19 -141h-527q18 -423 286 -423q122 0 190 25 q94 35 174 91l56 -136q-83 -92 -302 -119q-70 -8 -147 -8q-282 0 -403 294q-50 123 -63 276h-202z" />
<glyph unicode="&#x2122;" horiz-adv-x="2120" d="M173 1385l22 145h666l-16 -145h-250l-88 -631l-171 -1l88 632h-251zM903 754l148 776h273l127 -568l236 568h287l-25 -776h-174l23 463l14 223l-29 -70l-295 -624h-127l-138 547l-35 150l-26 -157l-98 -532h-161z" />
<glyph unicode="&#x25fc;" horiz-adv-x="1140" d="M0 0v1140h1140v-1140h-1140z" />
</font>
</defs>
</svg>
