<?xml version="1.0" standalone="no"?>
<!DOCTYPE svg PUBLIC "-//W3C//DTD SVG 1.1//EN" "http://www.w3.org/Graphics/SVG/1.1/DTD/svg11.dtd" >
<svg xmlns="http://www.w3.org/2000/svg" xmlns:xlink="http://www.w3.org/1999/xlink" version="1.1">
<metadata></metadata>
<defs>
<font id="merriweather_sanslight_italic" horiz-adv-x="0" >
<font-face units-per-em="2048" ascent="1638" descent="-410" />
<missing-glyph horiz-adv-x="485" />
<glyph unicode="&#xfb01;" horiz-adv-x="1258" d="M152 1021l22 118l146 1l18 124q25 188 126 299q106 115 274 115q94 0 151 -26l-38 -121q-45 31 -122 31h-31t-65 -21t-69 -56q-60 -71 -74 -183l-21 -162h243l-9 -119h-250l-138 -1021h-148l137 1021h-152zM828 0l154 1144h149l-155 -1144h-148zM1011 1515q0 5 0.5 19.5 t10 35.5t24.5 36q34 34 77.5 34t67 -25.5t23.5 -62.5q0 -82 -74 -116q-20 -10 -41 -10t-37 8q-51 23 -51 81z" />
<glyph unicode="&#xfb02;" horiz-adv-x="1258" d="M152 1021l22 118l146 1l18 124q25 188 126 299q106 115 274 115q94 0 151 -26l-38 -121q-45 31 -122 31h-31t-65 -21t-69 -56q-60 -71 -74 -183l-21 -162h243l-9 -119h-250l-138 -1021h-148l137 1021h-152zM828 3l223 1634h148l-222 -1634h-149z" />
<glyph unicode="&#xfb03;" horiz-adv-x="1953" d="M152 1021l22 118l146 1l18 124q25 188 126 299q106 115 274 115q94 0 151 -26l-38 -121q-45 31 -122 31h-31t-65 -21t-69 -56q-60 -71 -74 -183l-21 -162h243l-9 -119h-250l-138 -1021h-148l137 1021h-152zM847 1021l22 118l146 1l18 124q25 188 126 299q106 115 274 115 q94 0 151 -26l-38 -121q-45 31 -122 31h-31t-65 -21t-69 -56q-60 -71 -74 -183l-21 -162h243l-9 -119h-250l-138 -1021h-148l137 1021h-152zM1522 0l154 1144h149l-155 -1144h-148zM1705 1515q0 5 0.5 19.5t10 35.5t24.5 36q34 34 77.5 34t67 -25.5t23.5 -62.5 q0 -82 -74 -116q-20 -10 -41 -10t-37 8q-51 23 -51 81z" />
<glyph unicode="&#xfb04;" horiz-adv-x="1953" d="M152 1021l22 118l146 1l18 124q25 188 126 299q106 115 274 115q94 0 151 -26l-38 -121q-45 31 -122 31h-31t-65 -21t-69 -56q-60 -71 -74 -183l-21 -162h243l-9 -119h-250l-138 -1021h-148l137 1021h-152zM847 1021l22 118l146 1l18 124q25 188 126 299q106 115 274 115 q94 0 151 -26l-38 -121q-45 31 -122 31h-31t-65 -21t-69 -56q-60 -71 -74 -183l-21 -162h243l-9 -119h-250l-138 -1021h-148l137 1021h-152zM1522 3l223 1634h148l-222 -1634h-149z" />
<glyph />
<glyph horiz-adv-x="682" />
<glyph />
<glyph />
<glyph />
<glyph />
<glyph />
<glyph />
<glyph />
<glyph />
<glyph unicode="&#x9;" />
<glyph unicode="&#xa;" />
<glyph />
<glyph />
<glyph />
<glyph />
<glyph />
<glyph />
<glyph />
<glyph />
<glyph />
<glyph />
<glyph />
<glyph />
<glyph unicode=" "  horiz-adv-x="485" />
<glyph unicode="&#x09;" horiz-adv-x="485" />
<glyph unicode="&#xa0;" horiz-adv-x="485" />
<glyph unicode="!" horiz-adv-x="621" d="M130 68q0 63 47 102q39 33 89 33q91 0 91 -83q0 -69 -43 -103t-78.5 -34t-53.5 7q-52 18 -52 78zM235 488l163 1290h172l-215 -1290h-120z" />
<glyph unicode="&#x22;" horiz-adv-x="1003" d="M240 966l88 721h174l-154 -721h-108zM719 966l88 721h174l-154 -721h-108z" />
<glyph unicode="#" horiz-adv-x="1393" d="M112 365l6 98h224l72 463h-222l6 98h232l53 333h126l-51 -333h388l56 333h127l-55 -333h233l-6 -98h-242l-74 -463h230l-6 -98h-239l-57 -365h-123l53 365h-390l-62 -365h-124l59 365h-214zM469 463h389l72 463h-388z" />
<glyph unicode="$" horiz-adv-x="1204" d="M128 68l42 123q52 -56 228 -85q54 -9 115.5 -9t126 16t114.5 50q110 75 110 211q0 143 -140 254q-45 37 -102 74t-115.5 79t-106.5 95q-114 124 -114 285q0 165 113 268q112 102 296 114l30 186h137l-30 -188q161 -15 258 -80l-48 -115q-60 60 -206 78q-42 6 -85 6 t-97.5 -9.5t-101.5 -36.5q-115 -63 -115 -207q0 -160 161 -277q51 -37 108 -74l112 -78q202 -146 202 -343q0 -184 -122 -296q-117 -107 -320 -126l-35 -213h-137l34 212q-165 12 -267 60q-30 14 -45 26z" />
<glyph unicode="%" horiz-adv-x="1911" d="M201 1055q0 165 115 292q121 133 295 133q212 0 264 -176q16 -55 16 -128t-28.5 -152t-81.5 -141t-129 -100t-157.5 -38t-134 23.5t-88.5 65.5q-71 85 -71 221zM324 1056q0 -152 104 -201q33 -16 86.5 -16t101.5 33.5t80 84.5q65 104 65 210q0 219 -171 219 q-118 0 -196 -112q-70 -101 -70 -218zM414 0l947 1530h123l-947 -1530h-123zM1037 380q0 73 30.5 149.5t84.5 136.5q121 133 295 133q212 0 264 -177q16 -54 16 -127t-28.5 -152t-81.5 -141q-118 -138 -299 -138q-134 0 -210 89q-71 85 -71 227zM1160 378q0 -51 12 -90.5 t35 -68.5q48 -61 122.5 -61t122.5 33.5t80 84.5q65 104 65 210q0 219 -171 219q-118 0 -196 -112q-70 -101 -70 -215z" />
<glyph unicode="&#x26;" horiz-adv-x="1534" d="M105 349q0 88 27 146.5t72 107.5q73 79 233 168q-94 198 -94 366q0 181 116 295q116 115 295 115q159 0 254 -100q84 -88 84 -202q0 -178 -158 -305q-89 -73 -180 -121l-149 -80q190 -328 394 -516q131 125 131 330q0 79 -24 141q-85 -2 -122 -22l9 105q29 29 136 29h89 l138 -1h87l-8 -111h-181q14 -49 14 -108q0 -279 -174 -441q96 -62 236 -62q10 0 29 -1.5t44 5.5l-15 -93q-184 -45 -348 32q-33 16 -61 38q-152 -81 -357 -81q-353 0 -474 205q-43 73 -43 161zM260 357.5q0 -62.5 30 -115t81 -86.5q100 -65 252.5 -65t265.5 55 q-132 126 -205.5 228t-113.5 167l-80 133q-110 -67 -152.5 -118t-60 -93.5t-17.5 -105zM480 1141q0 -160 74 -308l147 81q249 142 249 315q0 149 -111 199q-38 17 -95 17t-106.5 -24t-84.5 -65q-73 -86 -73 -215z" />
<glyph unicode="'" horiz-adv-x="524" d="M240 966l88 721h174l-154 -721h-108z" />
<glyph unicode="(" horiz-adv-x="854" d="M221 492.5q0 115.5 17 245.5t63 258t105.5 236.5t126.5 196.5t128 153q116 124 184 159l67 -46q-113 -74 -257 -287q-116 -172 -194 -396q-41 -117 -56 -216q-25 -164 -25 -309t31.5 -278.5t75.5 -231.5t91 -160t79 -88l-82 -48h-14q-103 75 -198 239q-84 145 -122 350 q-20 107 -20 222.5z" />
<glyph unicode=")" horiz-adv-x="854" d="M-48 -267q113 74 257 287q116 172 194 396q41 117 56 216q25 164 25 309t-31.5 278.5t-75.5 231.5t-91 160t-79 88l82 48h14q103 -75 198 -239q84 -145 122 -350q20 -107 20 -222.5t-17 -245.5t-63 -258t-105.5 -236.5t-126.5 -196.5t-128 -153q-116 -124 -184 -159z" />
<glyph unicode="*" horiz-adv-x="1366" d="M240 960l286 130l146 57l-134 58l-260 139l87 127l233 -176l109 -95l-6 150l7 303h148l-51 -303l-37 -150l129 95l267 172l59 -128l-284 -135l-145 -58l129 -58l254 -135l-88 -126l-227 172l-105 97l9 -146l-7 -303l-151 1l52 302l36 146l-128 -95l-269 -170z" />
<glyph unicode="+" horiz-adv-x="1366" d="M243 712l14 121h226l158 -9l17 181l27 230h136l-26 -230l-30 -180l135 8h255l-14 -121h-256l-131 5q0 -22 -4 -69l-8 -72q-2 -25 -3 -40l-29 -241h-138l29 241l28 181l-161 -5h-225z" />
<glyph unicode="," horiz-adv-x="503" d="M-22 -434l2 18q140 70 188 222q16 52 16 121.5t-26.5 125t-67.5 74.5l6 41l79 97q90 -40 133 -131q35 -72 35 -160.5t-22.5 -162t-63.5 -134.5q-82 -123 -224 -178z" />
<glyph unicode="-" horiz-adv-x="1266" d="M220 712l14 121h837l-14 -121h-837z" />
<glyph unicode="." horiz-adv-x="503" d="M100 79.5q0 48.5 24 75.5q43 48 94.5 48t71.5 -26t20 -45q0 -82 -33 -115.5t-79.5 -33.5t-72 24t-25.5 72.5z" />
<glyph unicode="/" horiz-adv-x="854" d="M-75 -362l862 1959h133l-863 -1959h-132z" />
<glyph unicode="0" horiz-adv-x="1278" d="M111 457.5q0 96.5 22.5 187.5t63.5 169t98.5 141.5t126.5 108.5q143 92 312 92q218 0 326 -134q97 -122 97 -334q0 -287 -175 -493q-83 -97 -196.5 -154t-236.5 -57t-204 39t-133 104t-76.5 149.5t-24.5 181zM268 464q0 -254 162 -342q55 -31 147.5 -31t174.5 51.5 t137 134.5q110 166 110 398q0 375 -284 375q-214 0 -338 -192q-109 -170 -109 -394z" />
<glyph unicode="1" horiz-adv-x="911" d="M183 960q194 45 416 202l68 -19l-165 -1143h-153l137 958l-126 -50q-72 -28 -159 -46z" />
<glyph unicode="2" horiz-adv-x="1249" d="M62 102q630 312 772 586q33 63 33 123q0 227 -246 227q-178 0 -368 -163l-56 87q119 126 315 179q71 19 159.5 19t159 -27.5t115.5 -73.5q89 -89 89 -232q0 -312 -579 -630l-179 -94l781 29l-21 -132h-950z" />
<glyph unicode="3" horiz-adv-x="1100" d="M42 -315l13 115q76 -10 145.5 -10t137.5 11.5t129.5 33t113.5 53.5t90 74q81 88 81 201q0 240 -299 244q-10 -5 -35 -12l-54 -15q-29 -8 -54.5 -14.5t-34.5 -9.5l13 131q341 82 444 231q39 58 39 114t-14 86.5t-41 53.5q-57 47 -135 47t-128 -12t-94 -31 q-65 -28 -153 -92l-47 112q107 102 303 148q71 16 143 16t131 -16.5t104 -50.5q100 -74 100 -214q0 -128 -114 -241q-102 -103 -254 -157q170 0 266 -92q88 -84 88 -213q0 -148 -108 -267q-151 -168 -434 -220q-87 -16 -150 -16q-94 0 -192 12z" />
<glyph unicode="4" horiz-adv-x="1240" d="M23 72l342 554l364 630h38l106 -68l-577 -929l-108 -158l524 13l64 507l147 28l-67 -527l263 11l-16 -133h-263l-47 -375h-145l49 375h-647z" />
<glyph unicode="5" horiz-adv-x="1104" d="M39 -329l18 108q50 -10 129 -10t190.5 26.5t199.5 78.5q194 116 194 308q0 130 -67 204t-206 74t-283 -69l-58 58l154 695h582l19 16h128l-31 -144h-581l-120 -488q131 49 245 49t185.5 -27t117.5 -76q90 -94 90 -264q0 -160 -110 -291q-160 -191 -465 -247 q-98 -18 -155.5 -18t-74 0.5t-34.5 2.5q-38 4 -67 14z" />
<glyph unicode="6" horiz-adv-x="1244" d="M149 474.5q0 203.5 63 377t176 316.5q239 302 608 404l33 -88q-362 -128 -561 -434q-63 -98 -100 -206q161 142 374 142q182 0 276 -118q80 -101 80 -263q0 -236 -141 -420q-96 -125 -243 -175q-74 -26 -169 -26t-171 40.5t-126 109.5q-99 137 -99 340.5zM300 489 q0 -99 17.5 -169.5t52.5 -121.5q76 -108 216 -108q117 0 206 83q74 70 118 193q37 106 37 197t-17.5 144.5t-49.5 89.5q-63 73 -158 73t-157.5 -19.5t-109.5 -46.5q-67 -39 -127 -102q-28 -114 -28 -213z" />
<glyph unicode="7" horiz-adv-x="1063" d="M98 1021l26 123h883l26 -35l-618 -1424l-137 51l584 1288z" />
<glyph unicode="8" horiz-adv-x="1249" d="M120 343q0 88 35.5 160.5t92.5 132.5q106 113 269 184q-101 78 -141 134q-80 108 -80 211t36 177t98 124q126 103 328 103q162 0 266 -87q108 -91 108 -239q0 -142 -110 -266q-101 -115 -260 -172q136 -94 191 -160q109 -129 109 -235.5t-41 -184t-111 -131.5 q-145 -111 -364 -111q-168 0 -290 90q-136 102 -136 270zM282 372q-1 -65 18.5 -116t57.5 -88q80 -81 215 -81q133 0 227 79q99 82 99 207q0 154 -183 302q-55 45 -119 88q-123 -58 -210 -153q-105 -115 -105 -238zM449 1198q0 -141 145 -265q42 -36 89 -69q198 89 271 244 q28 57 28 120.5t-20 108t-54 74.5q-65 59 -167 59q-123 0 -207 -76q-85 -78 -85 -196z" />
<glyph unicode="9" horiz-adv-x="1244" d="M139 540q0 237 140 420q154 201 404 201q195 0 305 -150q100 -137 100 -354q0 -379 -240 -682q-153 -193 -376 -312q-110 -59 -233 -93l-34 89q237 81 415 255q171 167 249 387q-144 -150 -348 -150q-193 0 -295 121q-87 103 -87 268zM290 561q0 -214 157 -275 q49 -19 116 -19t125 20.5t101.5 48.5t72.5 58l46 49q30 132 30 222t-18 160.5t-54 121.5q-76 108 -217 108q-175 0 -274 -171q-85 -147 -85 -323z" />
<glyph unicode=":" horiz-adv-x="503" d="M85 79.5q0 48.5 24 75.5q43 48 94.5 48t71.5 -26t20 -45q0 -82 -33 -115.5t-79.5 -33.5t-72 24t-25.5 72.5zM181 911.5q0 48.5 24 75.5q43 48 94.5 48t71.5 -26t20 -45q0 -82 -33 -115.5t-79.5 -33.5t-72 24t-25.5 72.5z" />
<glyph unicode=";" horiz-adv-x="503" d="M-22 -434l2 18q140 70 188 222q16 52 16 121.5t-26.5 125t-67.5 74.5l6 41l79 97q90 -40 133 -131q35 -72 35 -160.5t-22.5 -162t-63.5 -134.5q-82 -123 -224 -178zM183 911.5q0 48.5 24 75.5q43 48 94.5 48t71.5 -26t20 -45q0 -82 -33 -115.5t-79.5 -33.5t-72 24 t-25.5 72.5z" />
<glyph unicode="&#x3c;" horiz-adv-x="1368" d="M197 702l12 98l1011 524l-19 -149l-833 -432l732 -432l-15 -135z" />
<glyph unicode="=" horiz-adv-x="1063" d="M99 358l13 120h815l-14 -120h-814zM169 867l13 120h815l-14 -120h-814z" />
<glyph unicode="&#x3e;" horiz-adv-x="1368" d="M250 179l19 149l833 432l-732 432l15 135l888 -526l-12 -98z" />
<glyph unicode="?" horiz-adv-x="1020" d="M264 1617l22 109q35 35 142 49q31 4 94.5 4t138.5 -19t130.5 -51.5t93 -76.5t61.5 -94q43 -93 43 -192t-24 -158.5t-63.5 -104.5t-90 -79.5t-103.5 -63.5l-104 -56q-110 -58 -153 -122q-24 -37 -24 -73t5 -59.5t12.5 -46t16 -42t14.5 -34.5l-98 -38l-13 1q-56 53 -76 154 q-7 32 -7 72.5t19.5 80t56.5 75.5q60 60 159 112l142 76q160 91 180 171q12 38 12 114.5t-32.5 142.5t-85.5 108q-103 80 -253 80q-114 0 -215 -39zM353 69v17.5t8.5 38t24.5 41.5q34 37 85.5 37t71 -25.5t19.5 -44.5v-22q-1 -63 -33 -95.5t-78.5 -32.5t-72 23.5t-25.5 62.5 z" />
<glyph unicode="@" horiz-adv-x="1968" d="M121 373q0 352 145 625q138 260 384 404q243 143 539 143q313 0 497 -179q183 -177 183 -477q0 -391 -198 -646q-119 -153 -259 -208q-69 -27 -119 -27t-70 17.5t-30 46.5q-14 39 -14 100.5t2.5 90t7 61.5t10.5 68l12 69q-81 -195 -149.5 -285t-123.5 -130.5t-110 -40.5 t-106 25q-109 55 -156 212q-23 75 -23 129.5t0.5 95t16 117.5t45 150t73.5 138t104 114q130 106 304 106q91 0 151.5 -20.5t81.5 -33.5l128 24q-67 -259 -114 -616q-19 -148 -19 -226.5t39 -78.5q89 0 183 105q146 163 198 436q17 90 17 217t-45.5 237.5t-125.5 179.5 q-149 128 -419 128q-269 0 -485 -150q-204 -141 -322 -384q-116 -241 -116 -519q0 -361 199 -553q178 -171 472 -171q156 0 321 57q44 15 68 28l26 -76q-106 -81 -299 -108q-62 -8 -127 -8q-345 0 -556 213q-221 222 -221 600zM681 432.5q0 -139.5 44 -224.5t122 -86 q105 0 247 288q131 263 188 516q-39 47 -151 64q-29 5 -72.5 5t-98.5 -24t-99 -64.5t-78 -94.5t-57 -116q-45 -124 -45 -263.5z" />
<glyph unicode="A" horiz-adv-x="1265" d="M-50 0l745 1530h168l289 -1530h-150l-76 431h-614l-201 -431h-161zM366 546h540l-129 734l-15 115z" />
<glyph unicode="B" horiz-adv-x="1240" d="M121 0l193 1530h82q71 1 144.5 8.5t177 7.5t189 -27.5t137.5 -72.5q95 -85 95 -235q0 -238 -187 -353q-60 -37 -133 -58q130 -14 217 -97q95 -89 95 -221t-49.5 -226t-139.5 -154q-173 -116 -484 -116l-267 14h-70zM286 113q61 -19 183.5 -19t210.5 20q184 40 255 180 q36 70 36 172q0 134 -97 206q-89 67 -248 67q-148 0 -262 -6zM378 847q35 -1 75 -1l159 1q165 0 268 91q108 95 108 257q0 185 -179 230q-63 16 -113.5 16t-75.5 -1t-54 -3l-61 -4q-31 -2 -54 -5z" />
<glyph unicode="C" horiz-adv-x="1141" d="M109 657q0 247 90 452q90 204 256 321q165 116 368 116q124 0 220 -30l103 -32l-53 -126l-38 18q-96 44 -216 44t-199.5 -33.5t-142 -91t-107.5 -133.5q-127 -217 -127 -497q0 -388 212 -517q72 -43 153.5 -43t138.5 11t105 28q92 31 142 67l23 -128q-158 -98 -416 -98 q-264 0 -397 205q-115 177 -115 467z" />
<glyph unicode="D" horiz-adv-x="1377" d="M121 0l193 1530h87l321 16q292 0 438 -173q138 -162 138 -471q0 -389 -210 -652q-139 -175 -345 -238q-95 -28 -201 -28q-27 0 -44 1l-62 4q-35 2 -66.5 4.5t-61.5 3.5l-60 2q-29 1 -50 1h-77zM287 125q158 -26 209.5 -26h61.5q185 4 326 125q126 108 196 300 q62 171 62 374q0 283 -110 410q-107 126 -353 126q-73 0 -140 -8l-90 -11z" />
<glyph unicode="E" horiz-adv-x="1138" d="M121 0l193 1530h756l-6 -120l-614 7l-73 -579l474 6l-9 -127l-479 11l-78 -614l737 13l-11 -127h-890z" />
<glyph unicode="F" horiz-adv-x="1057" d="M121 0l193 1530h779l-11 -120l-632 7l-73 -582l508 8l-10 -130l-512 12l-92 -725h-150z" />
<glyph unicode="G" horiz-adv-x="1340" d="M111 623q0 154 23.5 269t70.5 217t113.5 183t148.5 138q171 116 377 116q191 0 363 -55l39 -12l-48 -137q-139 82 -356 82q-186 0 -325 -120q-187 -163 -238 -474q-15 -87 -15 -133.5t0.5 -99.5t20.5 -150t65 -174q101 -172 292 -172q143 0 371 85l54 421l-281 1l15 121 h430l-82 -635q-29 -3 -62 -12l-158 -46q-176 -53 -310 -53q-93 0 -166 26q-201 73 -289 313q-53 147 -53 301z" />
<glyph unicode="H" horiz-adv-x="1410" d="M121 0l193 1530h150l-89 -701h726l89 701h150l-192 -1530h-151l90 714h-726l-90 -714h-150z" />
<glyph unicode="I" horiz-adv-x="572" d="M145 0l193 1530h151l-193 -1530h-151z" />
<glyph unicode="J" horiz-adv-x="584" d="M-169 -255q137 38 229 139q80 90 108 224q16 74 34.5 188.5t35 238.5t31.5 255l55 508q13 123 26 232h151q-51 -457 -72 -632l-39 -312q-56 -428 -83.5 -521t-73.5 -163t-104 -116q-103 -80 -270 -109z" />
<glyph unicode="K" horiz-adv-x="1245" d="M121 0l193 1530h150l-105 -828l746 828h178l-622 -676l405 -704q51 -87 97 -150h-181q-8 8 -26 38q-361 658 -392 711l-231 -252l-62 -497h-150z" />
<glyph unicode="L" horiz-adv-x="978" d="M121 0l193 1530h150l-177 -1404l593 4l-16 -130h-743z" />
<glyph unicode="M" horiz-adv-x="1791" d="M72 0l380 1530h194l173 -1068l31 -236l92 234l460 1070h218l-44 -1530h-153l49 1022l24 409l-624 -1435l-107 -14l-170 1063l-50 386l-77 -394l-243 -1037h-153z" />
<glyph unicode="N" horiz-adv-x="1402" d="M121 0l193 1530h158l491 -1127l72 -207l21 238l134 1096h143l-193 -1530h-149l-494 1122l-72 239l-29 -288l-134 -1073h-141z" />
<glyph unicode="O" horiz-adv-x="1378" d="M111 644q0 376 196 635q129 171 312 235q92 33 202.5 33t201 -50t150.5 -136q126 -179 126 -467q0 -381 -189 -640q-198 -271 -514 -271q-111 0 -202 48t-153 133q-130 177 -130 480zM268 643q4 -275 97 -409.5t263 -134.5q227 0 375 233q139 220 139 532q0 563 -354 563 q-224 0 -377 -235q-93 -145 -128 -346q-15 -89 -15 -140.5v-62.5z" />
<glyph unicode="P" horiz-adv-x="1180" d="M121 0l193 1530h88l307 16q451 0 457 -389v-18q0 -277 -168 -445q-170 -168 -446 -168q-67 0 -112 4l-68 6q-21 2 -32 4l-69 -540h-150zM355 662q85 -17 202 -17q224 1 340 131t117 370q0 287 -328 287q-58 0 -134 -9l-103 -11z" />
<glyph unicode="Q" horiz-adv-x="1378" d="M111 644q0 376 196 635q129 171 312 235q92 33 202.5 33t201 -50t150.5 -136q126 -179 126 -468q0 -351 -165 -604q-81 -124 -195.5 -202.5t-253.5 -97.5q0 -120 102 -171q74 -38 207 -38t222 35v-117q-55 -39 -217 -53q-46 -4 -102.5 -4t-121.5 21q-137 45 -184 170 q-17 45 -17 85t3 67q-218 12 -342 190t-124 470zM268 643q4 -275 97 -409.5t263 -134.5q227 0 375 233q139 220 139 532q0 563 -354 563q-224 0 -377 -235q-93 -145 -128 -346q-15 -89 -15 -140.5v-62.5z" />
<glyph unicode="R" horiz-adv-x="1256" d="M120 0l192 1530h76l310 16q227 0 348 -89q123 -91 123 -277q0 -181 -97 -316q-101 -140 -273 -186q73 -64 167 -292q124 -294 145 -332.5t33 -54.5l-172 2q-25 38 -58 117l-55 140q-99 278 -177 362q-33 35 -67 36h-39h-72l-82 2h-69l-82 -658h-151zM368 779 q42 -2 110 -2h162.5t153.5 31q140 61 190 214q22 69 22 113.5v51.5q-4 243 -329 243q-77 0 -229 -16z" />
<glyph unicode="S" horiz-adv-x="1044" d="M29 73l42 123q52 -56 228 -85q54 -9 115.5 -9t126 15.5t114.5 48.5q110 73 110 208q0 143 -139 254q-46 37 -103 74t-115.5 79t-107.5 95q-113 126 -113 285q0 175 129 282q125 104 329 104q228 0 346 -85l-48 -116q-61 61 -205 80q-43 5 -86 5t-97.5 -9.5t-102.5 -35.5 q-114 -63 -114 -209q0 -115 74 -199q51 -58 151.5 -124t155.5 -105.5t99 -88.5q104 -114 104 -259q0 -198 -146 -309q-141 -108 -372 -108q-181 0 -322 60q-36 15 -53 29z" />
<glyph unicode="T" horiz-adv-x="1122" d="M138 1410l17 120h1044l-17 -120l-443 9l-179 -1419h-150l179 1419z" />
<glyph unicode="U" horiz-adv-x="1360" d="M153 438q0 45 12 155l119 937h150l-115 -911q-12 -100 -12 -142.5t0.5 -83t20.5 -100.5t59 -101q80 -86 235 -86q188 0 290 121q107 126 144 413l112 890h147l-114 -903q-45 -347 -194 -499q-140 -145 -406 -145q-110 0 -192 30q-256 93 -256 425z" />
<glyph unicode="V" horiz-adv-x="1169" d="M154 1530h150l168 -1096l39 -282l115 282l478 1096h160l-695 -1534l-161 -1z" />
<glyph unicode="W" horiz-adv-x="1770" d="M149 1530h150l146 -1096l40 -268l86 259l352 879l-23 226h144l109 -1096l20 -268l99 259l443 1105h152l-647 -1540h-154l-89 860l-18 236l-84 -236l-340 -860h-155z" />
<glyph unicode="X" horiz-adv-x="1147" d="M-35 0l555 788l-323 742h166l255 -635l424 635h170l-536 -772l348 -758h-172l-274 656l-430 -656h-183z" />
<glyph unicode="Y" horiz-adv-x="1083" d="M105 1530h161l261 -710l41 -103l55 102l428 711h162l-592 -945l-75 -585h-144l76 585z" />
<glyph unicode="Z" horiz-adv-x="1157" d="M15 70l822 1157l151 186l-744 -11l16 128h903l19 -66l-843 -1195l-124 -148l812 9l-21 -130h-970z" />
<glyph unicode="[" horiz-adv-x="854" d="M194 -76q0 50 3 99t12 126.5t21.5 173t28.5 203.5l127 843q13 87 20.5 146t19 95.5t31.5 58.5q37 41 126 41q77 0 174 -18.5t105 -18.5l-9 -66h-292l-230 -1675l149 -1q43 0 83 -0.5t64 -0.5l-7 -66q-165 -36 -266 -36t-130.5 23t-29.5 73z" />
<glyph unicode="\" horiz-adv-x="854" d="M46 1597h132l577 -1959h-133z" />
<glyph unicode="]" horiz-adv-x="854" d="M55 -117l9 66h292l230 1675l-149 1q-43 0 -83 0.5t-64 0.5l7 66q165 36 266 36t130.5 -23t29.5 -73t-3 -99t-12 -126.5t-21.5 -173t-28.5 -203.5l-127 -843q-13 -87 -20.5 -146t-19 -95.5t-31.5 -58.5q-37 -41 -126 -41q-77 0 -174 18.5t-105 18.5z" />
<glyph unicode="^" horiz-adv-x="1358" d="M186 510l518 1020h153l267 -1020h-131l-226 875l-446 -875h-135z" />
<glyph unicode="_" horiz-adv-x="1335" d="M-111 -338l15 115h1378l-15 -115h-1378z" />
<glyph unicode="`" horiz-adv-x="541" d="M72 1597l115 104l294 -397l-65 -55q-48 32 -100 80q-151 143 -190.5 193t-53.5 75z" />
<glyph unicode="a" horiz-adv-x="1130" d="M81 415q0 270 151 488q109 156 282 220q90 33 193 33t221 -37l113 37l-157 -1156h-131l19 202v3q-100 -145 -256 -201q-55 -20 -126.5 -20t-131.5 31t-100 88q-77 112 -77 312zM235 433q0 -333 189 -333q112 0 224 97q86 74 143 175l20 185l64 451q-85 38 -172.5 38 t-151 -26.5t-114 -72t-88.5 -106t-63 -128.5q-51 -135 -51 -280z" />
<glyph unicode="b" horiz-adv-x="1159" d="M95 2l218 1635h141l-58 -490l-35 -208q102 143 261 197q57 20 129 20t132 -31.5t99 -88.5q78 -112 78 -313q0 -268 -156 -487q-109 -155 -285 -219q-90 -33 -200.5 -33t-239.5 43zM259 129q80 -35 171 -35t155.5 27.5t116 74t90 108t64.5 129.5q50 135 50 273 q0 334 -190 334q-110 0 -222 -90q-85 -68 -147 -166z" />
<glyph unicode="c" horiz-adv-x="911" d="M89 433q0 264 145 479q101 151 256 212q79 32 140 32t90.5 -2.5t58.5 -7.5q67 -12 104 -31l-39 -128q-72 57 -173.5 57t-176 -48t-130.5 -130q-123 -179 -123 -418q0 -350 242 -350q85 0 153 41t133 106l50 -82q-86 -113 -233 -161q-58 -18 -137 -18t-148.5 31t-116.5 89 q-95 117 -95 329z" />
<glyph unicode="d" horiz-adv-x="1149" d="M79 416q0 269 155 488q110 154 286 219q89 33 185 33t191 -25l70 506h148l-224 -1637h-132l20 208q-104 -149 -261 -204q-57 -20 -129 -20t-132 31.5t-100 88.5q-77 112 -77 312zM233 434q0 -334 190 -334q109 0 221 92q85 71 147 171l89 648q-83 36 -172.5 36 t-154 -27.5t-116 -74.5t-90 -108.5t-63.5 -129.5q-51 -135 -51 -273z" />
<glyph unicode="e" horiz-adv-x="1031" d="M89 425q0 153 46.5 289.5t123.5 233.5q168 208 420 208q205 0 262 -152q17 -45 17 -113t-36.5 -133.5t-96.5 -116t-136.5 -86.5t-155.5 -60q-147 -45 -287 -52q-1 -15 -1 -44.5t7.5 -82t35.5 -102.5q64 -112 207 -112q180 0 348 170l43 -86q-50 -71 -153 -130 q-124 -72 -243.5 -72t-194.5 40q-206 109 -206 401zM251 550q194 7 364 96q194 101 194 249t-160 148t-271 -154.5t-127 -338.5z" />
<glyph unicode="f" horiz-adv-x="695" d="M152 1021l22 118l146 1l18 124q25 188 126 299q106 115 274 115q94 0 151 -26l-38 -121q-45 31 -122 31h-31t-65 -21t-69 -56q-60 -71 -74 -183l-21 -162h243l-9 -119h-250l-138 -1021h-148l137 1021h-152z" />
<glyph unicode="g" horiz-adv-x="1149" d="M79 416q0 269 155 488q110 154 286 219q89 33 192.5 33t226.5 -36l116 36l-176 -1245q-31 -216 -197 -327q-135 -89 -311 -89q-169 0 -256 35l38 126q106 -48 245.5 -48t222.5 77.5t109 222.5l48 299q-106 -148 -262 -203q-56 -20 -128 -20t-132 31.5t-100 88.5 q-77 112 -77 312zM233 434q0 -334 190 -334q158 0 303 174q38 45 62 84l96 652q-85 36 -175.5 36t-155 -27.5t-116 -74t-90 -108.5t-63.5 -130q-51 -135 -51 -272z" />
<glyph unicode="h" horiz-adv-x="1198" d="M97 0l211 1637h148l-55 -479l-44 -289q150 194 344 263q66 24 131 24q123 0 176.5 -70.5t53.5 -210.5v-17t-3.5 -53.5t-9.5 -85t-13 -99.5l-16 -107q-6 -44 -16 -112l-62 -401h-149q4 32 11 74q48 321 55 365t13 85l14 92q25 171 25 249.5t-30.5 115.5t-94 37t-121.5 -25 t-116 -67q-124 -88 -206 -205l-98 -721h-148z" />
<glyph unicode="i" horiz-adv-x="564" d="M133 0l154 1144h149l-155 -1144h-148zM316 1518q0 5 0.5 19.5t10 35.5t24.5 36q34 34 77.5 34t67 -25.5t23.5 -62.5q0 -82 -74 -116q-20 -10 -41 -10t-37 8q-51 23 -51 81z" />
<glyph unicode="j" horiz-adv-x="579" d="M-244 -477l40 86q25 -20 85.5 -20t108 36t78.5 99q51 103 81 335l146 1085h149l-153 -1139q-53 -380 -251 -485q-67 -35 -132 -35q-100 0 -152 38zM320 1518q0 5 0.5 19.5t10 35.5t24.5 36q34 34 77.5 34t67 -25.5t23.5 -62.5q0 -82 -74 -116q-20 -10 -41 -10t-37 8 q-51 23 -51 81z" />
<glyph unicode="k" horiz-adv-x="1023" d="M97 0l208 1637h148l-207 -1637h-149zM375 628h1l-1 1l84 49q167 100 250 198q107 123 151 264h143q-11 -128 -112 -264q-117 -158 -344 -271l420 -602h-173z" />
<glyph unicode="l" horiz-adv-x="563" d="M133 3l223 1634h148l-222 -1634h-149z" />
<glyph unicode="m" horiz-adv-x="1782" d="M93 3l155 1137h141l-28 -253q141 185 313 247q59 22 118 22q109 0 162 -57t62 -174q134 161 294 213q56 18 111.5 18t98.5 -15.5t72 -48.5q57 -68 57 -220q0 -103 -23 -246t-29 -184q-35 -229 -42 -276l-15 -90q-6 -42 -10 -73h-150q4 32 10 74q50 324 56.5 365t17.5 108 q33 216 33 305t-30 126t-87.5 37t-102.5 -18.5t-91 -49.5q-94 -63 -174 -159q-5 -57 -16 -129l-21 -149q-6 -44 -16 -111l-61 -399h-149q9 73 20 141.5t18 117.5t15 95l13 86l25 173q26 171 26 250t-30 116t-90 37t-113 -25t-106 -66q-110 -85 -188 -203l-98 -722h-148z" />
<glyph unicode="n" horiz-adv-x="1194" d="M93 3l154 1137h141l-29 -265q149 190 341 258q65 23 130 23q123 0 176.5 -70t53.5 -209v-17t-3.5 -54t-9.5 -85.5t-13 -99.5l-16 -108q-6 -44 -16 -111l-61 -399h-149q9 73 20 141.5t18 117.5t14 95l14 86l26 173q25 171 25 250t-30.5 115.5t-95 36.5t-123 -25.5 t-116.5 -68.5q-121 -87 -206 -208l-97 -713h-148z" />
<glyph unicode="o" horiz-adv-x="1135" d="M97 462q0 269 153 474q103 138 251 192q74 28 162.5 28t158 -31t115.5 -90q97 -123 97 -349q0 -276 -150 -481q-162 -221 -404 -221q-93 0 -164 31q-219 96 -219 447zM251 459q0 -362 253 -362q176 0 283 197q91 171 91 387q0 363 -244 363q-179 0 -289 -198 q-94 -172 -94 -387z" />
<glyph unicode="p" horiz-adv-x="1162" d="M26 -515l219 1655h134l-22 -205q105 147 261 201q58 20 130 20t132 -31.5t100 -88.5q77 -112 77 -313q0 -271 -155 -489q-111 -154 -286 -218q-90 -32 -181 -32t-192 24l-69 -523h-148zM259 129q83 -35 169.5 -35t150.5 26.5t115 72t90 105.5t66 128q52 135 52 251 t-13.5 179.5t-38.5 103.5q-49 80 -137 80q-110 0 -222 -91q-89 -72 -146 -169z" />
<glyph unicode="q" horiz-adv-x="1146" d="M79 416q0 269 155 488q110 154 286 219q89 33 189.5 33t212.5 -34l121 38l-221 -1667h-148l78 580l24 132q-105 -146 -260 -201q-57 -20 -128.5 -20t-131.5 31.5t-100 88.5q-77 112 -77 312zM233 460.5q0 -114.5 13.5 -177.5t38.5 -103q49 -80 138 -80q112 0 225 96 q88 74 147 174q3 28 5 54.5t4.5 49.5t4 41t2.5 27l63 469q-83 35 -168.5 35t-149 -26.5t-115 -72t-90.5 -105.5t-65 -128q-53 -139 -53 -253.5z" />
<glyph unicode="r" horiz-adv-x="778" d="M93 0l153 1140h140l-26 -251q51 100 144 175q116 92 238 92q49 0 64 -13l-33 -158q-26 13 -79.5 13t-102.5 -23t-97 -65q-106 -91 -162 -230l-91 -680h-148z" />
<glyph unicode="s" horiz-adv-x="872" d="M45 48l28 130q118 -81 274 -81q163 0 216 97q18 33 18 76.5t-17 77t-44 62.5t-62 56l-69 54q-105 81 -141 129q-75 96 -75 187.5t30.5 148t82.5 94.5q104 77 264 77q166 0 254 -44l-29 -140q-33 39 -137 63q-39 9 -90.5 9t-95 -12t-73.5 -34q-63 -48 -63 -125 q0 -108 112 -197l140 -108q161 -126 161 -279q0 -147 -111 -229q-105 -76 -279 -76q-148 0 -251 40q-30 12 -43 24z" />
<glyph unicode="t" horiz-adv-x="739" d="M136 1021l31 118l127 1l56 279h126l-36 -279h291l-18 -119h-290l-99 -744q-4 -34 -4 -58q0 -116 79 -116q63 0 177 72q27 17 42 29l20 -84q-35 -42 -98 -74q-121 -62 -199 -62q-175 0 -175 172q0 42 12 134l93 731h-135z" />
<glyph unicode="u" horiz-adv-x="1173" d="M113 238q0 50 2 80t6 65q18 154 26 216l77 541h149l-73 -528q-7 -46 -14 -100q-21 -162 -21 -224t10.5 -94t30.5 -50q35 -33 99.5 -33t120 26t109.5 69q111 87 191 209l95 725h149l-152 -1140h-138l29 262q-136 -191 -317 -258q-61 -23 -124 -23q-194 0 -239 153 q-16 54 -16 104z" />
<glyph unicode="v" horiz-adv-x="1007" d="M114 1140h165l82 -786l22 -238l167 209l89 133q86 136 121 241t44.5 162.5t15 94t9.5 72.5q7 61 7 92q0 12 -1 20h142q4 -34 4 -68t-5 -105t-39.5 -179.5t-86.5 -211.5q-96 -188 -248 -370l-181 -210l-135 -10l-58 368z" />
<glyph unicode="w" horiz-adv-x="1633" d="M118 1140h166l84 -786l21 -237l135 177q211 294 270 560l-42 286h163l86 -786l23 -238l136 174q110 148 154 250q75 175 96 352q3 27 8 64l10 72q7 59 7 91q0 13 -1 21h146l2 -27q1 -13 1 -27q0 -246 -120 -518q-102 -230 -250 -397l-153 -175l-136 -10l-94 621 q-120 -281 -253 -431l-150 -180l-135 -10z" />
<glyph unicode="x" horiz-adv-x="949" d="M-43 3l437 588l-261 549h178l176 -449l316 449h163l-428 -567l283 -570h-174l-202 472l-328 -472h-160z" />
<glyph unicode="y" horiz-adv-x="1048" d="M-200 -472l43 124q7 -3 18 -8.5t27 -11.5q36 -12 86.5 -12t100.5 16t102 54q106 76 228 254h-93l-62 355l-127 841h164l109 -841l43 -301l109 186q143 243 207 438.5t78 382.5q3 54 3 96q0 21 -1 39h147q4 -31 4 -65.5t-3.5 -99.5t-28 -167.5t-61.5 -204.5 q-70 -192 -176 -387q-81 -144 -121 -205l-74 -111q-35 -49 -70 -92l-81 -98q-105 -122 -247 -180q-77 -32 -145 -32q-103 0 -179 30z" />
<glyph unicode="z" horiz-adv-x="963" d="M-21 46l621 792l167 183h-583l17 119h723l36 -41l-648 -828l-142 -152h642l-11 -119h-776z" />
<glyph unicode="{" horiz-adv-x="1024" d="M162 728l14 97q214 58 256 101q18 20 22 42l82 551q18 115 46 144t58 38t69 9q86 0 270 -36q-10 -50 -10 -67h-276l-96 -638q-11 -78 -108 -125l-37 -17q-23 -11 -48 -21l-48 -20q-21 -8 -29 -10q106 -49 146 -80q72 -58 63 -120l-94 -631h275q-1 -5 -2 -15.5t-3 -23.5 t-4 -29q-153 -36 -231.5 -36t-103.5 5t-41 18q-29 25 -27 88q0 4 4 33q45 323 86 594q5 58 -141 117q-45 19 -92 32z" />
<glyph unicode="|" horiz-adv-x="854" d="M375 -186v1966h131v-1966h-131z" />
<glyph unicode="}" horiz-adv-x="1024" d="M93 -128q10 50 10 67h276l96 638q11 78 108 125l37 17q23 11 48 21l48 20q21 8 29 10q-106 49 -146 80q-72 58 -63 120l94 631h-275q1 5 2 15.5t3 23.5t4 29q153 36 231.5 36t103.5 -5t41 -18q29 -25 27 -88q0 -4 -4 -33q-45 -323 -86 -594q-5 -58 141 -117 q45 -19 92 -32l-14 -97q-214 -58 -256 -101q-18 -20 -22 -42l-82 -551q-18 -115 -46 -144t-58 -38t-69 -9q-86 0 -270 36z" />
<glyph unicode="~" horiz-adv-x="1137" d="M140 844q23 68 104 128q91 69 198 69q85 0 183.5 -86.5t160.5 -86.5q129 0 210 130l56 -57q-24 -77 -102 -135q-86 -65 -193 -65q-86 0 -184 87t-160 87q-134 0 -218 -128z" />
<glyph />
<glyph unicode="&#xa1;" horiz-adv-x="621" d="M85 -434l215 1290h120l-163 -1290h-172zM298 1224q0 69 43 103t78.5 34t53.5 -7q52 -18 52 -78q0 -63 -47 -102q-39 -33 -89 -33q-91 0 -91 83z" />
<glyph unicode="&#xa2;" horiz-adv-x="1057" d="M140 424.5q0 80.5 13.5 158t41 152.5t68.5 143.5t95 123.5q117 120 270 146l50 210h116l-50 -203q120 -5 190 -40l-39 -128q-72 57 -173.5 57t-176 -48t-130.5 -130q-123 -179 -123 -418q0 -350 242 -350q85 0 153 41t133 106l50 -82q-86 -109 -224 -157 q-55 -20 -119 -22l-37 -199h-115l39 210q-202 45 -256 275q-18 74 -18 154.5z" />
<glyph unicode="&#xa3;" horiz-adv-x="1368" d="M13 39q0 58 76 108q71 46 132 46q79 64 118 295l44 263h-187l14 100h190l22 129q35 238 161 391q143 174 371 174q138 0 207 -40q27 -16 51 -41l-71 -107q-36 52 -133 73q-35 7 -83 7t-102 -25t-102 -80q-104 -118 -144 -350l-24 -131h329l-13 -100h-333l-20 -112 q-31 -187 -52 -252q-37 -120 -97 -206q37 -10 82.5 -26.5t97.5 -32.5q128 -39 226 -39t157 16.5t97 46.5q72 58 72 166q0 84 -60 152q-17 20 -36 32l119 91q134 -111 134 -272q0 -134 -85 -224q-109 -116 -365 -116q-148 0 -258 31t-167 51.5t-106 35.5q-58 -71 -147 -99 q-29 -9 -55 -9q-60 0 -60 54z" />
<glyph unicode="&#xa4;" horiz-adv-x="1514" d="M227 1149l87 87l191 -193q117 85 265 85t268 -93l187 188l87 -87l-190 -190q84 -113 84 -258.5t-88 -260.5l192 -192l-87 -86l-192 191q-117 -88 -262 -88t-261 82l-191 -191l-87 86l189 190q-93 120 -93 271t92 268zM440 690q0 -140 96 -238t230 -98q136 0 231 98 q95 99 95 238t-95 238q-95 98 -231 98q-134 0 -230 -98t-96 -238z" />
<glyph unicode="&#xa5;" horiz-adv-x="1483" d="M237 382l13 100h418l29 254h-415l13 101h368l-336 693h147l272 -574l49 -118l75 124l393 568h149l-516 -693h377l-13 -101h-427l-30 -254h425l-12 -100h-425l-44 -382h-134l43 382h-419z" />
<glyph unicode="&#xa6;" horiz-adv-x="854" d="M375 -186v894h131v-894h-131zM375 886v894h131v-894h-131z" />
<glyph unicode="&#xa7;" horiz-adv-x="1194" d="M128 -65l43 116q63 -73 233 -107q53 -11 114 -11t129 10.5t121 36.5q120 56 120 174q0 110 -178 194q-58 27 -129.5 55.5t-139 65t-119.5 85.5q-120 110 -120 267.5t186 244.5q-146 121 -146 281q0 153 146 243q137 83 350 83q227 0 352 -105l-48 -116q-58 74 -229 98 q-46 7 -97 7t-109.5 -12.5t-103.5 -37.5q-103 -57 -103 -163q0 -103 90 -174q44 -36 107 -66l139 -66q158 -71 225 -131t98.5 -116.5t31.5 -129.5q0 -171 -142 -285q95 -84 95 -184t-41 -168.5t-115 -115.5q-146 -94 -380 -94q-182 0 -326 83q-37 21 -54 38zM361 818 q0 -100 79 -168q54 -46 229 -126q105 -40 175 -78q90 76 90 193q0 120 -152 212q-54 33 -114 59l-103 47q-42 20 -83 44q-121 -61 -121 -183z" />
<glyph unicode="&#xa8;" horiz-adv-x="809" d="M94 1499q0 83 71 115q20 9 52.5 9t56 -25.5t23.5 -62.5q0 -54 -37 -91q-34 -34 -76 -34t-66 26t-24 63zM515 1499q0 83 71 115q20 9 52.5 9t56 -25.5t23.5 -62.5q0 -54 -37 -91q-34 -34 -76 -34t-66 26t-24 63z" />
<glyph unicode="&#xa9;" horiz-adv-x="2061" d="M196 938q0 352 244 598q156 157 372 217q107 30 224 30q231 0 426 -115q190 -112 302 -302q113 -195 113 -428q0 -229 -114 -428q-108 -189 -301 -304q-194 -116 -426 -116q-349 0 -596 248q-153 155 -214 374q-30 109 -30 226zM306 938q0 -202 98 -378q94 -169 258 -268 q169 -102 349.5 -102t314 59t232 160.5t154 237.5t55.5 265t-25 224t-71.5 178.5t-112.5 152t-147 117.5q-171 102 -375 102q-203 0 -374 -102q-165 -99 -260 -270q-96 -173 -96 -376zM607 932q0 210 123 342q129 139 355 139q123 0 232 -51l-27 -125q-91 55 -193 55 t-161 -27.5t-99 -74.5q-82 -96 -82 -247q0 -169 85 -265q80 -90 217 -90t250 67l36 -95q-112 -93 -311 -93q-193 0 -312 140q-113 132 -113 325z" />
<glyph unicode="&#xaa;" horiz-adv-x="854" d="M104 1037.5q0 66.5 17 131.5t49 124.5t77 111t101 89.5q120 83 260 83q82 0 169 -29l78 21l-146 -826h-128l26 140q-117 -140 -264 -140q-177 0 -224 173q-15 55 -15 121.5zM238 1051q0 -107 26.5 -147t56.5 -55t66.5 -15t67 12.5t59.5 31.5q48 32 99 86l85 495 q-43 39 -114.5 39t-136.5 -40.5t-111 -104.5q-98 -134 -98 -302z" />
<glyph unicode="&#xab;" horiz-adv-x="1878" d="M249 551l16 120l695 415l29 -89l-556 -383l452 -377l-53 -85zM925 551l16 120l695 415l29 -89l-556 -383l452 -377l-53 -85z" />
<glyph unicode="&#xac;" horiz-adv-x="1370" d="M213 718l13 117h960l-60 -513h-134l47 396h-826z" />
<glyph unicode="&#xad;" horiz-adv-x="1706" />
<glyph unicode="&#xae;" horiz-adv-x="2061" d="M196 938q0 352 244 598q156 157 372 217q107 30 224 30q231 0 426 -115q190 -112 302 -302q113 -195 113 -428q0 -229 -114 -428q-108 -189 -301 -304q-194 -116 -426 -116q-349 0 -596 248q-153 155 -214 374q-30 109 -30 226zM306 938q0 -202 98 -378q94 -169 258 -268 q169 -102 349.5 -102t314 59t232 160.5t154 237.5t55.5 265t-25 224t-71.5 178.5t-112.5 152t-147 117.5q-171 102 -375 102q-203 0 -374 -102q-165 -99 -260 -270q-96 -173 -96 -376zM732 467v937h60h24l230 6q173 0 264 -76q84 -70 84 -186q0 -243 -213 -290 q66 -47 129 -172l34 -65q9 -17 18 -32l20 -33q10 -18 24 -40l32 -49l-156 1q-22 30 -39 64l-71 144q-64 136 -146 163l-72 -1h-86v-371h-136zM868 940q24 -3 90 -3h76q219 2 219 194q0 132 -123 165q-46 12 -127.5 12t-134.5 -9v-359z" />
<glyph unicode="&#xaf;" horiz-adv-x="614" d="M46 1434l4 114h510l-5 -114h-509z" />
<glyph unicode="&#xb0;" horiz-adv-x="899" d="M146 1243q0 103 26.5 162.5t70.5 102.5q96 92 238 92q137 0 230 -94q89 -91 89 -222q0 -141 -99 -236q-96 -93 -238 -93q-69 0 -128 25q-118 52 -166 174q-23 57 -23 89zM254 1273q0 -92 59 -157q62 -68 156 -68q47 0 88 17.5t71 48.5q64 66 64 171q0 93 -60 157 q-62 65 -155 65q-96 0 -160 -65q-63 -66 -63 -169z" />
<glyph unicode="&#xb1;" horiz-adv-x="1366" d="M172 30l13 115h869l-13 -115h-869zM243 712l14 121h225l159 -9q1 15 3 40l10 102q3 24 4 39l27 230h136l-26 -230l-30 -180l133 8h256l-14 -121h-256l-130 5q-2 -37 -6 -77q-6 -66 -9 -104l-29 -241h-138l29 241l28 181l-161 -5h-225z" />
<glyph unicode="&#xb2;" horiz-adv-x="1168" d="M177 712l115 66q413 239 536 446q39 65 39 118t-16 86.5t-45 55.5q-60 46 -162 46q-190 0 -335 -152l-54 72q89 122 267 176q67 21 148 21t146 -23.5t110 -61.5q87 -73 87 -158.5t-24.5 -149.5t-67.5 -121.5t-102 -109.5t-127.5 -100.5t-143.5 -94.5l-151 -94l602 25 l-5 -122h-782z" />
<glyph unicode="&#xb3;" horiz-adv-x="1065" d="M132 602l14 84q99 -55 251 -55q134 0 233 55q124 69 124 201q0 112 -110 156q-38 15 -87 15q-7 -2 -33 -8l-113 -28q-27 -7 -37 -10l16 111q165 39 235 84t100.5 89.5t30.5 103.5q0 136 -178 136q-153 0 -303 -100l-35 87q173 121 385 121q142 0 225 -64q75 -57 75 -148 q0 -156 -165 -256q-47 -29 -100 -49q139 0 205 -89q47 -63 47 -148q0 -173 -165 -273q-142 -86 -334 -86q-105 0 -215 39q-37 14 -66 32z" />
<glyph unicode="&#xb4;" horiz-adv-x="559" d="M58 1304l308 400l115 -104q-21 -36 -67 -86l-82 -87q-123 -125 -211 -178z" />
<glyph unicode="&#xb5;" horiz-adv-x="1354" d="M130 -372l188 1266q11 81 -1 97.5t-24 16.5q-48 0 -105 -57l-50 88q46 62 140 97q40 14 78 14t61 -10q61 -28 61 -127q0 -21 -2 -40q-85 -612 -86 -622l-4 -24q-1 -16 -1 -43.5t12 -62.5t39 -59q51 -47 140 -47q80 0 176 63q78 51 131 119l118 843h148l-124 -915 q-4 -22 -4 -41q0 -70 41 -70q56 0 124 82l49 -85q-42 -68 -142 -113q-39 -17 -76 -17t-61 9q-79 29 -79 139v7q-71 -73 -123 -101q-103 -54 -219 -54q-61 0 -103 24q-78 44 -91 95l-70 -472h-141z" />
<glyph unicode="&#xb6;" horiz-adv-x="1364" d="M160 1130.5q0 92.5 29 173.5t95 141q139 126 427 126q101 0 182 -7l118 -9q38 -3 76 -3h240l-8 -80l-170 -25l-154 -1223q-15 -119 -27 -224h-145l178 1446l-166 4h-71l-188 -1450h-147l104 774q-259 6 -344 198q-29 66 -29 158.5z" />
<glyph unicode="&#xb7;" horiz-adv-x="686" d="M242 726.5q0 48.5 24 75.5q43 48 94.5 48t71.5 -26t20 -45q0 -82 -33 -115.5t-79.5 -33.5t-72 24t-25.5 72.5z" />
<glyph unicode="&#xb8;" horiz-adv-x="479" d="M3 -436l20 115q33 -18 88 -18q170 0 170 193q0 108 -16 168l59 4l41 -4q47 -74 47 -179t-21 -159.5t-57 -87.5q-67 -61 -185 -61q-107 0 -146 29z" />
<glyph unicode="&#xb9;" horiz-adv-x="969" d="M258 1464q156 39 339 140q46 26 65 41l56 -17l-138 -992h-142l115 819q-11 -7 -58 -20l-198 -57q-24 -6 -34 -9z" />
<glyph unicode="&#xba;" horiz-adv-x="854" d="M101 1100q0 222 143 364q127 125 290 125q149 0 240 -105q87 -101 87 -265q0 -225 -138 -363q-62 -62 -138 -92.5t-152 -30.5t-135.5 27t-103.5 74q-93 103 -93 266zM241 1113q0 -197 111 -263q35 -21 94 -21t113.5 32t90.5 85q69 102 69 260q0 206 -105 270 q-36 22 -95.5 21.5t-113.5 -35t-91 -89.5q-73 -111 -73 -260z" />
<glyph unicode="&#xbb;" horiz-adv-x="1878" d="M226 241l556 383l-452 377l53 85l583 -399l-16 -120l-695 -415zM902 241l556 383l-452 377l53 85l583 -399l-16 -120l-695 -415z" />
<glyph unicode="&#xbc;" horiz-adv-x="2513" d="M283 1464q156 39 339 140q46 26 65 41l56 -17l-138 -992h-142l115 819q-11 -7 -58 -20l-198 -57q-24 -6 -34 -9zM694 0l681 1530h123l-681 -1530h-123zM1291 246l610 867h38l101 -78l-583 -754l404 12l39 280l155 18l-40 -293l263 8l-15 -134h-265l-47 -348h-156l49 348 h-525z" />
<glyph unicode="&#xbd;" horiz-adv-x="2513" d="M283 1464q156 39 339 140q46 26 65 41l56 -17l-138 -992h-142l115 819q-11 -7 -58 -20l-198 -57q-24 -6 -34 -9zM694 0l681 1530h123l-681 -1530h-123zM1370 18l115 66q413 239 536 446q39 65 39 118t-16 86.5t-45 55.5q-60 46 -162 46q-190 0 -335 -152l-54 72 q89 122 267 176q67 21 148 21t146 -23.5t110 -61.5q87 -73 87 -158.5t-24.5 -149.5t-67.5 -121.5t-102 -109.5t-127.5 -100.5t-143.5 -94.5l-151 -94l602 25l-5 -122h-782z" />
<glyph unicode="&#xbe;" horiz-adv-x="2513" d="M123 602l14 84q99 -55 251 -55q134 0 233 55q124 69 124 201q0 112 -110 156q-38 15 -87 15q-7 -2 -33 -8l-113 -28q-27 -7 -37 -10l16 111q165 39 235 84t100.5 89.5t30.5 103.5q0 136 -178 136q-153 0 -303 -100l-35 87q173 121 385 121q142 0 225 -64q75 -57 75 -148 q0 -156 -165 -256q-47 -29 -100 -49q139 0 205 -89q47 -63 47 -148q0 -173 -165 -273q-142 -86 -334 -86q-105 0 -215 39q-37 14 -66 32zM730 0l681 1530h123l-681 -1530h-123zM1291 246l610 867h38l101 -78l-583 -754l404 12l39 280l155 18l-40 -293l263 8l-15 -134h-265 l-47 -348h-156l49 348h-525z" />
<glyph unicode="&#xbf;" horiz-adv-x="1028" d="M92 98q0 66 24 126t63.5 105.5t90 79.5t103.5 63l103 56q178 93 178 209q0 49 -21 101l-27 68l98 38l14 -1q83 -83 83 -220q0 -126 -168 -233q-54 -35 -110 -64l-99 -54q-161 -90 -181 -170q-12 -38 -12 -114.5t32.5 -142.5t85.5 -107q103 -81 253 -81q116 0 215 39 l-22 -109q-35 -35 -142 -49q-31 -4 -94.5 -4t-138.5 19t-130.5 51.5t-93 76t-61 93.5t-33.5 104t-10 120zM519 1280v22q1 63 33 95.5t78.5 32.5t72 -23.5t25.5 -63.5v-17.5t-8.5 -38t-24.5 -40.5t-38 -27t-60 -10t-58 25.5t-20 44.5z" />
<glyph unicode="&#xc0;" horiz-adv-x="1265" d="M-50 0l745 1530h168l289 -1530h-150l-76 431h-614l-201 -431h-161zM366 546h540l-129 734l-15 115zM510 1903l94 97l273 -349l-56 -50q-129 79 -250 219q-38 44 -61 83z" />
<glyph unicode="&#xc1;" horiz-adv-x="1265" d="M-50 0l745 1530h168l289 -1530h-150l-76 431h-614l-201 -431h-161zM366 546h540l-129 734l-15 115zM741 1654l278 346l95 -97q-42 -71 -115 -139q-119 -111 -201 -161z" />
<glyph unicode="&#xc2;" horiz-adv-x="1265" d="M-50 0l745 1530h168l289 -1530h-150l-76 431h-614l-201 -431h-161zM366 546h540l-129 734l-15 115zM462 1653l340 347h136l205 -348l-73 -53l-219 265l-330 -270z" />
<glyph unicode="&#xc3;" horiz-adv-x="1265" d="M-50 0l745 1530h168l289 -1530h-150l-76 431h-614l-201 -431h-161zM366 546h540l-129 734l-15 115zM435 1798q54 104 186 152q41 14 79 14t65.5 -11t50.5 -27.5t42 -35.5t37 -36q44 -38 79 -38t58.5 12.5t42 31t32.5 39.5l26 38l66 -70q-24 -71 -97 -122 q-74 -52 -152 -52q-67 0 -104 27t-56 46t-38 35q-44 37 -82 38t-61.5 -9.5t-42.5 -26.5t-35 -35l-29 -35z" />
<glyph unicode="&#xc4;" horiz-adv-x="1265" d="M-50 0l745 1530h168l289 -1530h-150l-76 431h-614l-201 -431h-161zM366 546h540l-129 734l-15 115zM502 1813q0 51 37 89q34 33 76 33t65.5 -25.5t23.5 -63.5q0 -51 -37 -90q-34 -35 -75.5 -35t-65.5 26.5t-24 65.5zM921 1808.5q0 34.5 10.5 56t27.5 37.5q35 33 77 33 t65 -25t23 -45t-1 -35t-10.5 -36.5t-25.5 -37.5t-36.5 -25.5t-50.5 -9.5t-54.5 26.5t-24.5 61z" />
<glyph unicode="&#xc5;" horiz-adv-x="1265" d="M-50 0l727 1494q-179 43 -179 234q0 133 112 207q97 65 230 65q192 0 251 -146q19 -46 19 -104t-19 -102t-51 -76q-65 -62 -170 -81l282 -1491h-150l-76 431h-614l-201 -431h-161zM366 546h540l-129 734l-15 115zM605 1723q0 -68 49 -113t129 -45q218 0 218 197 q0 108 -101 143q-32 11 -71.5 11t-79 -9t-71.5 -31q-73 -50 -73 -153z" />
<glyph unicode="&#xc6;" horiz-adv-x="1781" d="M-107 0l806 1436l-298 17l11 77h1305l-6 -120l-614 7l-74 -579l475 6l-9 -127l-479 11l-78 -614l737 13l-11 -127h-890l58 459h-520l-251 -459h-162zM370 575h470l107 845l-111 5z" />
<glyph unicode="&#xc7;" horiz-adv-x="1141" d="M109 657q0 247 90 452q90 204 256 321q165 116 368 116q124 0 220 -30l103 -32l-53 -126l-38 18q-96 44 -216 44t-199.5 -33.5t-142 -91t-107.5 -133.5q-127 -217 -127 -497q0 -388 212 -517q72 -43 153.5 -43t138.5 11t105 28q92 31 142 67l23 -128q-131 -83 -343 -95 q28 -69 28 -158.5t-21 -144t-57 -87.5q-67 -61 -185 -61q-107 0 -146 29l20 115q33 -18 88 -18q170 0 170 193q0 84 -8 130q-244 14 -367 216q-107 177 -107 455z" />
<glyph unicode="&#xc8;" horiz-adv-x="1138" d="M121 0l193 1530h756l-6 -120l-614 7l-73 -579l474 6l-9 -127l-479 11l-78 -614l737 13l-11 -127h-890zM428 1903l94 97l273 -349l-56 -50q-129 79 -250 219q-38 44 -61 83z" />
<glyph unicode="&#xc9;" horiz-adv-x="1138" d="M121 0l193 1530h756l-6 -120l-614 7l-73 -579l474 6l-9 -127l-479 11l-78 -614l737 13l-11 -127h-890zM659 1654l278 346l95 -97q-42 -71 -115 -139q-119 -111 -201 -161z" />
<glyph unicode="&#xca;" horiz-adv-x="1138" d="M121 0l193 1530h756l-6 -120l-614 7l-73 -579l474 6l-9 -127l-479 11l-78 -614l737 13l-11 -127h-890zM380 1653l340 347h136l205 -348l-73 -53l-219 265l-330 -270z" />
<glyph unicode="&#xcb;" horiz-adv-x="1138" d="M121 0l193 1530h756l-6 -120l-614 7l-73 -579l474 6l-9 -127l-479 11l-78 -614l737 13l-11 -127h-890zM419 1813q0 51 37 89q34 33 76 33t65.5 -25.5t23.5 -63.5q0 -51 -37 -90q-34 -35 -75.5 -35t-65.5 26.5t-24 65.5zM838 1808.5q0 34.5 10.5 56t27.5 37.5q35 33 77 33 t65 -25t23 -45t-1 -35t-10.5 -36.5t-25.5 -37.5t-36.5 -25.5t-50.5 -9.5t-54.5 26.5t-24.5 61z" />
<glyph unicode="&#xcc;" horiz-adv-x="572" d="M145 0l193 1530h151l-193 -1530h-151zM146 1903l94 97l273 -349l-56 -50q-129 79 -250 219q-38 44 -61 83z" />
<glyph unicode="&#xcd;" horiz-adv-x="572" d="M145 0l193 1530h151l-193 -1530h-151zM377 1654l278 346l95 -97q-42 -71 -115 -139q-119 -111 -201 -161z" />
<glyph unicode="&#xce;" horiz-adv-x="572" d="M98 1653l340 347h136l205 -348l-73 -53l-219 265l-330 -270zM145 0l193 1530h151l-193 -1530h-151z" />
<glyph unicode="&#xcf;" horiz-adv-x="572" d="M138 1813q0 51 37 89q34 33 76 33t65.5 -25.5t23.5 -63.5q0 -51 -37 -90q-34 -35 -75.5 -35t-65.5 26.5t-24 65.5zM145 0l193 1530h151l-193 -1530h-151zM557 1808.5q0 34.5 10.5 56t27.5 37.5q35 33 77 33t65 -25t23 -45t-1 -35t-10.5 -36.5t-25.5 -37.5t-36.5 -25.5 t-50.5 -9.5t-54.5 26.5t-24.5 61z" />
<glyph unicode="&#xd0;" horiz-adv-x="1376" d="M52 733l12 100h162l88 698h87l321 16q292 0 438 -173q138 -162 138 -471q0 -389 -210 -652q-139 -175 -345 -237q-95 -29 -201 -29q-27 0 -44 1l-62 4q-35 2 -66.5 4.5t-61.5 3.5l-60 2q-29 1 -50 1h-77l92 732h-161zM287 126q158 -26 209.5 -26h61.5q185 4 326 126 q126 107 196 299q62 171 62 374q0 283 -110 411q-107 125 -353 125q-73 0 -140 -8l-90 -11l-74 -583h428l-12 -100h-428z" />
<glyph unicode="&#xd1;" horiz-adv-x="1402" d="M121 0l193 1530h158l491 -1127l72 -207l21 238l134 1096h143l-193 -1530h-149l-494 1122l-72 239l-29 -288l-134 -1073h-141zM498 1798q54 104 186 152q41 14 79 14t65.5 -11t50.5 -27.5t42 -35.5t37 -36q44 -38 79 -38t58.5 12.5t42 31t32.5 39.5l26 38l66 -70 q-24 -71 -97 -122q-74 -52 -152 -52q-67 0 -104 27t-56 46t-38 35q-44 37 -82 38t-61.5 -9.5t-42.5 -26.5t-35 -35l-29 -35z" />
<glyph unicode="&#xd2;" horiz-adv-x="1378" d="M111 644q0 376 196 635q129 171 312 235q92 33 202.5 33t201 -50t150.5 -136q126 -179 126 -467q0 -381 -189 -640q-198 -271 -514 -271q-111 0 -202 48t-153 133q-130 177 -130 480zM268 643q4 -275 97 -409.5t263 -134.5q227 0 375 233q139 220 139 532q0 563 -354 563 q-224 0 -377 -235q-93 -145 -128 -346q-15 -89 -15 -140.5v-62.5zM550 1903l94 97l273 -349l-56 -50q-129 79 -250 219q-38 44 -61 83z" />
<glyph unicode="&#xd3;" horiz-adv-x="1378" d="M111 644q0 376 196 635q129 171 312 235q92 33 202.5 33t201 -50t150.5 -136q126 -179 126 -467q0 -381 -189 -640q-198 -271 -514 -271q-111 0 -202 48t-153 133q-130 177 -130 480zM268 643q4 -275 97 -409.5t263 -134.5q227 0 375 233q139 220 139 532q0 563 -354 563 q-224 0 -377 -235q-93 -145 -128 -346q-15 -89 -15 -140.5v-62.5zM781 1654l278 346l95 -97q-42 -71 -115 -139q-119 -111 -201 -161z" />
<glyph unicode="&#xd4;" horiz-adv-x="1378" d="M111 644q0 376 196 635q129 171 312 235q92 33 202.5 33t201 -50t150.5 -136q126 -179 126 -467q0 -381 -189 -640q-198 -271 -514 -271q-111 0 -202 48t-153 133q-130 177 -130 480zM268 643q4 -275 97 -409.5t263 -134.5q227 0 375 233q139 220 139 532q0 563 -354 563 q-224 0 -377 -235q-93 -145 -128 -346q-15 -89 -15 -140.5v-62.5zM502 1653l340 347h136l205 -348l-73 -53l-219 265l-330 -270z" />
<glyph unicode="&#xd5;" horiz-adv-x="1378" d="M111 644q0 376 196 635q129 171 312 235q92 33 202.5 33t201 -50t150.5 -136q126 -179 126 -467q0 -381 -189 -640q-198 -271 -514 -271q-111 0 -202 48t-153 133q-130 177 -130 480zM268 643q4 -275 97 -409.5t263 -134.5q227 0 375 233q139 220 139 532q0 563 -354 563 q-224 0 -377 -235q-93 -145 -128 -346q-15 -89 -15 -140.5v-62.5zM474 1798q54 104 186 152q41 14 79 14t65.5 -11t50.5 -27.5t42 -35.5t37 -36q44 -38 79 -38t58.5 12.5t42 31t32.5 39.5l26 38l66 -70q-24 -71 -97 -122q-74 -52 -152 -52q-67 0 -104 27t-56 46t-38 35 q-44 37 -82 38t-61.5 -9.5t-42.5 -26.5t-35 -35l-29 -35z" />
<glyph unicode="&#xd6;" horiz-adv-x="1378" d="M111 644q0 376 196 635q129 171 312 235q92 33 202.5 33t201 -50t150.5 -136q126 -179 126 -467q0 -381 -189 -640q-198 -271 -514 -271q-111 0 -202 48t-153 133q-130 177 -130 480zM268 643q4 -275 97 -409.5t263 -134.5q227 0 375 233q139 220 139 532q0 563 -354 563 q-224 0 -377 -235q-93 -145 -128 -346q-15 -89 -15 -140.5v-62.5zM541 1813q0 51 37 89q34 33 76 33t65.5 -25.5t23.5 -63.5q0 -51 -37 -90q-34 -35 -75.5 -35t-65.5 26.5t-24 65.5zM960 1808.5q0 34.5 10.5 56t27.5 37.5q35 33 77 33t65 -25t23 -45t-1 -35t-10.5 -36.5 t-25.5 -37.5t-36.5 -25.5t-50.5 -9.5t-54.5 26.5t-24.5 61z" />
<glyph unicode="&#xd7;" horiz-adv-x="1370" d="M244 423l393 342l-309 339l101 95l293 -358l382 363l79 -94l-393 -346l310 -340l-101 -95l-294 359l-382 -360z" />
<glyph unicode="&#xd8;" horiz-adv-x="1378" d="M55 -83l178 261q-121 176 -121 467q0 376 196 635q129 171 312 236q92 32 193 32q166 0 285 -102l144 213l70 -38l-158 -232q146 -181 146 -494q0 -381 -189 -640q-125 -172 -311 -238q-92 -33 -195 -33q-194 0 -320 130l-160 -236zM269 707q0 -266 59 -403l687 1032 q-84 92 -226 92q-224 0 -377 -236q-93 -144 -128 -345q-15 -89 -15 -140zM372 226q91 -126 257 -126q227 0 375 234q139 219 139 531q0 257 -78 402z" />
<glyph unicode="&#xd9;" horiz-adv-x="1360" d="M153 438q0 45 12 155l119 937h150l-115 -911q-12 -100 -12 -142.5t0.5 -83t20.5 -100.5t59 -101q80 -86 235 -86q188 0 290 121q107 126 144 413l112 890h147l-114 -903q-45 -347 -194 -499q-140 -145 -406 -145q-110 0 -192 30q-256 93 -256 425zM531 1903l94 97 l273 -349l-56 -50q-129 79 -250 219q-38 44 -61 83z" />
<glyph unicode="&#xda;" horiz-adv-x="1360" d="M153 438q0 45 12 155l119 937h150l-115 -911q-12 -100 -12 -142.5t0.5 -83t20.5 -100.5t59 -101q80 -86 235 -86q188 0 290 121q107 126 144 413l112 890h147l-114 -903q-45 -347 -194 -499q-140 -145 -406 -145q-110 0 -192 30q-256 93 -256 425zM762 1654l278 346 l95 -97q-42 -71 -115 -139q-119 -111 -201 -161z" />
<glyph unicode="&#xdb;" horiz-adv-x="1360" d="M153 438q0 45 12 155l119 937h150l-115 -911q-12 -100 -12 -142.5t0.5 -83t20.5 -100.5t59 -101q80 -86 235 -86q188 0 290 121q107 126 144 413l112 890h147l-114 -903q-45 -347 -194 -499q-140 -145 -406 -145q-110 0 -192 30q-256 93 -256 425zM483 1653l340 347h136 l205 -348l-73 -53l-219 265l-330 -270z" />
<glyph unicode="&#xdc;" horiz-adv-x="1360" d="M153 438q0 45 12 155l119 937h150l-115 -911q-12 -100 -12 -142.5t0.5 -83t20.5 -100.5t59 -101q80 -86 235 -86q188 0 290 121q107 126 144 413l112 890h147l-114 -903q-45 -347 -194 -499q-140 -145 -406 -145q-110 0 -192 30q-256 93 -256 425zM522 1813q0 51 37 89 q34 33 76 33t65.5 -25.5t23.5 -63.5q0 -51 -37 -90q-34 -35 -75.5 -35t-65.5 26.5t-24 65.5zM941 1808.5q0 34.5 10.5 56t27.5 37.5q35 33 77 33t65 -25t23 -45t-1 -35t-10.5 -36.5t-25.5 -37.5t-36.5 -25.5t-50.5 -9.5t-54.5 26.5t-24.5 61z" />
<glyph unicode="&#xdd;" horiz-adv-x="1083" d="M105 1530h161l261 -710l41 -103l55 102l428 711h162l-592 -945l-75 -585h-144l76 585zM629 1654l278 346l95 -97q-42 -71 -115 -139q-119 -111 -201 -161z" />
<glyph unicode="&#xde;" horiz-adv-x="1195" d="M121 0l193 1530h150l-33 -264q206 15 245 15q446 0 450 -394v-12q0 -267 -168 -428q-169 -161 -438 -161q-128 0 -212 11l-37 -297h-150zM324 419q75 -15 189.5 -14.5t199.5 32.5t143 92q118 124 118 352q0 286 -322 286q-96 0 -236 -20z" />
<glyph unicode="&#xdf;" horiz-adv-x="1180" d="M85 3l117 926q35 274 137 437q118 190 328 215q58 7 119 7t118 -18.5t98 -55.5q86 -76 86 -213q0 -156 -133 -289l-64 -65q-69 -71 -69 -123q0 -36 29 -74t51.5 -64t44.5 -56t44.5 -64t40.5 -74q41 -89 41 -173.5t-27.5 -144t-78.5 -102.5q-106 -88 -288 -88 q-107 0 -207 34q-27 10 -43 19l20 144q54 -50 147 -72q33 -8 82.5 -8t96 10.5t77.5 34.5q64 48 64 155q0 110 -97 249q-96 113 -118.5 168.5t-22.5 86.5t7 56.5t19 47.5t28 41l36 41q85 88 113 133q53 86 53 172q0 124 -106 168q-38 16 -87 16t-91 -9.5t-80 -34.5t-72 -67.5 t-63 -108.5q-59 -136 -92 -376l-110 -881h-148z" />
<glyph unicode="&#xe0;" horiz-adv-x="1130" d="M81 415q0 270 151 488q109 156 282 220q90 33 193 33t221 -37l113 37l-157 -1156h-131l19 202v3q-100 -145 -256 -201q-55 -20 -126.5 -20t-131.5 31t-100 88q-77 112 -77 312zM235 433q0 -333 189 -333q112 0 224 97q86 74 143 175l20 185l64 451q-85 38 -172.5 38 t-151 -26.5t-114 -72t-88.5 -106t-63 -128.5q-51 -135 -51 -280zM355 1597l115 104l294 -397l-65 -55q-48 32 -100 80q-151 143 -190.5 193t-53.5 75z" />
<glyph unicode="&#xe1;" horiz-adv-x="1130" d="M81 415q0 270 151 488q109 156 282 220q90 33 193 33t221 -37l113 37l-157 -1156h-131l19 202v3q-100 -145 -256 -201q-55 -20 -126.5 -20t-131.5 31t-100 88q-77 112 -77 312zM235 433q0 -333 189 -333q112 0 224 97q86 74 143 175l20 185l64 451q-85 38 -172.5 38 t-151 -26.5t-114 -72t-88.5 -106t-63 -128.5q-51 -135 -51 -280zM617 1304l308 400l115 -104q-21 -36 -67 -86l-82 -87q-123 -125 -211 -178z" />
<glyph unicode="&#xe2;" horiz-adv-x="1130" d="M81 415q0 270 151 488q109 156 282 220q90 33 193 33t221 -37l113 37l-157 -1156h-131l19 202v3q-100 -145 -256 -201q-55 -20 -126.5 -20t-131.5 31t-100 88q-77 112 -77 312zM235 433q0 -333 189 -333q112 0 224 97q86 74 143 175l20 185l64 451q-85 38 -172.5 38 t-151 -26.5t-114 -72t-88.5 -106t-63 -128.5q-51 -135 -51 -280zM357 1274l343 376h137l203 -377l-73 -53l-218 294l-333 -299z" />
<glyph unicode="&#xe3;" horiz-adv-x="1130" d="M81 415q0 270 151 488q109 156 282 220q90 33 193 33t221 -37l113 37l-157 -1156h-131l19 202v3q-100 -145 -256 -201q-55 -20 -126.5 -20t-131.5 31t-100 88q-77 112 -77 312zM235 433q0 -333 189 -333q112 0 224 97q86 74 143 175l20 185l64 451q-85 38 -172.5 38 t-151 -26.5t-114 -72t-88.5 -106t-63 -128.5q-51 -135 -51 -280zM337 1481q54 104 184 151q40 15 87 15t83.5 -22.5t66 -49.5t57.5 -49.5t61.5 -22.5t57 12t42 29.5t32.5 37.5l27 38l66 -70q-24 -69 -97 -120q-75 -51 -153 -51q-66 0 -103.5 26.5t-56.5 45t-39 35.5 q-112 95 -218 -35l-29 -35z" />
<glyph unicode="&#xe4;" horiz-adv-x="1130" d="M81 415q0 270 151 488q109 156 282 220q90 33 193 33t221 -37l113 37l-157 -1156h-131l19 202v3q-100 -145 -256 -201q-55 -20 -126.5 -20t-131.5 31t-100 88q-77 112 -77 312zM235 433q0 -333 189 -333q112 0 224 97q86 74 143 175l20 185l64 451q-85 38 -172.5 38 t-151 -26.5t-114 -72t-88.5 -106t-63 -128.5q-51 -135 -51 -280zM421 1499q0 83 71 115q20 9 52.5 9t56 -25.5t23.5 -62.5q0 -54 -37 -91q-34 -34 -76 -34t-66 26t-24 63zM842 1499q0 83 71 115q20 9 52.5 9t56 -25.5t23.5 -62.5q0 -54 -37 -91q-34 -34 -76 -34t-66 26 t-24 63z" />
<glyph unicode="&#xe5;" horiz-adv-x="1130" d="M81 415q0 270 151 488q109 156 282 220q90 33 193 33t221 -37l113 37l-157 -1156h-131l19 202v3q-100 -145 -256 -201q-55 -20 -126.5 -20t-131.5 31t-100 88q-77 112 -77 312zM235 433q0 -333 189 -333q112 0 224 97q86 74 143 175l20 185l64 451q-85 38 -172.5 38 t-151 -26.5t-114 -72t-88.5 -106t-63 -128.5q-51 -135 -51 -280zM456 1505q0 131 111 209q97 67 231 67q192 0 251 -145q19 -46 19 -110.5t-27.5 -116t-73.5 -85.5q-93 -66 -229.5 -66t-209 65t-72.5 182zM563 1511q0 -45 13 -74t36 -50.5t56 -33.5t74 -12t80.5 9.5 t69.5 33.5q67 52 67 160q0 69 -46.5 111t-126.5 42q-147 0 -203 -103q-20 -38 -20 -83z" />
<glyph unicode="&#xe6;" horiz-adv-x="1624" d="M81 415q0 270 151 488q109 156 282 220q90 33 221.5 33t262.5 -78q123 78 275 78q205 0 262 -152q17 -45 17 -113t-36.5 -133.5t-96.5 -116t-136.5 -86.5t-155.5 -60q-147 -45 -287 -52q-1 -15 -1 -44t8 -82t35 -103q63 -112 207 -112q181 0 348 171l43 -87 q-50 -71 -153 -130q-124 -72 -255 -72q-222 0 -323 171q-30 51 -46 110q-146 -281 -345 -281q-277 0 -277 431zM235 433q0 -333 156 -333q140 0 293 282q-12 183 58 368q52 140 149 241q-97 55 -186.5 55t-153 -26.5t-114 -72t-88.5 -106t-63 -128.5q-51 -135 -51 -280z M845 550q194 7 363 96q195 101 195 249t-160.5 148t-271 -153.5t-126.5 -339.5z" />
<glyph unicode="&#xe7;" horiz-adv-x="911" d="M89 433q0 264 145 479q101 151 256 212q79 32 140 32t90.5 -2.5t58.5 -7.5q67 -12 104 -31l-39 -128q-72 57 -173.5 57t-176 -48t-130.5 -130q-123 -179 -123 -418q0 -350 242 -350q85 0 153 41t133 106l50 -82q-74 -96 -195 -147q-48 -20 -104 -28q29 -66 29 -158 t-21 -146.5t-57 -87.5q-67 -61 -185 -61q-107 0 -146 29l20 115q33 -18 88 -18q170 0 170 193q0 81 -9 133q-155 18 -239 135q-81 115 -81 311z" />
<glyph unicode="&#xe8;" horiz-adv-x="1031" d="M89 425q0 153 46.5 289.5t123.5 233.5q168 208 420 208q205 0 262 -152q17 -45 17 -113t-36.5 -133.5t-96.5 -116t-136.5 -86.5t-155.5 -60q-147 -45 -287 -52q-1 -15 -1 -44.5t7.5 -82t35.5 -102.5q64 -112 207 -112q180 0 348 170l43 -86q-50 -71 -153 -130 q-124 -72 -243.5 -72t-194.5 40q-206 109 -206 401zM251 550q194 7 364 96q194 101 194 249t-160 148t-271 -154.5t-127 -338.5zM287 1597l115 104l294 -397l-65 -55q-48 32 -100 80q-151 143 -190.5 193t-53.5 75z" />
<glyph unicode="&#xe9;" horiz-adv-x="1031" d="M89 425q0 153 46.5 289.5t123.5 233.5q168 208 420 208q205 0 262 -152q17 -45 17 -113t-36.5 -133.5t-96.5 -116t-136.5 -86.5t-155.5 -60q-147 -45 -287 -52q-1 -15 -1 -44.5t7.5 -82t35.5 -102.5q64 -112 207 -112q180 0 348 170l43 -86q-50 -71 -153 -130 q-124 -72 -243.5 -72t-194.5 40q-206 109 -206 401zM251 550q194 7 364 96q194 101 194 249t-160 148t-271 -154.5t-127 -338.5zM549 1304l308 400l115 -104q-21 -36 -67 -86l-82 -87q-123 -125 -211 -178z" />
<glyph unicode="&#xea;" horiz-adv-x="1031" d="M89 425q0 153 46.5 289.5t123.5 233.5q168 208 420 208q205 0 262 -152q17 -45 17 -113t-36.5 -133.5t-96.5 -116t-136.5 -86.5t-155.5 -60q-147 -45 -287 -52q-1 -15 -1 -44.5t7.5 -82t35.5 -102.5q64 -112 207 -112q180 0 348 170l43 -86q-50 -71 -153 -130 q-124 -72 -243.5 -72t-194.5 40q-206 109 -206 401zM251 550q194 7 364 96q194 101 194 249t-160 148t-271 -154.5t-127 -338.5zM290 1274l343 376h137l203 -377l-73 -53l-218 294l-333 -299z" />
<glyph unicode="&#xeb;" horiz-adv-x="1031" d="M89 425q0 153 46.5 289.5t123.5 233.5q168 208 420 208q205 0 262 -152q17 -45 17 -113t-36.5 -133.5t-96.5 -116t-136.5 -86.5t-155.5 -60q-147 -45 -287 -52q-1 -15 -1 -44.5t7.5 -82t35.5 -102.5q64 -112 207 -112q180 0 348 170l43 -86q-50 -71 -153 -130 q-124 -72 -243.5 -72t-194.5 40q-206 109 -206 401zM251 550q194 7 364 96q194 101 194 249t-160 148t-271 -154.5t-127 -338.5zM354 1499q0 83 71 115q20 9 52.5 9t56 -25.5t23.5 -62.5q0 -54 -37 -91q-34 -34 -76 -34t-66 26t-24 63zM775 1499q0 83 71 115q20 9 52.5 9 t56 -25.5t23.5 -62.5q0 -54 -37 -91q-34 -34 -76 -34t-66 26t-24 63z" />
<glyph unicode="&#xec;" horiz-adv-x="564" d="M39 1597l115 104l294 -397l-65 -55q-48 32 -100 80q-151 143 -190.5 193t-53.5 75zM133 0l154 1144h149l-155 -1144h-148z" />
<glyph unicode="&#xed;" horiz-adv-x="564" d="M133 0l154 1144h149l-155 -1144h-148zM300 1304l308 400l115 -104q-21 -36 -67 -86l-82 -87q-123 -125 -211 -178z" />
<glyph unicode="&#xee;" horiz-adv-x="564" d="M41 1274l343 376h137l203 -377l-73 -53l-218 294l-333 -299zM133 0l154 1144h149l-155 -1144h-148z" />
<glyph unicode="&#xef;" horiz-adv-x="564" d="M104 1499q0 83 71 115q20 9 52.5 9t56 -25.5t23.5 -62.5q0 -54 -37 -91q-34 -34 -76 -34t-66 26t-24 63zM133 0l154 1144h149l-155 -1144h-148zM525 1499q0 83 71 115q20 9 52.5 9t56 -25.5t23.5 -62.5q0 -54 -37 -91q-34 -34 -76 -34t-66 26t-24 63z" />
<glyph unicode="&#xf0;" horiz-adv-x="1162" d="M89 432.5q0 173.5 47 307t124.5 226t177.5 141t207 48.5q139 0 228 -63q30 -22 48 -51q-22 147 -65 225q-69 126 -176 221l-160 -179l-82 68l163 172q-146 104 -253 129l34 92q133 -33 291 -137l158 184l76 -69l-152 -175l7 -6q303 -282 303 -698q0 -374 -147 -622 q-100 -166 -256 -230q-79 -33 -177 -33t-173 41t-124 106q-99 129 -99 302.5zM249 455.5q0 -92.5 17 -154t50 -109.5q73 -104 194 -104q142 0 250 154q103 148 134 373q3 29 7 61q12 101 12 128.5t-1.5 41t-18.5 49t-50 69.5q-81 83 -188.5 83t-180 -52t-123 -138 t-76.5 -197.5t-26 -204z" />
<glyph unicode="&#xf1;" horiz-adv-x="1194" d="M93 3l154 1137h141l-29 -265q149 190 341 258q65 23 130 23q123 0 176.5 -70t53.5 -209v-17t-3.5 -54t-9.5 -85.5t-13 -99.5l-16 -108q-6 -44 -16 -111l-61 -399h-149q9 73 20 141.5t18 117.5t14 95l14 86l26 173q25 171 25 250t-30.5 115.5t-95 36.5t-123 -25.5 t-116.5 -68.5q-121 -87 -206 -208l-97 -713h-148zM293 1481q54 104 184 151q40 15 87 15t83.5 -22.5t66 -49.5t57.5 -49.5t61.5 -22.5t57 12t42 29.5t32.5 37.5l27 38l66 -70q-24 -69 -97 -120q-75 -51 -153 -51q-66 0 -103.5 26.5t-56.5 45t-39 35.5q-112 95 -218 -35 l-29 -35z" />
<glyph unicode="&#xf2;" horiz-adv-x="1135" d="M97 462q0 269 153 474q103 138 251 192q74 28 162.5 28t158 -31t115.5 -90q97 -123 97 -349q0 -276 -150 -481q-162 -221 -404 -221q-93 0 -164 31q-219 96 -219 447zM251 459q0 -362 253 -362q176 0 283 197q91 171 91 387q0 363 -244 363q-179 0 -289 -198 q-94 -172 -94 -387zM309 1597l115 104l294 -397l-65 -55q-48 32 -100 80q-151 143 -190.5 193t-53.5 75z" />
<glyph unicode="&#xf3;" horiz-adv-x="1135" d="M97 462q0 269 153 474q103 138 251 192q74 28 162.5 28t158 -31t115.5 -90q97 -123 97 -349q0 -276 -150 -481q-162 -221 -404 -221q-93 0 -164 31q-219 96 -219 447zM251 459q0 -362 253 -362q176 0 283 197q91 171 91 387q0 363 -244 363q-179 0 -289 -198 q-94 -172 -94 -387zM571 1304l308 400l115 -104q-21 -36 -67 -86l-82 -87q-123 -125 -211 -178z" />
<glyph unicode="&#xf4;" horiz-adv-x="1135" d="M97 462q0 269 153 474q103 138 251 192q74 28 162.5 28t158 -31t115.5 -90q97 -123 97 -349q0 -276 -150 -481q-162 -221 -404 -221q-93 0 -164 31q-219 96 -219 447zM251 459q0 -362 253 -362q176 0 283 197q91 171 91 387q0 363 -244 363q-179 0 -289 -198 q-94 -172 -94 -387zM311 1274l343 376h137l203 -377l-73 -53l-218 294l-333 -299z" />
<glyph unicode="&#xf5;" horiz-adv-x="1135" d="M97 462q0 269 153 474q103 138 251 192q74 28 162.5 28t158 -31t115.5 -90q97 -123 97 -349q0 -276 -150 -481q-162 -221 -404 -221q-93 0 -164 31q-219 96 -219 447zM251 459q0 -362 253 -362q176 0 283 197q91 171 91 387q0 363 -244 363q-179 0 -289 -198 q-94 -172 -94 -387zM290 1481q54 104 184 151q40 15 87 15t83.5 -22.5t66 -49.5t57.5 -49.5t61.5 -22.5t57 12t42 29.5t32.5 37.5l27 38l66 -70q-24 -69 -97 -120q-75 -51 -153 -51q-66 0 -103.5 26.5t-56.5 45t-39 35.5q-112 95 -218 -35l-29 -35z" />
<glyph unicode="&#xf6;" horiz-adv-x="1135" d="M97 462q0 269 153 474q103 138 251 192q74 28 162.5 28t158 -31t115.5 -90q97 -123 97 -349q0 -276 -150 -481q-162 -221 -404 -221q-93 0 -164 31q-219 96 -219 447zM251 459q0 -362 253 -362q176 0 283 197q91 171 91 387q0 363 -244 363q-179 0 -289 -198 q-94 -172 -94 -387zM375 1499q0 83 71 115q20 9 52.5 9t56 -25.5t23.5 -62.5q0 -54 -37 -91q-34 -34 -76 -34t-66 26t-24 63zM796 1499q0 83 71 115q20 9 52.5 9t56 -25.5t23.5 -62.5q0 -54 -37 -91q-34 -34 -76 -34t-66 26t-24 63z" />
<glyph unicode="&#xf7;" horiz-adv-x="1338" d="M243 714l14 122h869l-14 -122h-869zM529 363q0 62 49 101q40 33 86 33q90 0 90 -82q0 -65 -48 -107q-37 -31 -71.5 -31t-52.5 7q-53 19 -53 79zM623.5 1141.5q4.5 37.5 17.5 59t32 37.5q40 32 86 32q91 0 91 -82q0 -66 -48 -106q-38 -32 -72 -32t-52 6.5t-31 19.5 q-28 28 -23.5 65.5z" />
<glyph unicode="&#xf8;" horiz-adv-x="1134" d="M47 -88l142 206q-91 122 -91 346q0 269 153 474q103 138 251 192q74 28 171 28t183 -48l131 188l69 -38l-138 -199q117 -123 117 -373q0 -276 -150 -481q-162 -221 -404 -221q-142 0 -237 74l-128 -186zM252 461q0 -129 34 -214l488 756q-55 43 -128.5 43t-127 -25.5 t-96.5 -69.5t-76 -103q-94 -172 -94 -387zM330 172q64 -73 175 -73q176 0 283 197q91 171 91 387q0 167 -52 257z" />
<glyph unicode="&#xf9;" horiz-adv-x="1173" d="M113 238q0 50 2 80t6 65q18 154 26 216l77 541h149l-73 -528q-7 -46 -14 -100q-21 -162 -21 -224t10.5 -94t30.5 -50q35 -33 99.5 -33t120 26t109.5 69q111 87 191 209l95 725h149l-152 -1140h-138l29 262q-136 -191 -317 -258q-61 -23 -124 -23q-194 0 -239 153 q-16 54 -16 104zM312 1597l115 104l294 -397l-65 -55q-48 32 -100 80q-151 143 -190.5 193t-53.5 75z" />
<glyph unicode="&#xfa;" horiz-adv-x="1173" d="M113 238q0 50 2 80t6 65q18 154 26 216l77 541h149l-73 -528q-7 -46 -14 -100q-21 -162 -21 -224t10.5 -94t30.5 -50q35 -33 99.5 -33t120 26t109.5 69q111 87 191 209l95 725h149l-152 -1140h-138l29 262q-136 -191 -317 -258q-61 -23 -124 -23q-194 0 -239 153 q-16 54 -16 104zM574 1304l308 400l115 -104q-21 -36 -67 -86l-82 -87q-123 -125 -211 -178z" />
<glyph unicode="&#xfb;" horiz-adv-x="1173" d="M113 238q0 50 2 80t6 65q18 154 26 216l77 541h149l-73 -528q-7 -46 -14 -100q-21 -162 -21 -224t10.5 -94t30.5 -50q35 -33 99.5 -33t120 26t109.5 69q111 87 191 209l95 725h149l-152 -1140h-138l29 262q-136 -191 -317 -258q-61 -23 -124 -23q-194 0 -239 153 q-16 54 -16 104zM314 1274l343 376h137l203 -377l-73 -53l-218 294l-333 -299z" />
<glyph unicode="&#xfc;" horiz-adv-x="1173" d="M113 238q0 50 2 80t6 65q18 154 26 216l77 541h149l-73 -528q-7 -46 -14 -100q-21 -162 -21 -224t10.5 -94t30.5 -50q35 -33 99.5 -33t120 26t109.5 69q111 87 191 209l95 725h149l-152 -1140h-138l29 262q-136 -191 -317 -258q-61 -23 -124 -23q-194 0 -239 153 q-16 54 -16 104zM378 1499q0 83 71 115q20 9 52.5 9t56 -25.5t23.5 -62.5q0 -54 -37 -91q-34 -34 -76 -34t-66 26t-24 63zM799 1499q0 83 71 115q20 9 52.5 9t56 -25.5t23.5 -62.5q0 -54 -37 -91q-34 -34 -76 -34t-66 26t-24 63z" />
<glyph unicode="&#xfd;" horiz-adv-x="1048" d="M-200 -472l43 124q7 -3 18 -8.5t27 -11.5q36 -12 86.5 -12t100.5 16t102 54q106 76 228 254h-93l-62 355l-127 841h164l109 -841l43 -301l109 186q143 243 207 438.5t78 382.5q4 81 2 135h147q4 -31 4 -65.5t-3.5 -99.5t-28 -167.5t-61.5 -204.5q-70 -192 -176 -387 q-81 -144 -121 -205l-74 -111q-35 -49 -70 -92l-81 -98q-105 -122 -247 -180q-77 -32 -145 -32q-103 0 -179 30zM470 1304l308 400l115 -104q-21 -36 -67 -86l-82 -87q-123 -125 -211 -178z" />
<glyph unicode="&#xfe;" horiz-adv-x="1159" d="M20 -516l75 518l218 1635h141l-58 -490l-35 -208q102 143 261 197q57 20 129 20t132 -31.5t99 -88.5q78 -112 78 -313q0 -268 -156 -487q-109 -155 -285 -219q-90 -33 -183 -33t-194 24l-77 -524h-145zM259 129q80 -35 171 -35t155.5 27.5t116 74t90 108t64.5 129.5 q50 135 50 273q0 334 -190 334q-110 0 -222 -90q-85 -68 -147 -166z" />
<glyph unicode="&#xff;" horiz-adv-x="1048" d="M-200 -472l43 124q7 -3 18 -8.5t27 -11.5q36 -12 86.5 -12t100.5 16t102 54q106 76 228 254h-93l-62 355l-127 841h164l109 -841l43 -301l109 186q143 243 207 438.5t78 382.5q4 81 2 135h147q4 -31 4 -65.5t-3.5 -99.5t-28 -167.5t-61.5 -204.5q-70 -192 -176 -387 q-81 -144 -121 -205l-74 -111q-35 -49 -70 -92l-81 -98q-105 -122 -247 -180q-77 -32 -145 -32q-103 0 -179 30zM275 1499q0 83 71 115q20 9 52.5 9t56 -25.5t23.5 -62.5q0 -54 -37 -91q-34 -34 -76 -34t-66 26t-24 63zM696 1499q0 83 71 115q20 9 52.5 9t56 -25.5 t23.5 -62.5q0 -54 -37 -91q-34 -34 -76 -34t-66 26t-24 63z" />
<glyph unicode="&#x152;" horiz-adv-x="2125" d="M111 643q0 240 88 448q90 210 252 331q165 125 366 125q253 0 378 -218q39 -67 62 -148l44 349h756l-6 -120l-614 7l-73 -579l474 6l-9 -127l-479 11l-78 -614l737 13l-11 -127h-890l39 309q-196 -326 -555 -326q-103 0 -195 48t-154 133q-132 178 -132 479zM268 659 q0 -285 95 -422.5t270 -137.5q152 0 274 109q180 160 232 472q14 90 14 185q0 562 -360 562q-116 0 -214 -63q-197 -129 -275 -422q-36 -135 -36 -283z" />
<glyph unicode="&#x153;" horiz-adv-x="1767" d="M97 461q0 267 153 473q102 138 251 194q74 28 158 28q247 0 337 -207q166 207 419 207q206 0 263 -152q17 -45 17 -113t-37 -133.5t-96.5 -116t-136 -86.5t-155.5 -60q-147 -45 -287 -52q-1 -15 -1 -44.5t7.5 -82t35.5 -102.5q62 -112 206 -112q179 0 349 170l42 -86 q-50 -71 -153 -130q-124 -72 -255 -72q-243 0 -338 199q-162 -199 -388 -199q-187 0 -289 120q-102 122 -102 357zM251 457q0 -361 260 -361q160 0 262 180q31 53 52 113q-7 172 51 338l-3 47q-29 269 -238 269q-120 0 -214 -96q-127 -128 -161 -365q-9 -65 -9 -125z M987 550q194 7 364 96q194 101 194 249t-161 148t-271 -155.5t-126 -337.5z" />
<glyph unicode="&#x178;" horiz-adv-x="1083" d="M105 1530h161l261 -710l41 -103l55 102l428 711h162l-592 -945l-75 -585h-144l76 585zM390 1813q0 51 37 89q34 33 76 33t65.5 -25.5t23.5 -63.5q0 -51 -37 -90q-34 -35 -75.5 -35t-65.5 26.5t-24 65.5zM809 1808.5q0 34.5 10.5 56t27.5 37.5q35 33 77 33t65 -25t23 -45 t-1 -35t-10.5 -36.5t-25.5 -37.5t-36.5 -25.5t-50.5 -9.5t-54.5 26.5t-24.5 61z" />
<glyph unicode="&#x2c6;" horiz-adv-x="795" d="M57 1274l343 376h137l203 -377l-73 -53l-218 294l-333 -299z" />
<glyph unicode="&#x2dc;" horiz-adv-x="815" d="M9 1481q54 104 184 151q40 15 87 15t83.5 -22.5t66 -49.5t57.5 -49.5t61.5 -22.5t57 12t42 29.5t32.5 37.5l27 38l66 -70q-24 -69 -97 -120q-75 -51 -153 -51q-66 0 -103.5 26.5t-56.5 45t-39 35.5q-112 95 -218 -35l-29 -35z" />
<glyph unicode="&#x2000;" horiz-adv-x="1000" />
<glyph unicode="&#x2001;" horiz-adv-x="2000" />
<glyph unicode="&#x2002;" horiz-adv-x="1000" />
<glyph unicode="&#x2003;" horiz-adv-x="2000" />
<glyph unicode="&#x2004;" horiz-adv-x="666" />
<glyph unicode="&#x2005;" horiz-adv-x="500" />
<glyph unicode="&#x2006;" horiz-adv-x="333" />
<glyph unicode="&#x2007;" horiz-adv-x="333" />
<glyph unicode="&#x2008;" horiz-adv-x="250" />
<glyph unicode="&#x2009;" horiz-adv-x="400" />
<glyph unicode="&#x200a;" horiz-adv-x="111" />
<glyph unicode="&#x2010;" horiz-adv-x="1266" d="M220 712l14 121h837l-14 -121h-837z" />
<glyph unicode="&#x2011;" horiz-adv-x="1266" d="M220 712l14 121h837l-14 -121h-837z" />
<glyph unicode="&#x2012;" horiz-adv-x="1266" d="M220 712l14 121h837l-14 -121h-837z" />
<glyph unicode="&#x2013;" horiz-adv-x="1535" d="M220 712l23 121h1097l-23 -121h-1097z" />
<glyph unicode="&#x2014;" horiz-adv-x="2028" d="M220 712l22 121h1591l-23 -121h-1590z" />
<glyph unicode="&#x2018;" horiz-adv-x="651" d="M192 1241.5q0 105.5 30.5 188t77.5 143.5q80 106 202 167l58 -85l-2 -16q-124 -66 -180 -234q-21 -61 -21 -113t6 -84t19 -62q27 -65 77 -102l-4 -31l-93 -87q-65 24 -117 116q-53 94 -53 199.5z" />
<glyph unicode="&#x2019;" horiz-adv-x="667" d="M278 1002l2 16q124 66 180 234q21 61 21 113t-6 84t-19 62q-27 65 -77 102l4 31l93 87q65 -24 117 -116q53 -94 53 -199.5t-30.5 -188t-77.5 -143.5q-80 -106 -202 -167z" />
<glyph unicode="&#x201a;" horiz-adv-x="638" d="M138 -437l2 16q124 66 180 234q21 61 21 113t-6 84t-19 62q-27 65 -77 102l4 31l93 87q65 -24 117 -116q53 -94 53 -199.5t-30.5 -188t-77.5 -143.5q-80 -106 -202 -167z" />
<glyph unicode="&#x201c;" horiz-adv-x="1130" d="M192 1241.5q0 105.5 30.5 188t77.5 143.5q80 106 202 167l58 -85l-2 -16q-124 -66 -180 -234q-21 -61 -21 -113t6 -84t19 -62q27 -65 77 -102l-4 -31l-93 -87q-65 24 -117 116q-53 94 -53 199.5zM671 1241.5q0 105.5 30.5 188t77.5 143.5q80 106 202 167l58 -85l-2 -16 q-124 -66 -180 -234q-21 -61 -21 -113t6 -84t19 -62q27 -65 77 -102l-4 -31l-93 -87q-65 24 -117 116q-53 94 -53 199.5z" />
<glyph unicode="&#x201d;" horiz-adv-x="1128" d="M311 1002l2 16q124 66 180 234q21 61 21 113t-6 84t-19 62q-27 65 -77 102l4 31l93 87q65 -24 117 -116q53 -94 53 -199.5t-30.5 -188t-77.5 -143.5q-80 -106 -202 -167zM790 1002l2 16q124 66 180 234q21 61 21 113t-6 84t-19 62q-27 65 -77 102l4 31l93 87 q65 -24 117 -116q53 -94 53 -199.5t-30.5 -188t-77.5 -143.5q-80 -106 -202 -167z" />
<glyph unicode="&#x201e;" horiz-adv-x="1117" d="M138 -437l2 16q124 66 180 234q21 61 21 113t-6 84t-19 62q-27 65 -77 102l4 31l93 87q65 -24 117 -116q53 -94 53 -199.5t-30.5 -188t-77.5 -143.5q-80 -106 -202 -167zM617 -437l2 16q124 66 180 234q21 61 21 113t-6 84t-19 62q-27 65 -77 102l4 31l93 87 q65 -24 117 -116q53 -94 53 -199.5t-30.5 -188t-77.5 -143.5q-80 -106 -202 -167z" />
<glyph unicode="&#x2022;" horiz-adv-x="858" d="M282 682q0 46 15 81t41 63q59 65 139 65q91 0 125 -79q11 -25 11 -57t-13.5 -67.5t-39 -64.5t-61.5 -47.5t-72.5 -18.5t-61.5 10.5t-43 28.5q-40 40 -40 86z" />
<glyph unicode="&#x2026;" horiz-adv-x="1509" d="M105 51q0 79 39.5 115.5t83.5 36.5q91 0 91 -82q0 -67 -47 -107q-36 -31 -80 -31t-65.5 22.5t-21.5 45.5zM608 51q0 79 39.5 115.5t83.5 36.5q91 0 91 -82q0 -68 -42 -103t-86 -35t-65 22.5t-21 45.5zM1110 51q0 78 39.5 115t84.5 37q90 0 90 -82q0 -69 -41.5 -103.5 t-85.5 -34.5t-65.5 22.5t-21.5 45.5z" />
<glyph unicode="&#x202f;" horiz-adv-x="400" />
<glyph unicode="&#x2039;" horiz-adv-x="1190" d="M237 551l16 120l695 415l29 -89l-556 -383l452 -377l-53 -85z" />
<glyph unicode="&#x203a;" horiz-adv-x="1190" d="M193 241l556 383l-452 377l53 85l583 -399l-16 -120l-695 -415z" />
<glyph unicode="&#x205f;" horiz-adv-x="500" />
<glyph unicode="&#x20ac;" horiz-adv-x="1381" d="M26 562l16 108h192q2 132 27 247h-186l16 108h198q78 243 251.5 382t394.5 139q138 0 251 -36l58 -18l-49 -121q-54 38 -191 55q-50 6 -122 6t-142.5 -28.5t-126.5 -81.5q-111 -106 -168 -297h583l-15 -108h-594q-21 -110 -25 -247h585l-15 -108h-569q16 -331 189 -430 q60 -35 143 -35q208 0 372 118l43 -104q-78 -88 -293 -117q-69 -10 -145.5 -10t-140 22.5t-113.5 63t-87.5 95t-63.5 119.5q-52 127 -62 278h-211z" />
<glyph unicode="&#x2122;" horiz-adv-x="2111" d="M178 1419l17 111h666l-13 -111h-273l-90 -665l-131 -1l90 666h-266zM917 754l152 776h208l158 -619l292 619h218l-32 -776h-133l27 484l14 220l-357 -712h-98l-192 714l-133 -706h-124z" />
<glyph unicode="&#x25fc;" horiz-adv-x="1140" d="M0 0v1140h1140v-1140h-1140z" />
</font>
</defs>
</svg>
